M48
; DRILL file {KiCad (5.1.6-0-10_14)} date Friday, November 20, 2020 at 08:25:29 PM
; FORMAT={-:-/ absolute / inch / decimal}
; #@! TF.CreationDate,2020-11-20T20:25:29-06:00
; #@! TF.GenerationSoftware,Kicad,Pcbnew,(5.1.6-0-10_14)
; #@! TF.FileFunction,Plated,1,4,PTH
FMAT,2
INCH
T1C0.0157
T2C0.0276
T3C0.0315
T4C0.0394
T5C0.0453
T6C0.0650
T7C0.1339
%
G90
G05
T1
X4.01Y-5.09
X4.01Y-5.26
X4.1Y-3.73
X4.11Y-4.225
X4.1703Y-4.3795
X4.175Y-5.215
X4.195Y-4.3277
X4.265Y-3.135
X4.29Y-3.735
X4.29Y-3.91
X4.315Y-3.135
X4.32Y-4.74
X4.3269Y-4.2369
X4.345Y-3.78
X4.345Y-3.855
X4.36Y-4.32
X4.36Y-4.365
X4.365Y-3.135
X4.3794Y-4.1844
X4.3857Y-4.5036
X4.3915Y-4.6385
X4.3916Y-4.591
X4.4Y-3.96
X4.4Y-4.045
X4.4142Y-3.7657
X4.415Y-3.135
X4.415Y-3.69
X4.4443Y-4.1747
X4.4516Y-4.545
X4.465Y-3.135
X4.475Y-3.265
X4.485Y-2.49
X4.485Y-2.53
X4.485Y-2.57
X4.485Y-2.61
X4.488Y-4.1896
X4.5Y-3.8
X4.5Y-3.85
X4.5Y-3.9
X4.5Y-3.95
X4.5Y-4.0
X4.5156Y-4.2207
X4.53Y-2.555
X4.55Y-3.315
X4.55Y-3.775
X4.605Y-3.075
X4.61Y-3.425
X4.6225Y-3.6575
X4.63Y-3.475
X4.65Y-4.455
X4.655Y-3.165
X4.6588Y-4.1967
X4.6663Y-4.2377
X4.6725Y-3.7075
X4.7132Y-3.4768
X4.73Y-4.655
X4.74Y-2.8927
X4.755Y-3.885
X4.83Y-4.17
X4.9375Y-4.1575
X4.965Y-2.8925
X4.965Y-4.395
X4.9817Y-3.63
X5.035Y-3.63
X5.09Y-2.895
X5.095Y-3.1
X5.1Y-3.63
X5.105Y-3.47
X5.17Y-5.175
X5.1727Y-3.38
X5.18Y-4.05
X5.18Y-5.38
X5.1939Y-3.9989
X5.195Y-3.26
X5.205Y-3.945
X5.235Y-3.52
X5.305Y-3.52
X5.38Y-3.19
X5.42Y-3.755
X5.42Y-2.885
X5.42Y-3.83
X5.485Y-3.535
X5.485Y-3.585
X5.52Y-2.95
X5.62Y-2.845
X5.665Y-3.155
X5.665Y-3.57
X5.69Y-3.705
X5.7675Y-3.0716
X5.7699Y-2.9809
X5.77Y-3.03
X5.7702Y-3.2798
X5.805Y-3.23
X5.83Y-2.9327
X5.835Y-3.58
X5.92Y-2.935
X5.94Y-2.84
X5.9997Y-2.9088
X6.015Y-2.845
X6.015Y-3.24
X6.0157Y-3.2993
X6.025Y-2.95
X6.035Y-3.1
X6.0354Y-3.5287
X6.045Y-3.7356
X6.1553Y-3.9255
X6.19Y-2.84
X6.205Y-3.64
X6.225Y-4.41
X6.26Y-3.735
X6.265Y-4.61
X6.265Y-4.65
X6.265Y-4.695
X6.265Y-4.74
X6.31Y-4.61
X6.31Y-4.65
X6.31Y-4.695
X6.31Y-4.735
X6.32Y-4.785
X6.32Y-4.875
X6.3243Y-3.4257
X6.325Y-5.175
X6.34Y-2.945
X6.345Y-5.385
X6.375Y-3.44
X6.43Y-3.9
X6.435Y-3.945
X6.44Y-4.785
X6.44Y-4.875
X6.455Y-3.655
X6.455Y-4.65
X6.455Y-4.695
X6.455Y-4.74
X6.5Y-4.605
X6.5Y-4.65
X6.5Y-4.695
X6.5Y-4.74
X6.545Y-4.65
X6.545Y-4.695
X6.545Y-4.74
X6.555Y-4.445
X6.6437Y-4.605
X6.645Y-4.08
X6.675Y-4.7455
X6.6808Y-4.7044
X6.69Y-4.835
X6.7322Y-4.0478
X6.84Y-4.055
X6.93Y-3.13
X6.965Y-4.1773
X7.02Y-4.045
X7.0211Y-4.7715
X7.035Y-4.835
X7.045Y-4.56
X7.05Y-5.02
X7.0675Y-4.7325
X7.095Y-4.04
X7.18Y-2.675
X7.205Y-2.55
T2
X4.575Y-3.975
X4.615Y-3.87
T3
X6.6875Y-3.7643
X6.6875Y-3.9643
X6.7875Y-3.7643
X6.7875Y-3.9643
X6.8875Y-3.7643
X6.8875Y-3.9643
X7.0875Y-3.7643
X7.0875Y-3.9643
X6.585Y-2.785
X6.585Y-2.985
X6.785Y-2.785
X6.785Y-2.985
X6.885Y-2.785
X6.885Y-2.985
X6.985Y-2.785
X6.985Y-2.985
X6.59Y-3.125
X6.59Y-3.325
X6.59Y-3.425
X6.59Y-3.525
X6.79Y-3.125
X6.79Y-3.325
X6.79Y-3.425
X6.79Y-3.525
T4
X4.5036Y-2.3779
X4.6036Y-2.3779
X4.7792Y-2.0618
X4.7792Y-2.1618
X4.7792Y-2.2618
X4.7792Y-2.3618
X4.7792Y-2.4618
X4.8792Y-2.0618
X4.8792Y-2.1618
X4.8792Y-2.2618
X4.8792Y-2.3618
X4.8792Y-2.4618
X6.787Y-2.3779
X6.887Y-2.3779
X5.5425Y-4.6375
X5.6425Y-4.6375
X5.8425Y-4.6375
X6.0425Y-4.6375
X6.5114Y-2.0618
X6.5114Y-2.1618
X6.5114Y-2.2618
X6.5114Y-2.3618
X6.5114Y-2.4618
X6.6114Y-2.0618
X6.6114Y-2.1618
X6.6114Y-2.2618
X6.6114Y-2.3618
X6.6114Y-2.4618
X4.0162Y-3.1951
X4.0162Y-3.2951
X4.0162Y-3.3951
X4.0162Y-3.4951
X4.0162Y-3.5951
X4.0162Y-3.6951
X4.0162Y-3.7951
X4.0162Y-3.8951
X4.0162Y-3.9951
X4.0162Y-4.0951
X4.0162Y-4.1951
X4.0162Y-4.2951
X4.0162Y-4.3951
X4.0162Y-4.4951
X7.3351Y-3.6955
X7.3351Y-3.7955
X7.3351Y-3.8955
X7.3351Y-3.9955
X6.93Y-4.37
X6.93Y-4.47
X7.03Y-4.37
X7.03Y-4.47
X4.86Y-4.945
X4.96Y-4.945
X5.06Y-4.945
X5.16Y-4.945
X5.26Y-4.945
X5.36Y-4.945
T5
X4.95Y-4.54
X5.1469Y-4.54
T6
X6.089Y-4.963
X6.276Y-4.963
X6.463Y-4.963
T7
X4.0555Y-2.8801
X4.0555Y-4.8108
X7.3351Y-2.8801
X7.3351Y-4.8108
T3
G00X7.0929Y-3.1356
M15
G01X7.0654Y-3.1356
M16
G05
G00X7.0929Y-3.2341
M15
G01X7.0654Y-3.2341
M16
G05
G00X7.0929Y-3.4309
M15
G01X7.0654Y-3.4309
M16
G05
G00X7.0929Y-3.5294
M15
G01X7.0654Y-3.5294
M16
G05
G00X7.2898Y-3.3325
M15
G01X7.2622Y-3.3325
M16
G05
T0
M30
