%TF.GenerationSoftware,KiCad,Pcbnew,(5.1.6-0-10_14)*%
%TF.CreationDate,2020-11-20T20:27:55-06:00*%
%TF.ProjectId,Breadboard_DMM,42726561-6462-46f6-9172-645f444d4d2e,rev?*%
%TF.SameCoordinates,Original*%
%TF.FileFunction,Soldermask,Top*%
%TF.FilePolarity,Negative*%
%FSLAX46Y46*%
G04 Gerber Fmt 4.6, Leading zero omitted, Abs format (unit mm)*
G04 Created by KiCad (PCBNEW (5.1.6-0-10_14)) date 2020-11-20 20:27:55*
%MOMM*%
%LPD*%
G01*
G04 APERTURE LIST*
%ADD10C,5.800000*%
%ADD11C,1.800000*%
%ADD12R,2.000000X3.350000*%
%ADD13C,1.600000*%
%ADD14O,1.800000X1.800000*%
%ADD15R,1.800000X1.800000*%
%ADD16C,1.950000*%
%ADD17R,1.600000X0.500000*%
%ADD18R,1.100000X1.100000*%
%ADD19R,0.500000X1.600000*%
%ADD20R,1.900000X3.000000*%
%ADD21R,3.910000X4.340000*%
%ADD22C,2.900000*%
%ADD23R,1.000000X0.900000*%
%ADD24R,1.160000X0.750000*%
%ADD25R,0.750000X1.160000*%
%ADD26R,0.900000X2.000000*%
%ADD27C,1.900000*%
%ADD28O,2.500000X1.700000*%
%ADD29C,1.300000*%
%ADD30R,1.300000X1.000000*%
%ADD31R,1.000000X1.300000*%
%ADD32R,2.100000X2.300000*%
G04 APERTURE END LIST*
D10*
%TO.C,DS701*%
X186310801Y-122194800D03*
X186310801Y-73154800D03*
X103010801Y-73154800D03*
X103010801Y-122194800D03*
D11*
X186310801Y-101484800D03*
X186310801Y-98944800D03*
X186310801Y-96404800D03*
X186310801Y-93864800D03*
X102010801Y-114174800D03*
X102010801Y-111634800D03*
X102010801Y-109094800D03*
X102010801Y-106554800D03*
X102010801Y-104014800D03*
X102010801Y-101474800D03*
X102010801Y-98934800D03*
X102010801Y-96394800D03*
X102010801Y-93854800D03*
X102010801Y-91314800D03*
X102010801Y-88774800D03*
X102010801Y-86234800D03*
X102010801Y-83694800D03*
G36*
G01*
X102460801Y-82054800D02*
X101560801Y-82054800D01*
G75*
G02*
X101110801Y-81604800I0J450000D01*
G01*
X101110801Y-80704800D01*
G75*
G02*
X101560801Y-80254800I450000J0D01*
G01*
X102460801Y-80254800D01*
G75*
G02*
X102910801Y-80704800I0J-450000D01*
G01*
X102910801Y-81604800D01*
G75*
G02*
X102460801Y-82054800I-450000J0D01*
G01*
G37*
%TD*%
D12*
%TO.C,R601*%
X118090000Y-75142000D03*
X115590000Y-75142000D03*
X118090000Y-69892000D03*
X115590000Y-69892000D03*
%TD*%
D13*
%TO.C,TP702*%
X116205000Y-100965000D03*
%TD*%
%TO.C,TP701*%
X117221000Y-98298000D03*
%TD*%
D14*
%TO.C,J703*%
X178562000Y-110998000D03*
X176022000Y-110998000D03*
X178562000Y-113538000D03*
D15*
X176022000Y-113538000D03*
%TD*%
D16*
%TO.C,LS701*%
X130730000Y-115316000D03*
X125730000Y-115316000D03*
%TD*%
D14*
%TO.C,J701*%
X136144000Y-125603000D03*
X133604000Y-125603000D03*
X131064000Y-125603000D03*
X128524000Y-125603000D03*
X125984000Y-125603000D03*
D15*
X123444000Y-125603000D03*
%TD*%
%TO.C,R309*%
G36*
G01*
X170188500Y-104221000D02*
X169663500Y-104221000D01*
G75*
G02*
X169401000Y-103958500I0J262500D01*
G01*
X169401000Y-103333500D01*
G75*
G02*
X169663500Y-103071000I262500J0D01*
G01*
X170188500Y-103071000D01*
G75*
G02*
X170451000Y-103333500I0J-262500D01*
G01*
X170451000Y-103958500D01*
G75*
G02*
X170188500Y-104221000I-262500J0D01*
G01*
G37*
G36*
G01*
X170188500Y-105971000D02*
X169663500Y-105971000D01*
G75*
G02*
X169401000Y-105708500I0J262500D01*
G01*
X169401000Y-105083500D01*
G75*
G02*
X169663500Y-104821000I262500J0D01*
G01*
X170188500Y-104821000D01*
G75*
G02*
X170451000Y-105083500I0J-262500D01*
G01*
X170451000Y-105708500D01*
G75*
G02*
X170188500Y-105971000I-262500J0D01*
G01*
G37*
%TD*%
%TO.C,R308*%
G36*
G01*
X180839500Y-104821000D02*
X181364500Y-104821000D01*
G75*
G02*
X181627000Y-105083500I0J-262500D01*
G01*
X181627000Y-105708500D01*
G75*
G02*
X181364500Y-105971000I-262500J0D01*
G01*
X180839500Y-105971000D01*
G75*
G02*
X180577000Y-105708500I0J262500D01*
G01*
X180577000Y-105083500D01*
G75*
G02*
X180839500Y-104821000I262500J0D01*
G01*
G37*
G36*
G01*
X180839500Y-103071000D02*
X181364500Y-103071000D01*
G75*
G02*
X181627000Y-103333500I0J-262500D01*
G01*
X181627000Y-103958500D01*
G75*
G02*
X181364500Y-104221000I-262500J0D01*
G01*
X180839500Y-104221000D01*
G75*
G02*
X180577000Y-103958500I0J262500D01*
G01*
X180577000Y-103333500D01*
G75*
G02*
X180839500Y-103071000I262500J0D01*
G01*
G37*
%TD*%
%TO.C,R307*%
G36*
G01*
X171568500Y-104821000D02*
X172093500Y-104821000D01*
G75*
G02*
X172356000Y-105083500I0J-262500D01*
G01*
X172356000Y-105708500D01*
G75*
G02*
X172093500Y-105971000I-262500J0D01*
G01*
X171568500Y-105971000D01*
G75*
G02*
X171306000Y-105708500I0J262500D01*
G01*
X171306000Y-105083500D01*
G75*
G02*
X171568500Y-104821000I262500J0D01*
G01*
G37*
G36*
G01*
X171568500Y-103071000D02*
X172093500Y-103071000D01*
G75*
G02*
X172356000Y-103333500I0J-262500D01*
G01*
X172356000Y-103958500D01*
G75*
G02*
X172093500Y-104221000I-262500J0D01*
G01*
X171568500Y-104221000D01*
G75*
G02*
X171306000Y-103958500I0J262500D01*
G01*
X171306000Y-103333500D01*
G75*
G02*
X171568500Y-103071000I262500J0D01*
G01*
G37*
%TD*%
%TO.C,R310*%
G36*
G01*
X179459500Y-104221000D02*
X178934500Y-104221000D01*
G75*
G02*
X178672000Y-103958500I0J262500D01*
G01*
X178672000Y-103333500D01*
G75*
G02*
X178934500Y-103071000I262500J0D01*
G01*
X179459500Y-103071000D01*
G75*
G02*
X179722000Y-103333500I0J-262500D01*
G01*
X179722000Y-103958500D01*
G75*
G02*
X179459500Y-104221000I-262500J0D01*
G01*
G37*
G36*
G01*
X179459500Y-105971000D02*
X178934500Y-105971000D01*
G75*
G02*
X178672000Y-105708500I0J262500D01*
G01*
X178672000Y-105083500D01*
G75*
G02*
X178934500Y-104821000I262500J0D01*
G01*
X179459500Y-104821000D01*
G75*
G02*
X179722000Y-105083500I0J-262500D01*
G01*
X179722000Y-105708500D01*
G75*
G02*
X179459500Y-105971000I-262500J0D01*
G01*
G37*
%TD*%
D17*
%TO.C,Q301*%
X176844000Y-103871000D03*
X176844000Y-104521000D03*
X176844000Y-105171000D03*
X174184000Y-105171000D03*
X174184000Y-104521000D03*
X174184000Y-103871000D03*
%TD*%
D13*
%TO.C,K501*%
X167259000Y-70739000D03*
X172339000Y-70739000D03*
X174879000Y-70739000D03*
X177419000Y-70739000D03*
X177419000Y-75819000D03*
X174879000Y-75819000D03*
X172339000Y-75819000D03*
G36*
G01*
X167791800Y-76619000D02*
X166726200Y-76619000D01*
G75*
G02*
X166459000Y-76351800I0J267200D01*
G01*
X166459000Y-75286200D01*
G75*
G02*
X166726200Y-75019000I267200J0D01*
G01*
X167791800Y-75019000D01*
G75*
G02*
X168059000Y-75286200I0J-267200D01*
G01*
X168059000Y-76351800D01*
G75*
G02*
X167791800Y-76619000I-267200J0D01*
G01*
G37*
%TD*%
%TO.C,U202*%
G36*
G01*
X134283000Y-84315000D02*
X134283000Y-83965000D01*
G75*
G02*
X134458000Y-83790000I175000J0D01*
G01*
X135533000Y-83790000D01*
G75*
G02*
X135708000Y-83965000I0J-175000D01*
G01*
X135708000Y-84315000D01*
G75*
G02*
X135533000Y-84490000I-175000J0D01*
G01*
X134458000Y-84490000D01*
G75*
G02*
X134283000Y-84315000I0J175000D01*
G01*
G37*
G36*
G01*
X134283000Y-85265000D02*
X134283000Y-84915000D01*
G75*
G02*
X134458000Y-84740000I175000J0D01*
G01*
X135533000Y-84740000D01*
G75*
G02*
X135708000Y-84915000I0J-175000D01*
G01*
X135708000Y-85265000D01*
G75*
G02*
X135533000Y-85440000I-175000J0D01*
G01*
X134458000Y-85440000D01*
G75*
G02*
X134283000Y-85265000I0J175000D01*
G01*
G37*
G36*
G01*
X134283000Y-86215000D02*
X134283000Y-85865000D01*
G75*
G02*
X134458000Y-85690000I175000J0D01*
G01*
X135533000Y-85690000D01*
G75*
G02*
X135708000Y-85865000I0J-175000D01*
G01*
X135708000Y-86215000D01*
G75*
G02*
X135533000Y-86390000I-175000J0D01*
G01*
X134458000Y-86390000D01*
G75*
G02*
X134283000Y-86215000I0J175000D01*
G01*
G37*
G36*
G01*
X132008000Y-86215000D02*
X132008000Y-85865000D01*
G75*
G02*
X132183000Y-85690000I175000J0D01*
G01*
X133258000Y-85690000D01*
G75*
G02*
X133433000Y-85865000I0J-175000D01*
G01*
X133433000Y-86215000D01*
G75*
G02*
X133258000Y-86390000I-175000J0D01*
G01*
X132183000Y-86390000D01*
G75*
G02*
X132008000Y-86215000I0J175000D01*
G01*
G37*
G36*
G01*
X132008000Y-85265000D02*
X132008000Y-84915000D01*
G75*
G02*
X132183000Y-84740000I175000J0D01*
G01*
X133258000Y-84740000D01*
G75*
G02*
X133433000Y-84915000I0J-175000D01*
G01*
X133433000Y-85265000D01*
G75*
G02*
X133258000Y-85440000I-175000J0D01*
G01*
X132183000Y-85440000D01*
G75*
G02*
X132008000Y-85265000I0J175000D01*
G01*
G37*
G36*
G01*
X132008000Y-84315000D02*
X132008000Y-83965000D01*
G75*
G02*
X132183000Y-83790000I175000J0D01*
G01*
X133258000Y-83790000D01*
G75*
G02*
X133433000Y-83965000I0J-175000D01*
G01*
X133433000Y-84315000D01*
G75*
G02*
X133258000Y-84490000I-175000J0D01*
G01*
X132183000Y-84490000D01*
G75*
G02*
X132008000Y-84315000I0J175000D01*
G01*
G37*
%TD*%
%TO.C,C708*%
G36*
G01*
X162793000Y-133341500D02*
X162793000Y-133866500D01*
G75*
G02*
X162530500Y-134129000I-262500J0D01*
G01*
X161880500Y-134129000D01*
G75*
G02*
X161618000Y-133866500I0J262500D01*
G01*
X161618000Y-133341500D01*
G75*
G02*
X161880500Y-133079000I262500J0D01*
G01*
X162530500Y-133079000D01*
G75*
G02*
X162793000Y-133341500I0J-262500D01*
G01*
G37*
G36*
G01*
X164518000Y-133341500D02*
X164518000Y-133866500D01*
G75*
G02*
X164255500Y-134129000I-262500J0D01*
G01*
X163605500Y-134129000D01*
G75*
G02*
X163343000Y-133866500I0J262500D01*
G01*
X163343000Y-133341500D01*
G75*
G02*
X163605500Y-133079000I262500J0D01*
G01*
X164255500Y-133079000D01*
G75*
G02*
X164518000Y-133341500I0J-262500D01*
G01*
G37*
%TD*%
%TO.C,C707*%
G36*
G01*
X109228500Y-101071000D02*
X108703500Y-101071000D01*
G75*
G02*
X108441000Y-100808500I0J262500D01*
G01*
X108441000Y-100158500D01*
G75*
G02*
X108703500Y-99896000I262500J0D01*
G01*
X109228500Y-99896000D01*
G75*
G02*
X109491000Y-100158500I0J-262500D01*
G01*
X109491000Y-100808500D01*
G75*
G02*
X109228500Y-101071000I-262500J0D01*
G01*
G37*
G36*
G01*
X109228500Y-102796000D02*
X108703500Y-102796000D01*
G75*
G02*
X108441000Y-102533500I0J262500D01*
G01*
X108441000Y-101883500D01*
G75*
G02*
X108703500Y-101621000I262500J0D01*
G01*
X109228500Y-101621000D01*
G75*
G02*
X109491000Y-101883500I0J-262500D01*
G01*
X109491000Y-102533500D01*
G75*
G02*
X109228500Y-102796000I-262500J0D01*
G01*
G37*
%TD*%
%TO.C,C706*%
G36*
G01*
X133329000Y-133341500D02*
X133329000Y-133866500D01*
G75*
G02*
X133066500Y-134129000I-262500J0D01*
G01*
X132416500Y-134129000D01*
G75*
G02*
X132154000Y-133866500I0J262500D01*
G01*
X132154000Y-133341500D01*
G75*
G02*
X132416500Y-133079000I262500J0D01*
G01*
X133066500Y-133079000D01*
G75*
G02*
X133329000Y-133341500I0J-262500D01*
G01*
G37*
G36*
G01*
X135054000Y-133341500D02*
X135054000Y-133866500D01*
G75*
G02*
X134791500Y-134129000I-262500J0D01*
G01*
X134141500Y-134129000D01*
G75*
G02*
X133879000Y-133866500I0J262500D01*
G01*
X133879000Y-133341500D01*
G75*
G02*
X134141500Y-133079000I262500J0D01*
G01*
X134791500Y-133079000D01*
G75*
G02*
X135054000Y-133341500I0J-262500D01*
G01*
G37*
%TD*%
%TO.C,C705*%
G36*
G01*
X111739000Y-101210500D02*
X111739000Y-101735500D01*
G75*
G02*
X111476500Y-101998000I-262500J0D01*
G01*
X110826500Y-101998000D01*
G75*
G02*
X110564000Y-101735500I0J262500D01*
G01*
X110564000Y-101210500D01*
G75*
G02*
X110826500Y-100948000I262500J0D01*
G01*
X111476500Y-100948000D01*
G75*
G02*
X111739000Y-101210500I0J-262500D01*
G01*
G37*
G36*
G01*
X113464000Y-101210500D02*
X113464000Y-101735500D01*
G75*
G02*
X113201500Y-101998000I-262500J0D01*
G01*
X112551500Y-101998000D01*
G75*
G02*
X112289000Y-101735500I0J262500D01*
G01*
X112289000Y-101210500D01*
G75*
G02*
X112551500Y-100948000I262500J0D01*
G01*
X113201500Y-100948000D01*
G75*
G02*
X113464000Y-101210500I0J-262500D01*
G01*
G37*
%TD*%
%TO.C,C704*%
G36*
G01*
X111614000Y-98683276D02*
X111614000Y-99690724D01*
G75*
G02*
X111342724Y-99962000I-271276J0D01*
G01*
X110610276Y-99962000D01*
G75*
G02*
X110339000Y-99690724I0J271276D01*
G01*
X110339000Y-98683276D01*
G75*
G02*
X110610276Y-98412000I271276J0D01*
G01*
X111342724Y-98412000D01*
G75*
G02*
X111614000Y-98683276I0J-271276D01*
G01*
G37*
G36*
G01*
X113689000Y-98683276D02*
X113689000Y-99690724D01*
G75*
G02*
X113417724Y-99962000I-271276J0D01*
G01*
X112685276Y-99962000D01*
G75*
G02*
X112414000Y-99690724I0J271276D01*
G01*
X112414000Y-98683276D01*
G75*
G02*
X112685276Y-98412000I271276J0D01*
G01*
X113417724Y-98412000D01*
G75*
G02*
X113689000Y-98683276I0J-271276D01*
G01*
G37*
%TD*%
%TO.C,C703*%
G36*
G01*
X103738000Y-129150500D02*
X103738000Y-129675500D01*
G75*
G02*
X103475500Y-129938000I-262500J0D01*
G01*
X102825500Y-129938000D01*
G75*
G02*
X102563000Y-129675500I0J262500D01*
G01*
X102563000Y-129150500D01*
G75*
G02*
X102825500Y-128888000I262500J0D01*
G01*
X103475500Y-128888000D01*
G75*
G02*
X103738000Y-129150500I0J-262500D01*
G01*
G37*
G36*
G01*
X105463000Y-129150500D02*
X105463000Y-129675500D01*
G75*
G02*
X105200500Y-129938000I-262500J0D01*
G01*
X104550500Y-129938000D01*
G75*
G02*
X104288000Y-129675500I0J262500D01*
G01*
X104288000Y-129150500D01*
G75*
G02*
X104550500Y-128888000I262500J0D01*
G01*
X105200500Y-128888000D01*
G75*
G02*
X105463000Y-129150500I0J-262500D01*
G01*
G37*
%TD*%
%TO.C,C702*%
G36*
G01*
X177948000Y-117229500D02*
X177948000Y-116704500D01*
G75*
G02*
X178210500Y-116442000I262500J0D01*
G01*
X178860500Y-116442000D01*
G75*
G02*
X179123000Y-116704500I0J-262500D01*
G01*
X179123000Y-117229500D01*
G75*
G02*
X178860500Y-117492000I-262500J0D01*
G01*
X178210500Y-117492000D01*
G75*
G02*
X177948000Y-117229500I0J262500D01*
G01*
G37*
G36*
G01*
X176223000Y-117229500D02*
X176223000Y-116704500D01*
G75*
G02*
X176485500Y-116442000I262500J0D01*
G01*
X177135500Y-116442000D01*
G75*
G02*
X177398000Y-116704500I0J-262500D01*
G01*
X177398000Y-117229500D01*
G75*
G02*
X177135500Y-117492000I-262500J0D01*
G01*
X176485500Y-117492000D01*
G75*
G02*
X176223000Y-117229500I0J262500D01*
G01*
G37*
%TD*%
%TO.C,C701*%
G36*
G01*
X170667000Y-116704500D02*
X170667000Y-117229500D01*
G75*
G02*
X170404500Y-117492000I-262500J0D01*
G01*
X169754500Y-117492000D01*
G75*
G02*
X169492000Y-117229500I0J262500D01*
G01*
X169492000Y-116704500D01*
G75*
G02*
X169754500Y-116442000I262500J0D01*
G01*
X170404500Y-116442000D01*
G75*
G02*
X170667000Y-116704500I0J-262500D01*
G01*
G37*
G36*
G01*
X172392000Y-116704500D02*
X172392000Y-117229500D01*
G75*
G02*
X172129500Y-117492000I-262500J0D01*
G01*
X171479500Y-117492000D01*
G75*
G02*
X171217000Y-117229500I0J262500D01*
G01*
X171217000Y-116704500D01*
G75*
G02*
X171479500Y-116442000I262500J0D01*
G01*
X172129500Y-116442000D01*
G75*
G02*
X172392000Y-116704500I0J-262500D01*
G01*
G37*
%TD*%
%TO.C,C501*%
G36*
G01*
X151505500Y-75827500D02*
X151505500Y-75302500D01*
G75*
G02*
X151768000Y-75040000I262500J0D01*
G01*
X152418000Y-75040000D01*
G75*
G02*
X152680500Y-75302500I0J-262500D01*
G01*
X152680500Y-75827500D01*
G75*
G02*
X152418000Y-76090000I-262500J0D01*
G01*
X151768000Y-76090000D01*
G75*
G02*
X151505500Y-75827500I0J262500D01*
G01*
G37*
G36*
G01*
X149780500Y-75827500D02*
X149780500Y-75302500D01*
G75*
G02*
X150043000Y-75040000I262500J0D01*
G01*
X150693000Y-75040000D01*
G75*
G02*
X150955500Y-75302500I0J-262500D01*
G01*
X150955500Y-75827500D01*
G75*
G02*
X150693000Y-76090000I-262500J0D01*
G01*
X150043000Y-76090000D01*
G75*
G02*
X149780500Y-75827500I0J262500D01*
G01*
G37*
%TD*%
%TO.C,C403*%
G36*
G01*
X149233500Y-98224000D02*
X148708500Y-98224000D01*
G75*
G02*
X148446000Y-97961500I0J262500D01*
G01*
X148446000Y-97311500D01*
G75*
G02*
X148708500Y-97049000I262500J0D01*
G01*
X149233500Y-97049000D01*
G75*
G02*
X149496000Y-97311500I0J-262500D01*
G01*
X149496000Y-97961500D01*
G75*
G02*
X149233500Y-98224000I-262500J0D01*
G01*
G37*
G36*
G01*
X149233500Y-96499000D02*
X148708500Y-96499000D01*
G75*
G02*
X148446000Y-96236500I0J262500D01*
G01*
X148446000Y-95586500D01*
G75*
G02*
X148708500Y-95324000I262500J0D01*
G01*
X149233500Y-95324000D01*
G75*
G02*
X149496000Y-95586500I0J-262500D01*
G01*
X149496000Y-96236500D01*
G75*
G02*
X149233500Y-96499000I-262500J0D01*
G01*
G37*
%TD*%
%TO.C,C402*%
G36*
G01*
X139200500Y-97843000D02*
X138675500Y-97843000D01*
G75*
G02*
X138413000Y-97580500I0J262500D01*
G01*
X138413000Y-96930500D01*
G75*
G02*
X138675500Y-96668000I262500J0D01*
G01*
X139200500Y-96668000D01*
G75*
G02*
X139463000Y-96930500I0J-262500D01*
G01*
X139463000Y-97580500D01*
G75*
G02*
X139200500Y-97843000I-262500J0D01*
G01*
G37*
G36*
G01*
X139200500Y-96118000D02*
X138675500Y-96118000D01*
G75*
G02*
X138413000Y-95855500I0J262500D01*
G01*
X138413000Y-95205500D01*
G75*
G02*
X138675500Y-94943000I262500J0D01*
G01*
X139200500Y-94943000D01*
G75*
G02*
X139463000Y-95205500I0J-262500D01*
G01*
X139463000Y-95855500D01*
G75*
G02*
X139200500Y-96118000I-262500J0D01*
G01*
G37*
%TD*%
%TO.C,C401*%
G36*
G01*
X140978500Y-92128000D02*
X140453500Y-92128000D01*
G75*
G02*
X140191000Y-91865500I0J262500D01*
G01*
X140191000Y-91215500D01*
G75*
G02*
X140453500Y-90953000I262500J0D01*
G01*
X140978500Y-90953000D01*
G75*
G02*
X141241000Y-91215500I0J-262500D01*
G01*
X141241000Y-91865500D01*
G75*
G02*
X140978500Y-92128000I-262500J0D01*
G01*
G37*
G36*
G01*
X140978500Y-90403000D02*
X140453500Y-90403000D01*
G75*
G02*
X140191000Y-90140500I0J262500D01*
G01*
X140191000Y-89490500D01*
G75*
G02*
X140453500Y-89228000I262500J0D01*
G01*
X140978500Y-89228000D01*
G75*
G02*
X141241000Y-89490500I0J-262500D01*
G01*
X141241000Y-90140500D01*
G75*
G02*
X140978500Y-90403000I-262500J0D01*
G01*
G37*
%TD*%
%TO.C,C301*%
G36*
G01*
X153788500Y-83460000D02*
X154313500Y-83460000D01*
G75*
G02*
X154576000Y-83722500I0J-262500D01*
G01*
X154576000Y-84372500D01*
G75*
G02*
X154313500Y-84635000I-262500J0D01*
G01*
X153788500Y-84635000D01*
G75*
G02*
X153526000Y-84372500I0J262500D01*
G01*
X153526000Y-83722500D01*
G75*
G02*
X153788500Y-83460000I262500J0D01*
G01*
G37*
G36*
G01*
X153788500Y-81735000D02*
X154313500Y-81735000D01*
G75*
G02*
X154576000Y-81997500I0J-262500D01*
G01*
X154576000Y-82647500D01*
G75*
G02*
X154313500Y-82910000I-262500J0D01*
G01*
X153788500Y-82910000D01*
G75*
G02*
X153526000Y-82647500I0J262500D01*
G01*
X153526000Y-81997500D01*
G75*
G02*
X153788500Y-81735000I262500J0D01*
G01*
G37*
%TD*%
%TO.C,C212*%
G36*
G01*
X118978000Y-77842500D02*
X118978000Y-78367500D01*
G75*
G02*
X118715500Y-78630000I-262500J0D01*
G01*
X118065500Y-78630000D01*
G75*
G02*
X117803000Y-78367500I0J262500D01*
G01*
X117803000Y-77842500D01*
G75*
G02*
X118065500Y-77580000I262500J0D01*
G01*
X118715500Y-77580000D01*
G75*
G02*
X118978000Y-77842500I0J-262500D01*
G01*
G37*
G36*
G01*
X120703000Y-77842500D02*
X120703000Y-78367500D01*
G75*
G02*
X120440500Y-78630000I-262500J0D01*
G01*
X119790500Y-78630000D01*
G75*
G02*
X119528000Y-78367500I0J262500D01*
G01*
X119528000Y-77842500D01*
G75*
G02*
X119790500Y-77580000I262500J0D01*
G01*
X120440500Y-77580000D01*
G75*
G02*
X120703000Y-77842500I0J-262500D01*
G01*
G37*
%TD*%
%TO.C,C211*%
G36*
G01*
X136165000Y-82558500D02*
X136165000Y-82033500D01*
G75*
G02*
X136427500Y-81771000I262500J0D01*
G01*
X137077500Y-81771000D01*
G75*
G02*
X137340000Y-82033500I0J-262500D01*
G01*
X137340000Y-82558500D01*
G75*
G02*
X137077500Y-82821000I-262500J0D01*
G01*
X136427500Y-82821000D01*
G75*
G02*
X136165000Y-82558500I0J262500D01*
G01*
G37*
G36*
G01*
X134440000Y-82558500D02*
X134440000Y-82033500D01*
G75*
G02*
X134702500Y-81771000I262500J0D01*
G01*
X135352500Y-81771000D01*
G75*
G02*
X135615000Y-82033500I0J-262500D01*
G01*
X135615000Y-82558500D01*
G75*
G02*
X135352500Y-82821000I-262500J0D01*
G01*
X134702500Y-82821000D01*
G75*
G02*
X134440000Y-82558500I0J262500D01*
G01*
G37*
%TD*%
%TO.C,C210*%
G36*
G01*
X131072500Y-83037000D02*
X130547500Y-83037000D01*
G75*
G02*
X130285000Y-82774500I0J262500D01*
G01*
X130285000Y-82124500D01*
G75*
G02*
X130547500Y-81862000I262500J0D01*
G01*
X131072500Y-81862000D01*
G75*
G02*
X131335000Y-82124500I0J-262500D01*
G01*
X131335000Y-82774500D01*
G75*
G02*
X131072500Y-83037000I-262500J0D01*
G01*
G37*
G36*
G01*
X131072500Y-84762000D02*
X130547500Y-84762000D01*
G75*
G02*
X130285000Y-84499500I0J262500D01*
G01*
X130285000Y-83849500D01*
G75*
G02*
X130547500Y-83587000I262500J0D01*
G01*
X131072500Y-83587000D01*
G75*
G02*
X131335000Y-83849500I0J-262500D01*
G01*
X131335000Y-84499500D01*
G75*
G02*
X131072500Y-84762000I-262500J0D01*
G01*
G37*
%TD*%
%TO.C,C209*%
G36*
G01*
X133583000Y-87748500D02*
X133583000Y-88273500D01*
G75*
G02*
X133320500Y-88536000I-262500J0D01*
G01*
X132670500Y-88536000D01*
G75*
G02*
X132408000Y-88273500I0J262500D01*
G01*
X132408000Y-87748500D01*
G75*
G02*
X132670500Y-87486000I262500J0D01*
G01*
X133320500Y-87486000D01*
G75*
G02*
X133583000Y-87748500I0J-262500D01*
G01*
G37*
G36*
G01*
X135308000Y-87748500D02*
X135308000Y-88273500D01*
G75*
G02*
X135045500Y-88536000I-262500J0D01*
G01*
X134395500Y-88536000D01*
G75*
G02*
X134133000Y-88273500I0J262500D01*
G01*
X134133000Y-87748500D01*
G75*
G02*
X134395500Y-87486000I262500J0D01*
G01*
X135045500Y-87486000D01*
G75*
G02*
X135308000Y-87748500I0J-262500D01*
G01*
G37*
%TD*%
%TO.C,C208*%
G36*
G01*
X126610500Y-90445000D02*
X127135500Y-90445000D01*
G75*
G02*
X127398000Y-90707500I0J-262500D01*
G01*
X127398000Y-91357500D01*
G75*
G02*
X127135500Y-91620000I-262500J0D01*
G01*
X126610500Y-91620000D01*
G75*
G02*
X126348000Y-91357500I0J262500D01*
G01*
X126348000Y-90707500D01*
G75*
G02*
X126610500Y-90445000I262500J0D01*
G01*
G37*
G36*
G01*
X126610500Y-88720000D02*
X127135500Y-88720000D01*
G75*
G02*
X127398000Y-88982500I0J-262500D01*
G01*
X127398000Y-89632500D01*
G75*
G02*
X127135500Y-89895000I-262500J0D01*
G01*
X126610500Y-89895000D01*
G75*
G02*
X126348000Y-89632500I0J262500D01*
G01*
X126348000Y-88982500D01*
G75*
G02*
X126610500Y-88720000I262500J0D01*
G01*
G37*
%TD*%
%TO.C,C207*%
G36*
G01*
X129167500Y-89895000D02*
X128642500Y-89895000D01*
G75*
G02*
X128380000Y-89632500I0J262500D01*
G01*
X128380000Y-88982500D01*
G75*
G02*
X128642500Y-88720000I262500J0D01*
G01*
X129167500Y-88720000D01*
G75*
G02*
X129430000Y-88982500I0J-262500D01*
G01*
X129430000Y-89632500D01*
G75*
G02*
X129167500Y-89895000I-262500J0D01*
G01*
G37*
G36*
G01*
X129167500Y-91620000D02*
X128642500Y-91620000D01*
G75*
G02*
X128380000Y-91357500I0J262500D01*
G01*
X128380000Y-90707500D01*
G75*
G02*
X128642500Y-90445000I262500J0D01*
G01*
X129167500Y-90445000D01*
G75*
G02*
X129430000Y-90707500I0J-262500D01*
G01*
X129430000Y-91357500D01*
G75*
G02*
X129167500Y-91620000I-262500J0D01*
G01*
G37*
%TD*%
%TO.C,C206*%
G36*
G01*
X126373500Y-75062500D02*
X125848500Y-75062500D01*
G75*
G02*
X125586000Y-74800000I0J262500D01*
G01*
X125586000Y-74150000D01*
G75*
G02*
X125848500Y-73887500I262500J0D01*
G01*
X126373500Y-73887500D01*
G75*
G02*
X126636000Y-74150000I0J-262500D01*
G01*
X126636000Y-74800000D01*
G75*
G02*
X126373500Y-75062500I-262500J0D01*
G01*
G37*
G36*
G01*
X126373500Y-76787500D02*
X125848500Y-76787500D01*
G75*
G02*
X125586000Y-76525000I0J262500D01*
G01*
X125586000Y-75875000D01*
G75*
G02*
X125848500Y-75612500I262500J0D01*
G01*
X126373500Y-75612500D01*
G75*
G02*
X126636000Y-75875000I0J-262500D01*
G01*
X126636000Y-76525000D01*
G75*
G02*
X126373500Y-76787500I-262500J0D01*
G01*
G37*
%TD*%
%TO.C,C205*%
G36*
G01*
X130293500Y-78507000D02*
X130818500Y-78507000D01*
G75*
G02*
X131081000Y-78769500I0J-262500D01*
G01*
X131081000Y-79419500D01*
G75*
G02*
X130818500Y-79682000I-262500J0D01*
G01*
X130293500Y-79682000D01*
G75*
G02*
X130031000Y-79419500I0J262500D01*
G01*
X130031000Y-78769500D01*
G75*
G02*
X130293500Y-78507000I262500J0D01*
G01*
G37*
G36*
G01*
X130293500Y-76782000D02*
X130818500Y-76782000D01*
G75*
G02*
X131081000Y-77044500I0J-262500D01*
G01*
X131081000Y-77694500D01*
G75*
G02*
X130818500Y-77957000I-262500J0D01*
G01*
X130293500Y-77957000D01*
G75*
G02*
X130031000Y-77694500I0J262500D01*
G01*
X130031000Y-77044500D01*
G75*
G02*
X130293500Y-76782000I262500J0D01*
G01*
G37*
%TD*%
%TO.C,C204*%
G36*
G01*
X121994000Y-78494500D02*
X121994000Y-77969500D01*
G75*
G02*
X122256500Y-77707000I262500J0D01*
G01*
X122906500Y-77707000D01*
G75*
G02*
X123169000Y-77969500I0J-262500D01*
G01*
X123169000Y-78494500D01*
G75*
G02*
X122906500Y-78757000I-262500J0D01*
G01*
X122256500Y-78757000D01*
G75*
G02*
X121994000Y-78494500I0J262500D01*
G01*
G37*
G36*
G01*
X123719000Y-78494500D02*
X123719000Y-77969500D01*
G75*
G02*
X123981500Y-77707000I262500J0D01*
G01*
X124631500Y-77707000D01*
G75*
G02*
X124894000Y-77969500I0J-262500D01*
G01*
X124894000Y-78494500D01*
G75*
G02*
X124631500Y-78757000I-262500J0D01*
G01*
X123981500Y-78757000D01*
G75*
G02*
X123719000Y-78494500I0J262500D01*
G01*
G37*
%TD*%
%TO.C,C203*%
G36*
G01*
X128261500Y-76602000D02*
X128786500Y-76602000D01*
G75*
G02*
X129049000Y-76864500I0J-262500D01*
G01*
X129049000Y-77514500D01*
G75*
G02*
X128786500Y-77777000I-262500J0D01*
G01*
X128261500Y-77777000D01*
G75*
G02*
X127999000Y-77514500I0J262500D01*
G01*
X127999000Y-76864500D01*
G75*
G02*
X128261500Y-76602000I262500J0D01*
G01*
G37*
G36*
G01*
X128261500Y-74877000D02*
X128786500Y-74877000D01*
G75*
G02*
X129049000Y-75139500I0J-262500D01*
G01*
X129049000Y-75789500D01*
G75*
G02*
X128786500Y-76052000I-262500J0D01*
G01*
X128261500Y-76052000D01*
G75*
G02*
X127999000Y-75789500I0J262500D01*
G01*
X127999000Y-75139500D01*
G75*
G02*
X128261500Y-74877000I262500J0D01*
G01*
G37*
%TD*%
%TO.C,C202*%
G36*
G01*
X120658500Y-75036000D02*
X120133500Y-75036000D01*
G75*
G02*
X119871000Y-74773500I0J262500D01*
G01*
X119871000Y-74123500D01*
G75*
G02*
X120133500Y-73861000I262500J0D01*
G01*
X120658500Y-73861000D01*
G75*
G02*
X120921000Y-74123500I0J-262500D01*
G01*
X120921000Y-74773500D01*
G75*
G02*
X120658500Y-75036000I-262500J0D01*
G01*
G37*
G36*
G01*
X120658500Y-76761000D02*
X120133500Y-76761000D01*
G75*
G02*
X119871000Y-76498500I0J262500D01*
G01*
X119871000Y-75848500D01*
G75*
G02*
X120133500Y-75586000I262500J0D01*
G01*
X120658500Y-75586000D01*
G75*
G02*
X120921000Y-75848500I0J-262500D01*
G01*
X120921000Y-76498500D01*
G75*
G02*
X120658500Y-76761000I-262500J0D01*
G01*
G37*
%TD*%
%TO.C,C201*%
G36*
G01*
X130818500Y-74147000D02*
X130293500Y-74147000D01*
G75*
G02*
X130031000Y-73884500I0J262500D01*
G01*
X130031000Y-73234500D01*
G75*
G02*
X130293500Y-72972000I262500J0D01*
G01*
X130818500Y-72972000D01*
G75*
G02*
X131081000Y-73234500I0J-262500D01*
G01*
X131081000Y-73884500D01*
G75*
G02*
X130818500Y-74147000I-262500J0D01*
G01*
G37*
G36*
G01*
X130818500Y-75872000D02*
X130293500Y-75872000D01*
G75*
G02*
X130031000Y-75609500I0J262500D01*
G01*
X130031000Y-74959500D01*
G75*
G02*
X130293500Y-74697000I262500J0D01*
G01*
X130818500Y-74697000D01*
G75*
G02*
X131081000Y-74959500I0J-262500D01*
G01*
X131081000Y-75609500D01*
G75*
G02*
X130818500Y-75872000I-262500J0D01*
G01*
G37*
%TD*%
%TO.C,C108*%
G36*
G01*
X111866000Y-96511500D02*
X111866000Y-97036500D01*
G75*
G02*
X111603500Y-97299000I-262500J0D01*
G01*
X110953500Y-97299000D01*
G75*
G02*
X110691000Y-97036500I0J262500D01*
G01*
X110691000Y-96511500D01*
G75*
G02*
X110953500Y-96249000I262500J0D01*
G01*
X111603500Y-96249000D01*
G75*
G02*
X111866000Y-96511500I0J-262500D01*
G01*
G37*
G36*
G01*
X113591000Y-96511500D02*
X113591000Y-97036500D01*
G75*
G02*
X113328500Y-97299000I-262500J0D01*
G01*
X112678500Y-97299000D01*
G75*
G02*
X112416000Y-97036500I0J262500D01*
G01*
X112416000Y-96511500D01*
G75*
G02*
X112678500Y-96249000I262500J0D01*
G01*
X113328500Y-96249000D01*
G75*
G02*
X113591000Y-96511500I0J-262500D01*
G01*
G37*
%TD*%
%TO.C,C107*%
G36*
G01*
X114926500Y-94001000D02*
X115451500Y-94001000D01*
G75*
G02*
X115714000Y-94263500I0J-262500D01*
G01*
X115714000Y-94913500D01*
G75*
G02*
X115451500Y-95176000I-262500J0D01*
G01*
X114926500Y-95176000D01*
G75*
G02*
X114664000Y-94913500I0J262500D01*
G01*
X114664000Y-94263500D01*
G75*
G02*
X114926500Y-94001000I262500J0D01*
G01*
G37*
G36*
G01*
X114926500Y-92276000D02*
X115451500Y-92276000D01*
G75*
G02*
X115714000Y-92538500I0J-262500D01*
G01*
X115714000Y-93188500D01*
G75*
G02*
X115451500Y-93451000I-262500J0D01*
G01*
X114926500Y-93451000D01*
G75*
G02*
X114664000Y-93188500I0J262500D01*
G01*
X114664000Y-92538500D01*
G75*
G02*
X114926500Y-92276000I262500J0D01*
G01*
G37*
%TD*%
%TO.C,C105*%
G36*
G01*
X165540224Y-113836500D02*
X164532776Y-113836500D01*
G75*
G02*
X164261500Y-113565224I0J271276D01*
G01*
X164261500Y-112832776D01*
G75*
G02*
X164532776Y-112561500I271276J0D01*
G01*
X165540224Y-112561500D01*
G75*
G02*
X165811500Y-112832776I0J-271276D01*
G01*
X165811500Y-113565224D01*
G75*
G02*
X165540224Y-113836500I-271276J0D01*
G01*
G37*
G36*
G01*
X165540224Y-115911500D02*
X164532776Y-115911500D01*
G75*
G02*
X164261500Y-115640224I0J271276D01*
G01*
X164261500Y-114907776D01*
G75*
G02*
X164532776Y-114636500I271276J0D01*
G01*
X165540224Y-114636500D01*
G75*
G02*
X165811500Y-114907776I0J-271276D01*
G01*
X165811500Y-115640224D01*
G75*
G02*
X165540224Y-115911500I-271276J0D01*
G01*
G37*
%TD*%
%TO.C,C104*%
G36*
G01*
X156840724Y-113836500D02*
X155833276Y-113836500D01*
G75*
G02*
X155562000Y-113565224I0J271276D01*
G01*
X155562000Y-112832776D01*
G75*
G02*
X155833276Y-112561500I271276J0D01*
G01*
X156840724Y-112561500D01*
G75*
G02*
X157112000Y-112832776I0J-271276D01*
G01*
X157112000Y-113565224D01*
G75*
G02*
X156840724Y-113836500I-271276J0D01*
G01*
G37*
G36*
G01*
X156840724Y-115911500D02*
X155833276Y-115911500D01*
G75*
G02*
X155562000Y-115640224I0J271276D01*
G01*
X155562000Y-114907776D01*
G75*
G02*
X155833276Y-114636500I271276J0D01*
G01*
X156840724Y-114636500D01*
G75*
G02*
X157112000Y-114907776I0J-271276D01*
G01*
X157112000Y-115640224D01*
G75*
G02*
X156840724Y-115911500I-271276J0D01*
G01*
G37*
%TD*%
%TO.C,C102*%
G36*
G01*
X142386000Y-114930724D02*
X142386000Y-113923276D01*
G75*
G02*
X142657276Y-113652000I271276J0D01*
G01*
X143389724Y-113652000D01*
G75*
G02*
X143661000Y-113923276I0J-271276D01*
G01*
X143661000Y-114930724D01*
G75*
G02*
X143389724Y-115202000I-271276J0D01*
G01*
X142657276Y-115202000D01*
G75*
G02*
X142386000Y-114930724I0J271276D01*
G01*
G37*
G36*
G01*
X140311000Y-114930724D02*
X140311000Y-113923276D01*
G75*
G02*
X140582276Y-113652000I271276J0D01*
G01*
X141314724Y-113652000D01*
G75*
G02*
X141586000Y-113923276I0J-271276D01*
G01*
X141586000Y-114930724D01*
G75*
G02*
X141314724Y-115202000I-271276J0D01*
G01*
X140582276Y-115202000D01*
G75*
G02*
X140311000Y-114930724I0J271276D01*
G01*
G37*
%TD*%
%TO.C,C101*%
G36*
G01*
X144911276Y-102592000D02*
X145918724Y-102592000D01*
G75*
G02*
X146190000Y-102863276I0J-271276D01*
G01*
X146190000Y-103595724D01*
G75*
G02*
X145918724Y-103867000I-271276J0D01*
G01*
X144911276Y-103867000D01*
G75*
G02*
X144640000Y-103595724I0J271276D01*
G01*
X144640000Y-102863276D01*
G75*
G02*
X144911276Y-102592000I271276J0D01*
G01*
G37*
G36*
G01*
X144911276Y-104667000D02*
X145918724Y-104667000D01*
G75*
G02*
X146190000Y-104938276I0J-271276D01*
G01*
X146190000Y-105670724D01*
G75*
G02*
X145918724Y-105942000I-271276J0D01*
G01*
X144911276Y-105942000D01*
G75*
G02*
X144640000Y-105670724I0J271276D01*
G01*
X144640000Y-104938276D01*
G75*
G02*
X144911276Y-104667000I271276J0D01*
G01*
G37*
%TD*%
%TO.C,R407*%
G36*
G01*
X157869500Y-99748000D02*
X157344500Y-99748000D01*
G75*
G02*
X157082000Y-99485500I0J262500D01*
G01*
X157082000Y-98860500D01*
G75*
G02*
X157344500Y-98598000I262500J0D01*
G01*
X157869500Y-98598000D01*
G75*
G02*
X158132000Y-98860500I0J-262500D01*
G01*
X158132000Y-99485500D01*
G75*
G02*
X157869500Y-99748000I-262500J0D01*
G01*
G37*
G36*
G01*
X157869500Y-97998000D02*
X157344500Y-97998000D01*
G75*
G02*
X157082000Y-97735500I0J262500D01*
G01*
X157082000Y-97110500D01*
G75*
G02*
X157344500Y-96848000I262500J0D01*
G01*
X157869500Y-96848000D01*
G75*
G02*
X158132000Y-97110500I0J-262500D01*
G01*
X158132000Y-97735500D01*
G75*
G02*
X157869500Y-97998000I-262500J0D01*
G01*
G37*
%TD*%
D18*
%TO.C,D401*%
X152801000Y-97917000D03*
X155301000Y-97917000D03*
%TD*%
D19*
%TO.C,Q701*%
X120635000Y-102048000D03*
X121285000Y-102048000D03*
X121935000Y-102048000D03*
X121935000Y-104708000D03*
X121285000Y-104708000D03*
X120635000Y-104708000D03*
%TD*%
D17*
%TO.C,Q502*%
X161032500Y-72629000D03*
X161032500Y-73279000D03*
X161032500Y-73929000D03*
X158372500Y-73929000D03*
X158372500Y-73279000D03*
X158372500Y-72629000D03*
%TD*%
%TO.C,Q501*%
X144085000Y-73929000D03*
X144085000Y-73279000D03*
X144085000Y-72629000D03*
X146745000Y-72629000D03*
X146745000Y-73279000D03*
X146745000Y-73929000D03*
%TD*%
%TO.C,Q402*%
X162493000Y-95743000D03*
X162493000Y-96393000D03*
X162493000Y-97043000D03*
X159833000Y-97043000D03*
X159833000Y-96393000D03*
X159833000Y-95743000D03*
%TD*%
D19*
%TO.C,Q401*%
X154193000Y-90999000D03*
X153543000Y-90999000D03*
X152893000Y-90999000D03*
X152893000Y-93659000D03*
X153543000Y-93659000D03*
X154193000Y-93659000D03*
%TD*%
D17*
%TO.C,Q201*%
X114367000Y-86248000D03*
X114367000Y-85598000D03*
X114367000Y-84948000D03*
X117027000Y-84948000D03*
X117027000Y-85598000D03*
X117027000Y-86248000D03*
%TD*%
D13*
%TO.C,K301*%
X180022500Y-100693500D03*
X174942500Y-100693500D03*
X172402500Y-100693500D03*
X169862500Y-100693500D03*
X169862500Y-95613500D03*
X172402500Y-95613500D03*
X174942500Y-95613500D03*
G36*
G01*
X179489700Y-94813500D02*
X180555300Y-94813500D01*
G75*
G02*
X180822500Y-95080700I0J-267200D01*
G01*
X180822500Y-96146300D01*
G75*
G02*
X180555300Y-96413500I-267200J0D01*
G01*
X179489700Y-96413500D01*
G75*
G02*
X179222500Y-96146300I0J267200D01*
G01*
X179222500Y-95080700D01*
G75*
G02*
X179489700Y-94813500I267200J0D01*
G01*
G37*
%TD*%
%TO.C,K302*%
G36*
G01*
X166586000Y-79907800D02*
X166586000Y-78842200D01*
G75*
G02*
X166853200Y-78575000I267200J0D01*
G01*
X167918800Y-78575000D01*
G75*
G02*
X168186000Y-78842200I0J-267200D01*
G01*
X168186000Y-79907800D01*
G75*
G02*
X167918800Y-80175000I-267200J0D01*
G01*
X166853200Y-80175000D01*
G75*
G02*
X166586000Y-79907800I0J267200D01*
G01*
G37*
X167386000Y-84455000D03*
X167386000Y-86995000D03*
X167386000Y-89535000D03*
X172466000Y-89535000D03*
X172466000Y-86995000D03*
X172466000Y-84455000D03*
X172466000Y-79375000D03*
%TD*%
D20*
%TO.C,L102*%
X142824000Y-104648000D03*
X139624000Y-104648000D03*
%TD*%
%TO.C,L101*%
X162255000Y-114236500D03*
X159055000Y-114236500D03*
%TD*%
%TO.C,R803*%
G36*
G01*
X151331000Y-105799500D02*
X151331000Y-105274500D01*
G75*
G02*
X151593500Y-105012000I262500J0D01*
G01*
X152218500Y-105012000D01*
G75*
G02*
X152481000Y-105274500I0J-262500D01*
G01*
X152481000Y-105799500D01*
G75*
G02*
X152218500Y-106062000I-262500J0D01*
G01*
X151593500Y-106062000D01*
G75*
G02*
X151331000Y-105799500I0J262500D01*
G01*
G37*
G36*
G01*
X153081000Y-105799500D02*
X153081000Y-105274500D01*
G75*
G02*
X153343500Y-105012000I262500J0D01*
G01*
X153968500Y-105012000D01*
G75*
G02*
X154231000Y-105274500I0J-262500D01*
G01*
X154231000Y-105799500D01*
G75*
G02*
X153968500Y-106062000I-262500J0D01*
G01*
X153343500Y-106062000D01*
G75*
G02*
X153081000Y-105799500I0J262500D01*
G01*
G37*
%TD*%
%TO.C,R802*%
G36*
G01*
X150040000Y-111497500D02*
X150040000Y-112022500D01*
G75*
G02*
X149777500Y-112285000I-262500J0D01*
G01*
X149152500Y-112285000D01*
G75*
G02*
X148890000Y-112022500I0J262500D01*
G01*
X148890000Y-111497500D01*
G75*
G02*
X149152500Y-111235000I262500J0D01*
G01*
X149777500Y-111235000D01*
G75*
G02*
X150040000Y-111497500I0J-262500D01*
G01*
G37*
G36*
G01*
X148290000Y-111497500D02*
X148290000Y-112022500D01*
G75*
G02*
X148027500Y-112285000I-262500J0D01*
G01*
X147402500Y-112285000D01*
G75*
G02*
X147140000Y-112022500I0J262500D01*
G01*
X147140000Y-111497500D01*
G75*
G02*
X147402500Y-111235000I262500J0D01*
G01*
X148027500Y-111235000D01*
G75*
G02*
X148290000Y-111497500I0J-262500D01*
G01*
G37*
%TD*%
D21*
%TO.C,F601*%
X111125000Y-71257000D03*
X111125000Y-64887000D03*
%TD*%
%TO.C,Q801*%
G36*
G01*
X155631000Y-106982000D02*
X155631000Y-106632000D01*
G75*
G02*
X155806000Y-106457000I175000J0D01*
G01*
X157306000Y-106457000D01*
G75*
G02*
X157481000Y-106632000I0J-175000D01*
G01*
X157481000Y-106982000D01*
G75*
G02*
X157306000Y-107157000I-175000J0D01*
G01*
X155806000Y-107157000D01*
G75*
G02*
X155631000Y-106982000I0J175000D01*
G01*
G37*
G36*
G01*
X155631000Y-108252000D02*
X155631000Y-107902000D01*
G75*
G02*
X155806000Y-107727000I175000J0D01*
G01*
X157306000Y-107727000D01*
G75*
G02*
X157481000Y-107902000I0J-175000D01*
G01*
X157481000Y-108252000D01*
G75*
G02*
X157306000Y-108427000I-175000J0D01*
G01*
X155806000Y-108427000D01*
G75*
G02*
X155631000Y-108252000I0J175000D01*
G01*
G37*
G36*
G01*
X155631000Y-109522000D02*
X155631000Y-109172000D01*
G75*
G02*
X155806000Y-108997000I175000J0D01*
G01*
X157306000Y-108997000D01*
G75*
G02*
X157481000Y-109172000I0J-175000D01*
G01*
X157481000Y-109522000D01*
G75*
G02*
X157306000Y-109697000I-175000J0D01*
G01*
X155806000Y-109697000D01*
G75*
G02*
X155631000Y-109522000I0J175000D01*
G01*
G37*
G36*
G01*
X155631000Y-110792000D02*
X155631000Y-110442000D01*
G75*
G02*
X155806000Y-110267000I175000J0D01*
G01*
X157306000Y-110267000D01*
G75*
G02*
X157481000Y-110442000I0J-175000D01*
G01*
X157481000Y-110792000D01*
G75*
G02*
X157306000Y-110967000I-175000J0D01*
G01*
X155806000Y-110967000D01*
G75*
G02*
X155631000Y-110792000I0J175000D01*
G01*
G37*
G36*
G01*
X160781000Y-110792000D02*
X160781000Y-110442000D01*
G75*
G02*
X160956000Y-110267000I175000J0D01*
G01*
X162456000Y-110267000D01*
G75*
G02*
X162631000Y-110442000I0J-175000D01*
G01*
X162631000Y-110792000D01*
G75*
G02*
X162456000Y-110967000I-175000J0D01*
G01*
X160956000Y-110967000D01*
G75*
G02*
X160781000Y-110792000I0J175000D01*
G01*
G37*
G36*
G01*
X160781000Y-109522000D02*
X160781000Y-109172000D01*
G75*
G02*
X160956000Y-108997000I175000J0D01*
G01*
X162456000Y-108997000D01*
G75*
G02*
X162631000Y-109172000I0J-175000D01*
G01*
X162631000Y-109522000D01*
G75*
G02*
X162456000Y-109697000I-175000J0D01*
G01*
X160956000Y-109697000D01*
G75*
G02*
X160781000Y-109522000I0J175000D01*
G01*
G37*
G36*
G01*
X160781000Y-108252000D02*
X160781000Y-107902000D01*
G75*
G02*
X160956000Y-107727000I175000J0D01*
G01*
X162456000Y-107727000D01*
G75*
G02*
X162631000Y-107902000I0J-175000D01*
G01*
X162631000Y-108252000D01*
G75*
G02*
X162456000Y-108427000I-175000J0D01*
G01*
X160956000Y-108427000D01*
G75*
G02*
X160781000Y-108252000I0J175000D01*
G01*
G37*
G36*
G01*
X160781000Y-106982000D02*
X160781000Y-106632000D01*
G75*
G02*
X160956000Y-106457000I175000J0D01*
G01*
X162456000Y-106457000D01*
G75*
G02*
X162631000Y-106632000I0J-175000D01*
G01*
X162631000Y-106982000D01*
G75*
G02*
X162456000Y-107157000I-175000J0D01*
G01*
X160956000Y-107157000D01*
G75*
G02*
X160781000Y-106982000I0J175000D01*
G01*
G37*
%TD*%
D22*
%TO.C,SW101*%
X154660200Y-126060200D03*
X159410200Y-126060200D03*
X164160200Y-126060200D03*
%TD*%
D14*
%TO.C,J302*%
X114390800Y-60399400D03*
D15*
X116930800Y-60399400D03*
%TD*%
D14*
%TO.C,J301*%
X174930800Y-60399400D03*
D15*
X172390800Y-60399400D03*
%TD*%
D23*
%TO.C,U801*%
X149590000Y-109535000D03*
X149590000Y-107635000D03*
X147590000Y-108585000D03*
%TD*%
%TO.C,U702*%
G36*
G01*
X116131200Y-105533200D02*
X117431200Y-105533200D01*
G75*
G02*
X117581200Y-105683200I0J-150000D01*
G01*
X117581200Y-105983200D01*
G75*
G02*
X117431200Y-106133200I-150000J0D01*
G01*
X116131200Y-106133200D01*
G75*
G02*
X115981200Y-105983200I0J150000D01*
G01*
X115981200Y-105683200D01*
G75*
G02*
X116131200Y-105533200I150000J0D01*
G01*
G37*
G36*
G01*
X116131200Y-106333200D02*
X117431200Y-106333200D01*
G75*
G02*
X117581200Y-106483200I0J-150000D01*
G01*
X117581200Y-106783200D01*
G75*
G02*
X117431200Y-106933200I-150000J0D01*
G01*
X116131200Y-106933200D01*
G75*
G02*
X115981200Y-106783200I0J150000D01*
G01*
X115981200Y-106483200D01*
G75*
G02*
X116131200Y-106333200I150000J0D01*
G01*
G37*
G36*
G01*
X116131200Y-107133200D02*
X117431200Y-107133200D01*
G75*
G02*
X117581200Y-107283200I0J-150000D01*
G01*
X117581200Y-107583200D01*
G75*
G02*
X117431200Y-107733200I-150000J0D01*
G01*
X116131200Y-107733200D01*
G75*
G02*
X115981200Y-107583200I0J150000D01*
G01*
X115981200Y-107283200D01*
G75*
G02*
X116131200Y-107133200I150000J0D01*
G01*
G37*
G36*
G01*
X116131200Y-107933200D02*
X117431200Y-107933200D01*
G75*
G02*
X117581200Y-108083200I0J-150000D01*
G01*
X117581200Y-108383200D01*
G75*
G02*
X117431200Y-108533200I-150000J0D01*
G01*
X116131200Y-108533200D01*
G75*
G02*
X115981200Y-108383200I0J150000D01*
G01*
X115981200Y-108083200D01*
G75*
G02*
X116131200Y-107933200I150000J0D01*
G01*
G37*
G36*
G01*
X116131200Y-108733200D02*
X117431200Y-108733200D01*
G75*
G02*
X117581200Y-108883200I0J-150000D01*
G01*
X117581200Y-109183200D01*
G75*
G02*
X117431200Y-109333200I-150000J0D01*
G01*
X116131200Y-109333200D01*
G75*
G02*
X115981200Y-109183200I0J150000D01*
G01*
X115981200Y-108883200D01*
G75*
G02*
X116131200Y-108733200I150000J0D01*
G01*
G37*
G36*
G01*
X116131200Y-109533200D02*
X117431200Y-109533200D01*
G75*
G02*
X117581200Y-109683200I0J-150000D01*
G01*
X117581200Y-109983200D01*
G75*
G02*
X117431200Y-110133200I-150000J0D01*
G01*
X116131200Y-110133200D01*
G75*
G02*
X115981200Y-109983200I0J150000D01*
G01*
X115981200Y-109683200D01*
G75*
G02*
X116131200Y-109533200I150000J0D01*
G01*
G37*
G36*
G01*
X116131200Y-110333200D02*
X117431200Y-110333200D01*
G75*
G02*
X117581200Y-110483200I0J-150000D01*
G01*
X117581200Y-110783200D01*
G75*
G02*
X117431200Y-110933200I-150000J0D01*
G01*
X116131200Y-110933200D01*
G75*
G02*
X115981200Y-110783200I0J150000D01*
G01*
X115981200Y-110483200D01*
G75*
G02*
X116131200Y-110333200I150000J0D01*
G01*
G37*
G36*
G01*
X116131200Y-111133200D02*
X117431200Y-111133200D01*
G75*
G02*
X117581200Y-111283200I0J-150000D01*
G01*
X117581200Y-111583200D01*
G75*
G02*
X117431200Y-111733200I-150000J0D01*
G01*
X116131200Y-111733200D01*
G75*
G02*
X115981200Y-111583200I0J150000D01*
G01*
X115981200Y-111283200D01*
G75*
G02*
X116131200Y-111133200I150000J0D01*
G01*
G37*
G36*
G01*
X115256200Y-112008200D02*
X115556200Y-112008200D01*
G75*
G02*
X115706200Y-112158200I0J-150000D01*
G01*
X115706200Y-113458200D01*
G75*
G02*
X115556200Y-113608200I-150000J0D01*
G01*
X115256200Y-113608200D01*
G75*
G02*
X115106200Y-113458200I0J150000D01*
G01*
X115106200Y-112158200D01*
G75*
G02*
X115256200Y-112008200I150000J0D01*
G01*
G37*
G36*
G01*
X114456200Y-112008200D02*
X114756200Y-112008200D01*
G75*
G02*
X114906200Y-112158200I0J-150000D01*
G01*
X114906200Y-113458200D01*
G75*
G02*
X114756200Y-113608200I-150000J0D01*
G01*
X114456200Y-113608200D01*
G75*
G02*
X114306200Y-113458200I0J150000D01*
G01*
X114306200Y-112158200D01*
G75*
G02*
X114456200Y-112008200I150000J0D01*
G01*
G37*
G36*
G01*
X113656200Y-112008200D02*
X113956200Y-112008200D01*
G75*
G02*
X114106200Y-112158200I0J-150000D01*
G01*
X114106200Y-113458200D01*
G75*
G02*
X113956200Y-113608200I-150000J0D01*
G01*
X113656200Y-113608200D01*
G75*
G02*
X113506200Y-113458200I0J150000D01*
G01*
X113506200Y-112158200D01*
G75*
G02*
X113656200Y-112008200I150000J0D01*
G01*
G37*
G36*
G01*
X112856200Y-112008200D02*
X113156200Y-112008200D01*
G75*
G02*
X113306200Y-112158200I0J-150000D01*
G01*
X113306200Y-113458200D01*
G75*
G02*
X113156200Y-113608200I-150000J0D01*
G01*
X112856200Y-113608200D01*
G75*
G02*
X112706200Y-113458200I0J150000D01*
G01*
X112706200Y-112158200D01*
G75*
G02*
X112856200Y-112008200I150000J0D01*
G01*
G37*
G36*
G01*
X112056200Y-112008200D02*
X112356200Y-112008200D01*
G75*
G02*
X112506200Y-112158200I0J-150000D01*
G01*
X112506200Y-113458200D01*
G75*
G02*
X112356200Y-113608200I-150000J0D01*
G01*
X112056200Y-113608200D01*
G75*
G02*
X111906200Y-113458200I0J150000D01*
G01*
X111906200Y-112158200D01*
G75*
G02*
X112056200Y-112008200I150000J0D01*
G01*
G37*
G36*
G01*
X111256200Y-112008200D02*
X111556200Y-112008200D01*
G75*
G02*
X111706200Y-112158200I0J-150000D01*
G01*
X111706200Y-113458200D01*
G75*
G02*
X111556200Y-113608200I-150000J0D01*
G01*
X111256200Y-113608200D01*
G75*
G02*
X111106200Y-113458200I0J150000D01*
G01*
X111106200Y-112158200D01*
G75*
G02*
X111256200Y-112008200I150000J0D01*
G01*
G37*
G36*
G01*
X110456200Y-112008200D02*
X110756200Y-112008200D01*
G75*
G02*
X110906200Y-112158200I0J-150000D01*
G01*
X110906200Y-113458200D01*
G75*
G02*
X110756200Y-113608200I-150000J0D01*
G01*
X110456200Y-113608200D01*
G75*
G02*
X110306200Y-113458200I0J150000D01*
G01*
X110306200Y-112158200D01*
G75*
G02*
X110456200Y-112008200I150000J0D01*
G01*
G37*
G36*
G01*
X109656200Y-112008200D02*
X109956200Y-112008200D01*
G75*
G02*
X110106200Y-112158200I0J-150000D01*
G01*
X110106200Y-113458200D01*
G75*
G02*
X109956200Y-113608200I-150000J0D01*
G01*
X109656200Y-113608200D01*
G75*
G02*
X109506200Y-113458200I0J150000D01*
G01*
X109506200Y-112158200D01*
G75*
G02*
X109656200Y-112008200I150000J0D01*
G01*
G37*
G36*
G01*
X107781200Y-111133200D02*
X109081200Y-111133200D01*
G75*
G02*
X109231200Y-111283200I0J-150000D01*
G01*
X109231200Y-111583200D01*
G75*
G02*
X109081200Y-111733200I-150000J0D01*
G01*
X107781200Y-111733200D01*
G75*
G02*
X107631200Y-111583200I0J150000D01*
G01*
X107631200Y-111283200D01*
G75*
G02*
X107781200Y-111133200I150000J0D01*
G01*
G37*
G36*
G01*
X107781200Y-110333200D02*
X109081200Y-110333200D01*
G75*
G02*
X109231200Y-110483200I0J-150000D01*
G01*
X109231200Y-110783200D01*
G75*
G02*
X109081200Y-110933200I-150000J0D01*
G01*
X107781200Y-110933200D01*
G75*
G02*
X107631200Y-110783200I0J150000D01*
G01*
X107631200Y-110483200D01*
G75*
G02*
X107781200Y-110333200I150000J0D01*
G01*
G37*
G36*
G01*
X107781200Y-109533200D02*
X109081200Y-109533200D01*
G75*
G02*
X109231200Y-109683200I0J-150000D01*
G01*
X109231200Y-109983200D01*
G75*
G02*
X109081200Y-110133200I-150000J0D01*
G01*
X107781200Y-110133200D01*
G75*
G02*
X107631200Y-109983200I0J150000D01*
G01*
X107631200Y-109683200D01*
G75*
G02*
X107781200Y-109533200I150000J0D01*
G01*
G37*
G36*
G01*
X107781200Y-108733200D02*
X109081200Y-108733200D01*
G75*
G02*
X109231200Y-108883200I0J-150000D01*
G01*
X109231200Y-109183200D01*
G75*
G02*
X109081200Y-109333200I-150000J0D01*
G01*
X107781200Y-109333200D01*
G75*
G02*
X107631200Y-109183200I0J150000D01*
G01*
X107631200Y-108883200D01*
G75*
G02*
X107781200Y-108733200I150000J0D01*
G01*
G37*
G36*
G01*
X107781200Y-107933200D02*
X109081200Y-107933200D01*
G75*
G02*
X109231200Y-108083200I0J-150000D01*
G01*
X109231200Y-108383200D01*
G75*
G02*
X109081200Y-108533200I-150000J0D01*
G01*
X107781200Y-108533200D01*
G75*
G02*
X107631200Y-108383200I0J150000D01*
G01*
X107631200Y-108083200D01*
G75*
G02*
X107781200Y-107933200I150000J0D01*
G01*
G37*
G36*
G01*
X107781200Y-107133200D02*
X109081200Y-107133200D01*
G75*
G02*
X109231200Y-107283200I0J-150000D01*
G01*
X109231200Y-107583200D01*
G75*
G02*
X109081200Y-107733200I-150000J0D01*
G01*
X107781200Y-107733200D01*
G75*
G02*
X107631200Y-107583200I0J150000D01*
G01*
X107631200Y-107283200D01*
G75*
G02*
X107781200Y-107133200I150000J0D01*
G01*
G37*
G36*
G01*
X107781200Y-106333200D02*
X109081200Y-106333200D01*
G75*
G02*
X109231200Y-106483200I0J-150000D01*
G01*
X109231200Y-106783200D01*
G75*
G02*
X109081200Y-106933200I-150000J0D01*
G01*
X107781200Y-106933200D01*
G75*
G02*
X107631200Y-106783200I0J150000D01*
G01*
X107631200Y-106483200D01*
G75*
G02*
X107781200Y-106333200I150000J0D01*
G01*
G37*
G36*
G01*
X107781200Y-105533200D02*
X109081200Y-105533200D01*
G75*
G02*
X109231200Y-105683200I0J-150000D01*
G01*
X109231200Y-105983200D01*
G75*
G02*
X109081200Y-106133200I-150000J0D01*
G01*
X107781200Y-106133200D01*
G75*
G02*
X107631200Y-105983200I0J150000D01*
G01*
X107631200Y-105683200D01*
G75*
G02*
X107781200Y-105533200I150000J0D01*
G01*
G37*
G36*
G01*
X109656200Y-103658200D02*
X109956200Y-103658200D01*
G75*
G02*
X110106200Y-103808200I0J-150000D01*
G01*
X110106200Y-105108200D01*
G75*
G02*
X109956200Y-105258200I-150000J0D01*
G01*
X109656200Y-105258200D01*
G75*
G02*
X109506200Y-105108200I0J150000D01*
G01*
X109506200Y-103808200D01*
G75*
G02*
X109656200Y-103658200I150000J0D01*
G01*
G37*
G36*
G01*
X110456200Y-103658200D02*
X110756200Y-103658200D01*
G75*
G02*
X110906200Y-103808200I0J-150000D01*
G01*
X110906200Y-105108200D01*
G75*
G02*
X110756200Y-105258200I-150000J0D01*
G01*
X110456200Y-105258200D01*
G75*
G02*
X110306200Y-105108200I0J150000D01*
G01*
X110306200Y-103808200D01*
G75*
G02*
X110456200Y-103658200I150000J0D01*
G01*
G37*
G36*
G01*
X111256200Y-103658200D02*
X111556200Y-103658200D01*
G75*
G02*
X111706200Y-103808200I0J-150000D01*
G01*
X111706200Y-105108200D01*
G75*
G02*
X111556200Y-105258200I-150000J0D01*
G01*
X111256200Y-105258200D01*
G75*
G02*
X111106200Y-105108200I0J150000D01*
G01*
X111106200Y-103808200D01*
G75*
G02*
X111256200Y-103658200I150000J0D01*
G01*
G37*
G36*
G01*
X112056200Y-103658200D02*
X112356200Y-103658200D01*
G75*
G02*
X112506200Y-103808200I0J-150000D01*
G01*
X112506200Y-105108200D01*
G75*
G02*
X112356200Y-105258200I-150000J0D01*
G01*
X112056200Y-105258200D01*
G75*
G02*
X111906200Y-105108200I0J150000D01*
G01*
X111906200Y-103808200D01*
G75*
G02*
X112056200Y-103658200I150000J0D01*
G01*
G37*
G36*
G01*
X112856200Y-103658200D02*
X113156200Y-103658200D01*
G75*
G02*
X113306200Y-103808200I0J-150000D01*
G01*
X113306200Y-105108200D01*
G75*
G02*
X113156200Y-105258200I-150000J0D01*
G01*
X112856200Y-105258200D01*
G75*
G02*
X112706200Y-105108200I0J150000D01*
G01*
X112706200Y-103808200D01*
G75*
G02*
X112856200Y-103658200I150000J0D01*
G01*
G37*
G36*
G01*
X113656200Y-103658200D02*
X113956200Y-103658200D01*
G75*
G02*
X114106200Y-103808200I0J-150000D01*
G01*
X114106200Y-105108200D01*
G75*
G02*
X113956200Y-105258200I-150000J0D01*
G01*
X113656200Y-105258200D01*
G75*
G02*
X113506200Y-105108200I0J150000D01*
G01*
X113506200Y-103808200D01*
G75*
G02*
X113656200Y-103658200I150000J0D01*
G01*
G37*
G36*
G01*
X114456200Y-103658200D02*
X114756200Y-103658200D01*
G75*
G02*
X114906200Y-103808200I0J-150000D01*
G01*
X114906200Y-105108200D01*
G75*
G02*
X114756200Y-105258200I-150000J0D01*
G01*
X114456200Y-105258200D01*
G75*
G02*
X114306200Y-105108200I0J150000D01*
G01*
X114306200Y-103808200D01*
G75*
G02*
X114456200Y-103658200I150000J0D01*
G01*
G37*
G36*
G01*
X115256200Y-103658200D02*
X115556200Y-103658200D01*
G75*
G02*
X115706200Y-103808200I0J-150000D01*
G01*
X115706200Y-105108200D01*
G75*
G02*
X115556200Y-105258200I-150000J0D01*
G01*
X115256200Y-105258200D01*
G75*
G02*
X115106200Y-105108200I0J150000D01*
G01*
X115106200Y-103808200D01*
G75*
G02*
X115256200Y-103658200I150000J0D01*
G01*
G37*
%TD*%
%TO.C,U701*%
G36*
G01*
X175775200Y-119200800D02*
X175775200Y-118850800D01*
G75*
G02*
X175950200Y-118675800I175000J0D01*
G01*
X177650200Y-118675800D01*
G75*
G02*
X177825200Y-118850800I0J-175000D01*
G01*
X177825200Y-119200800D01*
G75*
G02*
X177650200Y-119375800I-175000J0D01*
G01*
X175950200Y-119375800D01*
G75*
G02*
X175775200Y-119200800I0J175000D01*
G01*
G37*
G36*
G01*
X175775200Y-120470800D02*
X175775200Y-120120800D01*
G75*
G02*
X175950200Y-119945800I175000J0D01*
G01*
X177650200Y-119945800D01*
G75*
G02*
X177825200Y-120120800I0J-175000D01*
G01*
X177825200Y-120470800D01*
G75*
G02*
X177650200Y-120645800I-175000J0D01*
G01*
X175950200Y-120645800D01*
G75*
G02*
X175775200Y-120470800I0J175000D01*
G01*
G37*
G36*
G01*
X175775200Y-121740800D02*
X175775200Y-121390800D01*
G75*
G02*
X175950200Y-121215800I175000J0D01*
G01*
X177650200Y-121215800D01*
G75*
G02*
X177825200Y-121390800I0J-175000D01*
G01*
X177825200Y-121740800D01*
G75*
G02*
X177650200Y-121915800I-175000J0D01*
G01*
X175950200Y-121915800D01*
G75*
G02*
X175775200Y-121740800I0J175000D01*
G01*
G37*
G36*
G01*
X175775200Y-123010800D02*
X175775200Y-122660800D01*
G75*
G02*
X175950200Y-122485800I175000J0D01*
G01*
X177650200Y-122485800D01*
G75*
G02*
X177825200Y-122660800I0J-175000D01*
G01*
X177825200Y-123010800D01*
G75*
G02*
X177650200Y-123185800I-175000J0D01*
G01*
X175950200Y-123185800D01*
G75*
G02*
X175775200Y-123010800I0J175000D01*
G01*
G37*
G36*
G01*
X170825200Y-123010800D02*
X170825200Y-122660800D01*
G75*
G02*
X171000200Y-122485800I175000J0D01*
G01*
X172700200Y-122485800D01*
G75*
G02*
X172875200Y-122660800I0J-175000D01*
G01*
X172875200Y-123010800D01*
G75*
G02*
X172700200Y-123185800I-175000J0D01*
G01*
X171000200Y-123185800D01*
G75*
G02*
X170825200Y-123010800I0J175000D01*
G01*
G37*
G36*
G01*
X170825200Y-121740800D02*
X170825200Y-121390800D01*
G75*
G02*
X171000200Y-121215800I175000J0D01*
G01*
X172700200Y-121215800D01*
G75*
G02*
X172875200Y-121390800I0J-175000D01*
G01*
X172875200Y-121740800D01*
G75*
G02*
X172700200Y-121915800I-175000J0D01*
G01*
X171000200Y-121915800D01*
G75*
G02*
X170825200Y-121740800I0J175000D01*
G01*
G37*
G36*
G01*
X170825200Y-120470800D02*
X170825200Y-120120800D01*
G75*
G02*
X171000200Y-119945800I175000J0D01*
G01*
X172700200Y-119945800D01*
G75*
G02*
X172875200Y-120120800I0J-175000D01*
G01*
X172875200Y-120470800D01*
G75*
G02*
X172700200Y-120645800I-175000J0D01*
G01*
X171000200Y-120645800D01*
G75*
G02*
X170825200Y-120470800I0J175000D01*
G01*
G37*
G36*
G01*
X170825200Y-119200800D02*
X170825200Y-118850800D01*
G75*
G02*
X171000200Y-118675800I175000J0D01*
G01*
X172700200Y-118675800D01*
G75*
G02*
X172875200Y-118850800I0J-175000D01*
G01*
X172875200Y-119200800D01*
G75*
G02*
X172700200Y-119375800I-175000J0D01*
G01*
X171000200Y-119375800D01*
G75*
G02*
X170825200Y-119200800I0J175000D01*
G01*
G37*
%TD*%
%TO.C,U501*%
G36*
G01*
X147363000Y-75701000D02*
X147363000Y-75451000D01*
G75*
G02*
X147488000Y-75326000I125000J0D01*
G01*
X148813000Y-75326000D01*
G75*
G02*
X148938000Y-75451000I0J-125000D01*
G01*
X148938000Y-75701000D01*
G75*
G02*
X148813000Y-75826000I-125000J0D01*
G01*
X147488000Y-75826000D01*
G75*
G02*
X147363000Y-75701000I0J125000D01*
G01*
G37*
G36*
G01*
X147363000Y-76351000D02*
X147363000Y-76101000D01*
G75*
G02*
X147488000Y-75976000I125000J0D01*
G01*
X148813000Y-75976000D01*
G75*
G02*
X148938000Y-76101000I0J-125000D01*
G01*
X148938000Y-76351000D01*
G75*
G02*
X148813000Y-76476000I-125000J0D01*
G01*
X147488000Y-76476000D01*
G75*
G02*
X147363000Y-76351000I0J125000D01*
G01*
G37*
G36*
G01*
X147363000Y-77001000D02*
X147363000Y-76751000D01*
G75*
G02*
X147488000Y-76626000I125000J0D01*
G01*
X148813000Y-76626000D01*
G75*
G02*
X148938000Y-76751000I0J-125000D01*
G01*
X148938000Y-77001000D01*
G75*
G02*
X148813000Y-77126000I-125000J0D01*
G01*
X147488000Y-77126000D01*
G75*
G02*
X147363000Y-77001000I0J125000D01*
G01*
G37*
G36*
G01*
X147363000Y-77651000D02*
X147363000Y-77401000D01*
G75*
G02*
X147488000Y-77276000I125000J0D01*
G01*
X148813000Y-77276000D01*
G75*
G02*
X148938000Y-77401000I0J-125000D01*
G01*
X148938000Y-77651000D01*
G75*
G02*
X148813000Y-77776000I-125000J0D01*
G01*
X147488000Y-77776000D01*
G75*
G02*
X147363000Y-77651000I0J125000D01*
G01*
G37*
G36*
G01*
X147363000Y-78301000D02*
X147363000Y-78051000D01*
G75*
G02*
X147488000Y-77926000I125000J0D01*
G01*
X148813000Y-77926000D01*
G75*
G02*
X148938000Y-78051000I0J-125000D01*
G01*
X148938000Y-78301000D01*
G75*
G02*
X148813000Y-78426000I-125000J0D01*
G01*
X147488000Y-78426000D01*
G75*
G02*
X147363000Y-78301000I0J125000D01*
G01*
G37*
G36*
G01*
X147363000Y-78951000D02*
X147363000Y-78701000D01*
G75*
G02*
X147488000Y-78576000I125000J0D01*
G01*
X148813000Y-78576000D01*
G75*
G02*
X148938000Y-78701000I0J-125000D01*
G01*
X148938000Y-78951000D01*
G75*
G02*
X148813000Y-79076000I-125000J0D01*
G01*
X147488000Y-79076000D01*
G75*
G02*
X147363000Y-78951000I0J125000D01*
G01*
G37*
G36*
G01*
X147363000Y-79601000D02*
X147363000Y-79351000D01*
G75*
G02*
X147488000Y-79226000I125000J0D01*
G01*
X148813000Y-79226000D01*
G75*
G02*
X148938000Y-79351000I0J-125000D01*
G01*
X148938000Y-79601000D01*
G75*
G02*
X148813000Y-79726000I-125000J0D01*
G01*
X147488000Y-79726000D01*
G75*
G02*
X147363000Y-79601000I0J125000D01*
G01*
G37*
G36*
G01*
X147363000Y-80251000D02*
X147363000Y-80001000D01*
G75*
G02*
X147488000Y-79876000I125000J0D01*
G01*
X148813000Y-79876000D01*
G75*
G02*
X148938000Y-80001000I0J-125000D01*
G01*
X148938000Y-80251000D01*
G75*
G02*
X148813000Y-80376000I-125000J0D01*
G01*
X147488000Y-80376000D01*
G75*
G02*
X147363000Y-80251000I0J125000D01*
G01*
G37*
G36*
G01*
X141638000Y-80251000D02*
X141638000Y-80001000D01*
G75*
G02*
X141763000Y-79876000I125000J0D01*
G01*
X143088000Y-79876000D01*
G75*
G02*
X143213000Y-80001000I0J-125000D01*
G01*
X143213000Y-80251000D01*
G75*
G02*
X143088000Y-80376000I-125000J0D01*
G01*
X141763000Y-80376000D01*
G75*
G02*
X141638000Y-80251000I0J125000D01*
G01*
G37*
G36*
G01*
X141638000Y-79601000D02*
X141638000Y-79351000D01*
G75*
G02*
X141763000Y-79226000I125000J0D01*
G01*
X143088000Y-79226000D01*
G75*
G02*
X143213000Y-79351000I0J-125000D01*
G01*
X143213000Y-79601000D01*
G75*
G02*
X143088000Y-79726000I-125000J0D01*
G01*
X141763000Y-79726000D01*
G75*
G02*
X141638000Y-79601000I0J125000D01*
G01*
G37*
G36*
G01*
X141638000Y-78951000D02*
X141638000Y-78701000D01*
G75*
G02*
X141763000Y-78576000I125000J0D01*
G01*
X143088000Y-78576000D01*
G75*
G02*
X143213000Y-78701000I0J-125000D01*
G01*
X143213000Y-78951000D01*
G75*
G02*
X143088000Y-79076000I-125000J0D01*
G01*
X141763000Y-79076000D01*
G75*
G02*
X141638000Y-78951000I0J125000D01*
G01*
G37*
G36*
G01*
X141638000Y-78301000D02*
X141638000Y-78051000D01*
G75*
G02*
X141763000Y-77926000I125000J0D01*
G01*
X143088000Y-77926000D01*
G75*
G02*
X143213000Y-78051000I0J-125000D01*
G01*
X143213000Y-78301000D01*
G75*
G02*
X143088000Y-78426000I-125000J0D01*
G01*
X141763000Y-78426000D01*
G75*
G02*
X141638000Y-78301000I0J125000D01*
G01*
G37*
G36*
G01*
X141638000Y-77651000D02*
X141638000Y-77401000D01*
G75*
G02*
X141763000Y-77276000I125000J0D01*
G01*
X143088000Y-77276000D01*
G75*
G02*
X143213000Y-77401000I0J-125000D01*
G01*
X143213000Y-77651000D01*
G75*
G02*
X143088000Y-77776000I-125000J0D01*
G01*
X141763000Y-77776000D01*
G75*
G02*
X141638000Y-77651000I0J125000D01*
G01*
G37*
G36*
G01*
X141638000Y-77001000D02*
X141638000Y-76751000D01*
G75*
G02*
X141763000Y-76626000I125000J0D01*
G01*
X143088000Y-76626000D01*
G75*
G02*
X143213000Y-76751000I0J-125000D01*
G01*
X143213000Y-77001000D01*
G75*
G02*
X143088000Y-77126000I-125000J0D01*
G01*
X141763000Y-77126000D01*
G75*
G02*
X141638000Y-77001000I0J125000D01*
G01*
G37*
G36*
G01*
X141638000Y-76351000D02*
X141638000Y-76101000D01*
G75*
G02*
X141763000Y-75976000I125000J0D01*
G01*
X143088000Y-75976000D01*
G75*
G02*
X143213000Y-76101000I0J-125000D01*
G01*
X143213000Y-76351000D01*
G75*
G02*
X143088000Y-76476000I-125000J0D01*
G01*
X141763000Y-76476000D01*
G75*
G02*
X141638000Y-76351000I0J125000D01*
G01*
G37*
G36*
G01*
X141638000Y-75701000D02*
X141638000Y-75451000D01*
G75*
G02*
X141763000Y-75326000I125000J0D01*
G01*
X143088000Y-75326000D01*
G75*
G02*
X143213000Y-75451000I0J-125000D01*
G01*
X143213000Y-75701000D01*
G75*
G02*
X143088000Y-75826000I-125000J0D01*
G01*
X141763000Y-75826000D01*
G75*
G02*
X141638000Y-75701000I0J125000D01*
G01*
G37*
%TD*%
D24*
%TO.C,U402*%
X144991000Y-91628000D03*
X144991000Y-90678000D03*
X144991000Y-89728000D03*
X142791000Y-89728000D03*
X142791000Y-91628000D03*
X142791000Y-90678000D03*
%TD*%
%TO.C,U401*%
G36*
G01*
X147445600Y-97486800D02*
X147445600Y-97836800D01*
G75*
G02*
X147270600Y-98011800I-175000J0D01*
G01*
X145570600Y-98011800D01*
G75*
G02*
X145395600Y-97836800I0J175000D01*
G01*
X145395600Y-97486800D01*
G75*
G02*
X145570600Y-97311800I175000J0D01*
G01*
X147270600Y-97311800D01*
G75*
G02*
X147445600Y-97486800I0J-175000D01*
G01*
G37*
G36*
G01*
X147445600Y-96216800D02*
X147445600Y-96566800D01*
G75*
G02*
X147270600Y-96741800I-175000J0D01*
G01*
X145570600Y-96741800D01*
G75*
G02*
X145395600Y-96566800I0J175000D01*
G01*
X145395600Y-96216800D01*
G75*
G02*
X145570600Y-96041800I175000J0D01*
G01*
X147270600Y-96041800D01*
G75*
G02*
X147445600Y-96216800I0J-175000D01*
G01*
G37*
G36*
G01*
X147445600Y-94946800D02*
X147445600Y-95296800D01*
G75*
G02*
X147270600Y-95471800I-175000J0D01*
G01*
X145570600Y-95471800D01*
G75*
G02*
X145395600Y-95296800I0J175000D01*
G01*
X145395600Y-94946800D01*
G75*
G02*
X145570600Y-94771800I175000J0D01*
G01*
X147270600Y-94771800D01*
G75*
G02*
X147445600Y-94946800I0J-175000D01*
G01*
G37*
G36*
G01*
X147445600Y-93676800D02*
X147445600Y-94026800D01*
G75*
G02*
X147270600Y-94201800I-175000J0D01*
G01*
X145570600Y-94201800D01*
G75*
G02*
X145395600Y-94026800I0J175000D01*
G01*
X145395600Y-93676800D01*
G75*
G02*
X145570600Y-93501800I175000J0D01*
G01*
X147270600Y-93501800D01*
G75*
G02*
X147445600Y-93676800I0J-175000D01*
G01*
G37*
G36*
G01*
X142495600Y-93676800D02*
X142495600Y-94026800D01*
G75*
G02*
X142320600Y-94201800I-175000J0D01*
G01*
X140620600Y-94201800D01*
G75*
G02*
X140445600Y-94026800I0J175000D01*
G01*
X140445600Y-93676800D01*
G75*
G02*
X140620600Y-93501800I175000J0D01*
G01*
X142320600Y-93501800D01*
G75*
G02*
X142495600Y-93676800I0J-175000D01*
G01*
G37*
G36*
G01*
X142495600Y-94946800D02*
X142495600Y-95296800D01*
G75*
G02*
X142320600Y-95471800I-175000J0D01*
G01*
X140620600Y-95471800D01*
G75*
G02*
X140445600Y-95296800I0J175000D01*
G01*
X140445600Y-94946800D01*
G75*
G02*
X140620600Y-94771800I175000J0D01*
G01*
X142320600Y-94771800D01*
G75*
G02*
X142495600Y-94946800I0J-175000D01*
G01*
G37*
G36*
G01*
X142495600Y-96216800D02*
X142495600Y-96566800D01*
G75*
G02*
X142320600Y-96741800I-175000J0D01*
G01*
X140620600Y-96741800D01*
G75*
G02*
X140445600Y-96566800I0J175000D01*
G01*
X140445600Y-96216800D01*
G75*
G02*
X140620600Y-96041800I175000J0D01*
G01*
X142320600Y-96041800D01*
G75*
G02*
X142495600Y-96216800I0J-175000D01*
G01*
G37*
G36*
G01*
X142495600Y-97486800D02*
X142495600Y-97836800D01*
G75*
G02*
X142320600Y-98011800I-175000J0D01*
G01*
X140620600Y-98011800D01*
G75*
G02*
X140445600Y-97836800I0J175000D01*
G01*
X140445600Y-97486800D01*
G75*
G02*
X140620600Y-97311800I175000J0D01*
G01*
X142320600Y-97311800D01*
G75*
G02*
X142495600Y-97486800I0J-175000D01*
G01*
G37*
%TD*%
%TO.C,U301*%
G36*
G01*
X156131000Y-86812000D02*
X155781000Y-86812000D01*
G75*
G02*
X155606000Y-86637000I0J175000D01*
G01*
X155606000Y-84937000D01*
G75*
G02*
X155781000Y-84762000I175000J0D01*
G01*
X156131000Y-84762000D01*
G75*
G02*
X156306000Y-84937000I0J-175000D01*
G01*
X156306000Y-86637000D01*
G75*
G02*
X156131000Y-86812000I-175000J0D01*
G01*
G37*
G36*
G01*
X157401000Y-86812000D02*
X157051000Y-86812000D01*
G75*
G02*
X156876000Y-86637000I0J175000D01*
G01*
X156876000Y-84937000D01*
G75*
G02*
X157051000Y-84762000I175000J0D01*
G01*
X157401000Y-84762000D01*
G75*
G02*
X157576000Y-84937000I0J-175000D01*
G01*
X157576000Y-86637000D01*
G75*
G02*
X157401000Y-86812000I-175000J0D01*
G01*
G37*
G36*
G01*
X158671000Y-86812000D02*
X158321000Y-86812000D01*
G75*
G02*
X158146000Y-86637000I0J175000D01*
G01*
X158146000Y-84937000D01*
G75*
G02*
X158321000Y-84762000I175000J0D01*
G01*
X158671000Y-84762000D01*
G75*
G02*
X158846000Y-84937000I0J-175000D01*
G01*
X158846000Y-86637000D01*
G75*
G02*
X158671000Y-86812000I-175000J0D01*
G01*
G37*
G36*
G01*
X159941000Y-86812000D02*
X159591000Y-86812000D01*
G75*
G02*
X159416000Y-86637000I0J175000D01*
G01*
X159416000Y-84937000D01*
G75*
G02*
X159591000Y-84762000I175000J0D01*
G01*
X159941000Y-84762000D01*
G75*
G02*
X160116000Y-84937000I0J-175000D01*
G01*
X160116000Y-86637000D01*
G75*
G02*
X159941000Y-86812000I-175000J0D01*
G01*
G37*
G36*
G01*
X159941000Y-81862000D02*
X159591000Y-81862000D01*
G75*
G02*
X159416000Y-81687000I0J175000D01*
G01*
X159416000Y-79987000D01*
G75*
G02*
X159591000Y-79812000I175000J0D01*
G01*
X159941000Y-79812000D01*
G75*
G02*
X160116000Y-79987000I0J-175000D01*
G01*
X160116000Y-81687000D01*
G75*
G02*
X159941000Y-81862000I-175000J0D01*
G01*
G37*
G36*
G01*
X158671000Y-81862000D02*
X158321000Y-81862000D01*
G75*
G02*
X158146000Y-81687000I0J175000D01*
G01*
X158146000Y-79987000D01*
G75*
G02*
X158321000Y-79812000I175000J0D01*
G01*
X158671000Y-79812000D01*
G75*
G02*
X158846000Y-79987000I0J-175000D01*
G01*
X158846000Y-81687000D01*
G75*
G02*
X158671000Y-81862000I-175000J0D01*
G01*
G37*
G36*
G01*
X157401000Y-81862000D02*
X157051000Y-81862000D01*
G75*
G02*
X156876000Y-81687000I0J175000D01*
G01*
X156876000Y-79987000D01*
G75*
G02*
X157051000Y-79812000I175000J0D01*
G01*
X157401000Y-79812000D01*
G75*
G02*
X157576000Y-79987000I0J-175000D01*
G01*
X157576000Y-81687000D01*
G75*
G02*
X157401000Y-81862000I-175000J0D01*
G01*
G37*
G36*
G01*
X156131000Y-81862000D02*
X155781000Y-81862000D01*
G75*
G02*
X155606000Y-81687000I0J175000D01*
G01*
X155606000Y-79987000D01*
G75*
G02*
X155781000Y-79812000I175000J0D01*
G01*
X156131000Y-79812000D01*
G75*
G02*
X156306000Y-79987000I0J-175000D01*
G01*
X156306000Y-81687000D01*
G75*
G02*
X156131000Y-81862000I-175000J0D01*
G01*
G37*
%TD*%
%TO.C,U201*%
G36*
G01*
X128349000Y-86093000D02*
X128699000Y-86093000D01*
G75*
G02*
X128874000Y-86268000I0J-175000D01*
G01*
X128874000Y-87618000D01*
G75*
G02*
X128699000Y-87793000I-175000J0D01*
G01*
X128349000Y-87793000D01*
G75*
G02*
X128174000Y-87618000I0J175000D01*
G01*
X128174000Y-86268000D01*
G75*
G02*
X128349000Y-86093000I175000J0D01*
G01*
G37*
G36*
G01*
X127079000Y-86093000D02*
X127429000Y-86093000D01*
G75*
G02*
X127604000Y-86268000I0J-175000D01*
G01*
X127604000Y-87618000D01*
G75*
G02*
X127429000Y-87793000I-175000J0D01*
G01*
X127079000Y-87793000D01*
G75*
G02*
X126904000Y-87618000I0J175000D01*
G01*
X126904000Y-86268000D01*
G75*
G02*
X127079000Y-86093000I175000J0D01*
G01*
G37*
G36*
G01*
X125809000Y-86093000D02*
X126159000Y-86093000D01*
G75*
G02*
X126334000Y-86268000I0J-175000D01*
G01*
X126334000Y-87618000D01*
G75*
G02*
X126159000Y-87793000I-175000J0D01*
G01*
X125809000Y-87793000D01*
G75*
G02*
X125634000Y-87618000I0J175000D01*
G01*
X125634000Y-86268000D01*
G75*
G02*
X125809000Y-86093000I175000J0D01*
G01*
G37*
G36*
G01*
X124539000Y-86093000D02*
X124889000Y-86093000D01*
G75*
G02*
X125064000Y-86268000I0J-175000D01*
G01*
X125064000Y-87618000D01*
G75*
G02*
X124889000Y-87793000I-175000J0D01*
G01*
X124539000Y-87793000D01*
G75*
G02*
X124364000Y-87618000I0J175000D01*
G01*
X124364000Y-86268000D01*
G75*
G02*
X124539000Y-86093000I175000J0D01*
G01*
G37*
G36*
G01*
X123269000Y-86093000D02*
X123619000Y-86093000D01*
G75*
G02*
X123794000Y-86268000I0J-175000D01*
G01*
X123794000Y-87618000D01*
G75*
G02*
X123619000Y-87793000I-175000J0D01*
G01*
X123269000Y-87793000D01*
G75*
G02*
X123094000Y-87618000I0J175000D01*
G01*
X123094000Y-86268000D01*
G75*
G02*
X123269000Y-86093000I175000J0D01*
G01*
G37*
G36*
G01*
X121999000Y-86093000D02*
X122349000Y-86093000D01*
G75*
G02*
X122524000Y-86268000I0J-175000D01*
G01*
X122524000Y-87618000D01*
G75*
G02*
X122349000Y-87793000I-175000J0D01*
G01*
X121999000Y-87793000D01*
G75*
G02*
X121824000Y-87618000I0J175000D01*
G01*
X121824000Y-86268000D01*
G75*
G02*
X121999000Y-86093000I175000J0D01*
G01*
G37*
G36*
G01*
X120729000Y-86093000D02*
X121079000Y-86093000D01*
G75*
G02*
X121254000Y-86268000I0J-175000D01*
G01*
X121254000Y-87618000D01*
G75*
G02*
X121079000Y-87793000I-175000J0D01*
G01*
X120729000Y-87793000D01*
G75*
G02*
X120554000Y-87618000I0J175000D01*
G01*
X120554000Y-86268000D01*
G75*
G02*
X120729000Y-86093000I175000J0D01*
G01*
G37*
G36*
G01*
X119459000Y-86093000D02*
X119809000Y-86093000D01*
G75*
G02*
X119984000Y-86268000I0J-175000D01*
G01*
X119984000Y-87618000D01*
G75*
G02*
X119809000Y-87793000I-175000J0D01*
G01*
X119459000Y-87793000D01*
G75*
G02*
X119284000Y-87618000I0J175000D01*
G01*
X119284000Y-86268000D01*
G75*
G02*
X119459000Y-86093000I175000J0D01*
G01*
G37*
G36*
G01*
X119459000Y-79593000D02*
X119809000Y-79593000D01*
G75*
G02*
X119984000Y-79768000I0J-175000D01*
G01*
X119984000Y-81118000D01*
G75*
G02*
X119809000Y-81293000I-175000J0D01*
G01*
X119459000Y-81293000D01*
G75*
G02*
X119284000Y-81118000I0J175000D01*
G01*
X119284000Y-79768000D01*
G75*
G02*
X119459000Y-79593000I175000J0D01*
G01*
G37*
G36*
G01*
X120729000Y-79593000D02*
X121079000Y-79593000D01*
G75*
G02*
X121254000Y-79768000I0J-175000D01*
G01*
X121254000Y-81118000D01*
G75*
G02*
X121079000Y-81293000I-175000J0D01*
G01*
X120729000Y-81293000D01*
G75*
G02*
X120554000Y-81118000I0J175000D01*
G01*
X120554000Y-79768000D01*
G75*
G02*
X120729000Y-79593000I175000J0D01*
G01*
G37*
G36*
G01*
X121999000Y-79593000D02*
X122349000Y-79593000D01*
G75*
G02*
X122524000Y-79768000I0J-175000D01*
G01*
X122524000Y-81118000D01*
G75*
G02*
X122349000Y-81293000I-175000J0D01*
G01*
X121999000Y-81293000D01*
G75*
G02*
X121824000Y-81118000I0J175000D01*
G01*
X121824000Y-79768000D01*
G75*
G02*
X121999000Y-79593000I175000J0D01*
G01*
G37*
G36*
G01*
X123269000Y-79593000D02*
X123619000Y-79593000D01*
G75*
G02*
X123794000Y-79768000I0J-175000D01*
G01*
X123794000Y-81118000D01*
G75*
G02*
X123619000Y-81293000I-175000J0D01*
G01*
X123269000Y-81293000D01*
G75*
G02*
X123094000Y-81118000I0J175000D01*
G01*
X123094000Y-79768000D01*
G75*
G02*
X123269000Y-79593000I175000J0D01*
G01*
G37*
G36*
G01*
X124539000Y-79593000D02*
X124889000Y-79593000D01*
G75*
G02*
X125064000Y-79768000I0J-175000D01*
G01*
X125064000Y-81118000D01*
G75*
G02*
X124889000Y-81293000I-175000J0D01*
G01*
X124539000Y-81293000D01*
G75*
G02*
X124364000Y-81118000I0J175000D01*
G01*
X124364000Y-79768000D01*
G75*
G02*
X124539000Y-79593000I175000J0D01*
G01*
G37*
G36*
G01*
X125809000Y-79593000D02*
X126159000Y-79593000D01*
G75*
G02*
X126334000Y-79768000I0J-175000D01*
G01*
X126334000Y-81118000D01*
G75*
G02*
X126159000Y-81293000I-175000J0D01*
G01*
X125809000Y-81293000D01*
G75*
G02*
X125634000Y-81118000I0J175000D01*
G01*
X125634000Y-79768000D01*
G75*
G02*
X125809000Y-79593000I175000J0D01*
G01*
G37*
G36*
G01*
X127079000Y-79593000D02*
X127429000Y-79593000D01*
G75*
G02*
X127604000Y-79768000I0J-175000D01*
G01*
X127604000Y-81118000D01*
G75*
G02*
X127429000Y-81293000I-175000J0D01*
G01*
X127079000Y-81293000D01*
G75*
G02*
X126904000Y-81118000I0J175000D01*
G01*
X126904000Y-79768000D01*
G75*
G02*
X127079000Y-79593000I175000J0D01*
G01*
G37*
G36*
G01*
X128349000Y-79593000D02*
X128699000Y-79593000D01*
G75*
G02*
X128874000Y-79768000I0J-175000D01*
G01*
X128874000Y-81118000D01*
G75*
G02*
X128699000Y-81293000I-175000J0D01*
G01*
X128349000Y-81293000D01*
G75*
G02*
X128174000Y-81118000I0J175000D01*
G01*
X128174000Y-79768000D01*
G75*
G02*
X128349000Y-79593000I175000J0D01*
G01*
G37*
%TD*%
D25*
%TO.C,U101*%
X113116200Y-92575800D03*
X112166200Y-92575800D03*
X111216200Y-92575800D03*
X111216200Y-94775800D03*
X113116200Y-94775800D03*
%TD*%
%TO.C,SW705*%
G36*
G01*
X180078000Y-136450100D02*
X180078000Y-135500100D01*
G75*
G02*
X180553000Y-135025100I475000J0D01*
G01*
X182203000Y-135025100D01*
G75*
G02*
X182678000Y-135500100I0J-475000D01*
G01*
X182678000Y-136450100D01*
G75*
G02*
X182203000Y-136925100I-475000J0D01*
G01*
X180553000Y-136925100D01*
G75*
G02*
X180078000Y-136450100I0J475000D01*
G01*
G37*
G36*
G01*
X180078000Y-131450100D02*
X180078000Y-130500100D01*
G75*
G02*
X180553000Y-130025100I475000J0D01*
G01*
X182203000Y-130025100D01*
G75*
G02*
X182678000Y-130500100I0J-475000D01*
G01*
X182678000Y-131450100D01*
G75*
G02*
X182203000Y-131925100I-475000J0D01*
G01*
X180553000Y-131925100D01*
G75*
G02*
X180078000Y-131450100I0J475000D01*
G01*
G37*
G36*
G01*
X165578000Y-136450100D02*
X165578000Y-135500100D01*
G75*
G02*
X166053000Y-135025100I475000J0D01*
G01*
X167703000Y-135025100D01*
G75*
G02*
X168178000Y-135500100I0J-475000D01*
G01*
X168178000Y-136450100D01*
G75*
G02*
X167703000Y-136925100I-475000J0D01*
G01*
X166053000Y-136925100D01*
G75*
G02*
X165578000Y-136450100I0J475000D01*
G01*
G37*
G36*
G01*
X165578000Y-131450100D02*
X165578000Y-130500100D01*
G75*
G02*
X166053000Y-130025100I475000J0D01*
G01*
X167703000Y-130025100D01*
G75*
G02*
X168178000Y-130500100I0J-475000D01*
G01*
X168178000Y-131450100D01*
G75*
G02*
X167703000Y-131925100I-475000J0D01*
G01*
X166053000Y-131925100D01*
G75*
G02*
X165578000Y-131450100I0J475000D01*
G01*
G37*
%TD*%
%TO.C,SW703*%
G36*
G01*
X150626700Y-136450100D02*
X150626700Y-135500100D01*
G75*
G02*
X151101700Y-135025100I475000J0D01*
G01*
X152751700Y-135025100D01*
G75*
G02*
X153226700Y-135500100I0J-475000D01*
G01*
X153226700Y-136450100D01*
G75*
G02*
X152751700Y-136925100I-475000J0D01*
G01*
X151101700Y-136925100D01*
G75*
G02*
X150626700Y-136450100I0J475000D01*
G01*
G37*
G36*
G01*
X150626700Y-131450100D02*
X150626700Y-130500100D01*
G75*
G02*
X151101700Y-130025100I475000J0D01*
G01*
X152751700Y-130025100D01*
G75*
G02*
X153226700Y-130500100I0J-475000D01*
G01*
X153226700Y-131450100D01*
G75*
G02*
X152751700Y-131925100I-475000J0D01*
G01*
X151101700Y-131925100D01*
G75*
G02*
X150626700Y-131450100I0J475000D01*
G01*
G37*
G36*
G01*
X136126700Y-136450100D02*
X136126700Y-135500100D01*
G75*
G02*
X136601700Y-135025100I475000J0D01*
G01*
X138251700Y-135025100D01*
G75*
G02*
X138726700Y-135500100I0J-475000D01*
G01*
X138726700Y-136450100D01*
G75*
G02*
X138251700Y-136925100I-475000J0D01*
G01*
X136601700Y-136925100D01*
G75*
G02*
X136126700Y-136450100I0J475000D01*
G01*
G37*
G36*
G01*
X136126700Y-131450100D02*
X136126700Y-130500100D01*
G75*
G02*
X136601700Y-130025100I475000J0D01*
G01*
X138251700Y-130025100D01*
G75*
G02*
X138726700Y-130500100I0J-475000D01*
G01*
X138726700Y-131450100D01*
G75*
G02*
X138251700Y-131925100I-475000J0D01*
G01*
X136601700Y-131925100D01*
G75*
G02*
X136126700Y-131450100I0J475000D01*
G01*
G37*
%TD*%
%TO.C,SW702*%
G36*
G01*
X121162700Y-136450100D02*
X121162700Y-135500100D01*
G75*
G02*
X121637700Y-135025100I475000J0D01*
G01*
X123287700Y-135025100D01*
G75*
G02*
X123762700Y-135500100I0J-475000D01*
G01*
X123762700Y-136450100D01*
G75*
G02*
X123287700Y-136925100I-475000J0D01*
G01*
X121637700Y-136925100D01*
G75*
G02*
X121162700Y-136450100I0J475000D01*
G01*
G37*
G36*
G01*
X121162700Y-131450100D02*
X121162700Y-130500100D01*
G75*
G02*
X121637700Y-130025100I475000J0D01*
G01*
X123287700Y-130025100D01*
G75*
G02*
X123762700Y-130500100I0J-475000D01*
G01*
X123762700Y-131450100D01*
G75*
G02*
X123287700Y-131925100I-475000J0D01*
G01*
X121637700Y-131925100D01*
G75*
G02*
X121162700Y-131450100I0J475000D01*
G01*
G37*
G36*
G01*
X106662700Y-136450100D02*
X106662700Y-135500100D01*
G75*
G02*
X107137700Y-135025100I475000J0D01*
G01*
X108787700Y-135025100D01*
G75*
G02*
X109262700Y-135500100I0J-475000D01*
G01*
X109262700Y-136450100D01*
G75*
G02*
X108787700Y-136925100I-475000J0D01*
G01*
X107137700Y-136925100D01*
G75*
G02*
X106662700Y-136450100I0J475000D01*
G01*
G37*
G36*
G01*
X106662700Y-131450100D02*
X106662700Y-130500100D01*
G75*
G02*
X107137700Y-130025100I475000J0D01*
G01*
X108787700Y-130025100D01*
G75*
G02*
X109262700Y-130500100I0J-475000D01*
G01*
X109262700Y-131450100D01*
G75*
G02*
X108787700Y-131925100I-475000J0D01*
G01*
X107137700Y-131925100D01*
G75*
G02*
X106662700Y-131450100I0J475000D01*
G01*
G37*
%TD*%
%TO.C,SW701*%
G36*
G01*
X109821000Y-123082000D02*
X109821000Y-122282000D01*
G75*
G02*
X110221000Y-121882000I400000J0D01*
G01*
X111521000Y-121882000D01*
G75*
G02*
X111921000Y-122282000I0J-400000D01*
G01*
X111921000Y-123082000D01*
G75*
G02*
X111521000Y-123482000I-400000J0D01*
G01*
X110221000Y-123482000D01*
G75*
G02*
X109821000Y-123082000I0J400000D01*
G01*
G37*
G36*
G01*
X118021000Y-123082000D02*
X118021000Y-122282000D01*
G75*
G02*
X118421000Y-121882000I400000J0D01*
G01*
X119721000Y-121882000D01*
G75*
G02*
X120121000Y-122282000I0J-400000D01*
G01*
X120121000Y-123082000D01*
G75*
G02*
X119721000Y-123482000I-400000J0D01*
G01*
X118421000Y-123482000D01*
G75*
G02*
X118021000Y-123082000I0J400000D01*
G01*
G37*
%TD*%
%TO.C,R805*%
G36*
G01*
X147140000Y-105672500D02*
X147140000Y-105147500D01*
G75*
G02*
X147402500Y-104885000I262500J0D01*
G01*
X148027500Y-104885000D01*
G75*
G02*
X148290000Y-105147500I0J-262500D01*
G01*
X148290000Y-105672500D01*
G75*
G02*
X148027500Y-105935000I-262500J0D01*
G01*
X147402500Y-105935000D01*
G75*
G02*
X147140000Y-105672500I0J262500D01*
G01*
G37*
G36*
G01*
X148890000Y-105672500D02*
X148890000Y-105147500D01*
G75*
G02*
X149152500Y-104885000I262500J0D01*
G01*
X149777500Y-104885000D01*
G75*
G02*
X150040000Y-105147500I0J-262500D01*
G01*
X150040000Y-105672500D01*
G75*
G02*
X149777500Y-105935000I-262500J0D01*
G01*
X149152500Y-105935000D01*
G75*
G02*
X148890000Y-105672500I0J262500D01*
G01*
G37*
%TD*%
%TO.C,R804*%
G36*
G01*
X147140000Y-114181500D02*
X147140000Y-113656500D01*
G75*
G02*
X147402500Y-113394000I262500J0D01*
G01*
X148027500Y-113394000D01*
G75*
G02*
X148290000Y-113656500I0J-262500D01*
G01*
X148290000Y-114181500D01*
G75*
G02*
X148027500Y-114444000I-262500J0D01*
G01*
X147402500Y-114444000D01*
G75*
G02*
X147140000Y-114181500I0J262500D01*
G01*
G37*
G36*
G01*
X148890000Y-114181500D02*
X148890000Y-113656500D01*
G75*
G02*
X149152500Y-113394000I262500J0D01*
G01*
X149777500Y-113394000D01*
G75*
G02*
X150040000Y-113656500I0J-262500D01*
G01*
X150040000Y-114181500D01*
G75*
G02*
X149777500Y-114444000I-262500J0D01*
G01*
X149152500Y-114444000D01*
G75*
G02*
X148890000Y-114181500I0J262500D01*
G01*
G37*
%TD*%
%TO.C,R801*%
G36*
G01*
X151331000Y-107958500D02*
X151331000Y-107433500D01*
G75*
G02*
X151593500Y-107171000I262500J0D01*
G01*
X152218500Y-107171000D01*
G75*
G02*
X152481000Y-107433500I0J-262500D01*
G01*
X152481000Y-107958500D01*
G75*
G02*
X152218500Y-108221000I-262500J0D01*
G01*
X151593500Y-108221000D01*
G75*
G02*
X151331000Y-107958500I0J262500D01*
G01*
G37*
G36*
G01*
X153081000Y-107958500D02*
X153081000Y-107433500D01*
G75*
G02*
X153343500Y-107171000I262500J0D01*
G01*
X153968500Y-107171000D01*
G75*
G02*
X154231000Y-107433500I0J-262500D01*
G01*
X154231000Y-107958500D01*
G75*
G02*
X153968500Y-108221000I-262500J0D01*
G01*
X153343500Y-108221000D01*
G75*
G02*
X153081000Y-107958500I0J262500D01*
G01*
G37*
%TD*%
%TO.C,R715*%
G36*
G01*
X162768000Y-135373500D02*
X162768000Y-135898500D01*
G75*
G02*
X162505500Y-136161000I-262500J0D01*
G01*
X161880500Y-136161000D01*
G75*
G02*
X161618000Y-135898500I0J262500D01*
G01*
X161618000Y-135373500D01*
G75*
G02*
X161880500Y-135111000I262500J0D01*
G01*
X162505500Y-135111000D01*
G75*
G02*
X162768000Y-135373500I0J-262500D01*
G01*
G37*
G36*
G01*
X164518000Y-135373500D02*
X164518000Y-135898500D01*
G75*
G02*
X164255500Y-136161000I-262500J0D01*
G01*
X163630500Y-136161000D01*
G75*
G02*
X163368000Y-135898500I0J262500D01*
G01*
X163368000Y-135373500D01*
G75*
G02*
X163630500Y-135111000I262500J0D01*
G01*
X164255500Y-135111000D01*
G75*
G02*
X164518000Y-135373500I0J-262500D01*
G01*
G37*
%TD*%
%TO.C,R714*%
G36*
G01*
X163368000Y-131834500D02*
X163368000Y-131309500D01*
G75*
G02*
X163630500Y-131047000I262500J0D01*
G01*
X164255500Y-131047000D01*
G75*
G02*
X164518000Y-131309500I0J-262500D01*
G01*
X164518000Y-131834500D01*
G75*
G02*
X164255500Y-132097000I-262500J0D01*
G01*
X163630500Y-132097000D01*
G75*
G02*
X163368000Y-131834500I0J262500D01*
G01*
G37*
G36*
G01*
X161618000Y-131834500D02*
X161618000Y-131309500D01*
G75*
G02*
X161880500Y-131047000I262500J0D01*
G01*
X162505500Y-131047000D01*
G75*
G02*
X162768000Y-131309500I0J-262500D01*
G01*
X162768000Y-131834500D01*
G75*
G02*
X162505500Y-132097000I-262500J0D01*
G01*
X161880500Y-132097000D01*
G75*
G02*
X161618000Y-131834500I0J262500D01*
G01*
G37*
%TD*%
%TO.C,R713*%
G36*
G01*
X133318000Y-135373500D02*
X133318000Y-135898500D01*
G75*
G02*
X133055500Y-136161000I-262500J0D01*
G01*
X132430500Y-136161000D01*
G75*
G02*
X132168000Y-135898500I0J262500D01*
G01*
X132168000Y-135373500D01*
G75*
G02*
X132430500Y-135111000I262500J0D01*
G01*
X133055500Y-135111000D01*
G75*
G02*
X133318000Y-135373500I0J-262500D01*
G01*
G37*
G36*
G01*
X135068000Y-135373500D02*
X135068000Y-135898500D01*
G75*
G02*
X134805500Y-136161000I-262500J0D01*
G01*
X134180500Y-136161000D01*
G75*
G02*
X133918000Y-135898500I0J262500D01*
G01*
X133918000Y-135373500D01*
G75*
G02*
X134180500Y-135111000I262500J0D01*
G01*
X134805500Y-135111000D01*
G75*
G02*
X135068000Y-135373500I0J-262500D01*
G01*
G37*
%TD*%
%TO.C,R712*%
G36*
G01*
X109228500Y-96728000D02*
X108703500Y-96728000D01*
G75*
G02*
X108441000Y-96465500I0J262500D01*
G01*
X108441000Y-95840500D01*
G75*
G02*
X108703500Y-95578000I262500J0D01*
G01*
X109228500Y-95578000D01*
G75*
G02*
X109491000Y-95840500I0J-262500D01*
G01*
X109491000Y-96465500D01*
G75*
G02*
X109228500Y-96728000I-262500J0D01*
G01*
G37*
G36*
G01*
X109228500Y-98478000D02*
X108703500Y-98478000D01*
G75*
G02*
X108441000Y-98215500I0J262500D01*
G01*
X108441000Y-97590500D01*
G75*
G02*
X108703500Y-97328000I262500J0D01*
G01*
X109228500Y-97328000D01*
G75*
G02*
X109491000Y-97590500I0J-262500D01*
G01*
X109491000Y-98215500D01*
G75*
G02*
X109228500Y-98478000I-262500J0D01*
G01*
G37*
%TD*%
%TO.C,R711*%
G36*
G01*
X104639500Y-109647000D02*
X105164500Y-109647000D01*
G75*
G02*
X105427000Y-109909500I0J-262500D01*
G01*
X105427000Y-110534500D01*
G75*
G02*
X105164500Y-110797000I-262500J0D01*
G01*
X104639500Y-110797000D01*
G75*
G02*
X104377000Y-110534500I0J262500D01*
G01*
X104377000Y-109909500D01*
G75*
G02*
X104639500Y-109647000I262500J0D01*
G01*
G37*
G36*
G01*
X104639500Y-107897000D02*
X105164500Y-107897000D01*
G75*
G02*
X105427000Y-108159500I0J-262500D01*
G01*
X105427000Y-108784500D01*
G75*
G02*
X105164500Y-109047000I-262500J0D01*
G01*
X104639500Y-109047000D01*
G75*
G02*
X104377000Y-108784500I0J262500D01*
G01*
X104377000Y-108159500D01*
G75*
G02*
X104639500Y-107897000I262500J0D01*
G01*
G37*
%TD*%
%TO.C,R710*%
G36*
G01*
X133904000Y-131820500D02*
X133904000Y-131295500D01*
G75*
G02*
X134166500Y-131033000I262500J0D01*
G01*
X134791500Y-131033000D01*
G75*
G02*
X135054000Y-131295500I0J-262500D01*
G01*
X135054000Y-131820500D01*
G75*
G02*
X134791500Y-132083000I-262500J0D01*
G01*
X134166500Y-132083000D01*
G75*
G02*
X133904000Y-131820500I0J262500D01*
G01*
G37*
G36*
G01*
X132154000Y-131820500D02*
X132154000Y-131295500D01*
G75*
G02*
X132416500Y-131033000I262500J0D01*
G01*
X133041500Y-131033000D01*
G75*
G02*
X133304000Y-131295500I0J-262500D01*
G01*
X133304000Y-131820500D01*
G75*
G02*
X133041500Y-132083000I-262500J0D01*
G01*
X132416500Y-132083000D01*
G75*
G02*
X132154000Y-131820500I0J262500D01*
G01*
G37*
%TD*%
%TO.C,R709*%
G36*
G01*
X103713000Y-133214500D02*
X103713000Y-133739500D01*
G75*
G02*
X103450500Y-134002000I-262500J0D01*
G01*
X102825500Y-134002000D01*
G75*
G02*
X102563000Y-133739500I0J262500D01*
G01*
X102563000Y-133214500D01*
G75*
G02*
X102825500Y-132952000I262500J0D01*
G01*
X103450500Y-132952000D01*
G75*
G02*
X103713000Y-133214500I0J-262500D01*
G01*
G37*
G36*
G01*
X105463000Y-133214500D02*
X105463000Y-133739500D01*
G75*
G02*
X105200500Y-134002000I-262500J0D01*
G01*
X104575500Y-134002000D01*
G75*
G02*
X104313000Y-133739500I0J262500D01*
G01*
X104313000Y-133214500D01*
G75*
G02*
X104575500Y-132952000I262500J0D01*
G01*
X105200500Y-132952000D01*
G75*
G02*
X105463000Y-133214500I0J-262500D01*
G01*
G37*
%TD*%
%TO.C,R708*%
G36*
G01*
X104313000Y-131707500D02*
X104313000Y-131182500D01*
G75*
G02*
X104575500Y-130920000I262500J0D01*
G01*
X105200500Y-130920000D01*
G75*
G02*
X105463000Y-131182500I0J-262500D01*
G01*
X105463000Y-131707500D01*
G75*
G02*
X105200500Y-131970000I-262500J0D01*
G01*
X104575500Y-131970000D01*
G75*
G02*
X104313000Y-131707500I0J262500D01*
G01*
G37*
G36*
G01*
X102563000Y-131707500D02*
X102563000Y-131182500D01*
G75*
G02*
X102825500Y-130920000I262500J0D01*
G01*
X103450500Y-130920000D01*
G75*
G02*
X103713000Y-131182500I0J-262500D01*
G01*
X103713000Y-131707500D01*
G75*
G02*
X103450500Y-131970000I-262500J0D01*
G01*
X102825500Y-131970000D01*
G75*
G02*
X102563000Y-131707500I0J262500D01*
G01*
G37*
%TD*%
%TO.C,R707*%
G36*
G01*
X118990500Y-116632000D02*
X119515500Y-116632000D01*
G75*
G02*
X119778000Y-116894500I0J-262500D01*
G01*
X119778000Y-117519500D01*
G75*
G02*
X119515500Y-117782000I-262500J0D01*
G01*
X118990500Y-117782000D01*
G75*
G02*
X118728000Y-117519500I0J262500D01*
G01*
X118728000Y-116894500D01*
G75*
G02*
X118990500Y-116632000I262500J0D01*
G01*
G37*
G36*
G01*
X118990500Y-114882000D02*
X119515500Y-114882000D01*
G75*
G02*
X119778000Y-115144500I0J-262500D01*
G01*
X119778000Y-115769500D01*
G75*
G02*
X119515500Y-116032000I-262500J0D01*
G01*
X118990500Y-116032000D01*
G75*
G02*
X118728000Y-115769500I0J262500D01*
G01*
X118728000Y-115144500D01*
G75*
G02*
X118990500Y-114882000I262500J0D01*
G01*
G37*
%TD*%
%TO.C,R706*%
G36*
G01*
X124214500Y-107368000D02*
X123689500Y-107368000D01*
G75*
G02*
X123427000Y-107105500I0J262500D01*
G01*
X123427000Y-106480500D01*
G75*
G02*
X123689500Y-106218000I262500J0D01*
G01*
X124214500Y-106218000D01*
G75*
G02*
X124477000Y-106480500I0J-262500D01*
G01*
X124477000Y-107105500D01*
G75*
G02*
X124214500Y-107368000I-262500J0D01*
G01*
G37*
G36*
G01*
X124214500Y-105618000D02*
X123689500Y-105618000D01*
G75*
G02*
X123427000Y-105355500I0J262500D01*
G01*
X123427000Y-104730500D01*
G75*
G02*
X123689500Y-104468000I262500J0D01*
G01*
X124214500Y-104468000D01*
G75*
G02*
X124477000Y-104730500I0J-262500D01*
G01*
X124477000Y-105355500D01*
G75*
G02*
X124214500Y-105618000I-262500J0D01*
G01*
G37*
%TD*%
%TO.C,R705*%
G36*
G01*
X121839000Y-100084500D02*
X121839000Y-99559500D01*
G75*
G02*
X122101500Y-99297000I262500J0D01*
G01*
X122726500Y-99297000D01*
G75*
G02*
X122989000Y-99559500I0J-262500D01*
G01*
X122989000Y-100084500D01*
G75*
G02*
X122726500Y-100347000I-262500J0D01*
G01*
X122101500Y-100347000D01*
G75*
G02*
X121839000Y-100084500I0J262500D01*
G01*
G37*
G36*
G01*
X120089000Y-100084500D02*
X120089000Y-99559500D01*
G75*
G02*
X120351500Y-99297000I262500J0D01*
G01*
X120976500Y-99297000D01*
G75*
G02*
X121239000Y-99559500I0J-262500D01*
G01*
X121239000Y-100084500D01*
G75*
G02*
X120976500Y-100347000I-262500J0D01*
G01*
X120351500Y-100347000D01*
G75*
G02*
X120089000Y-100084500I0J262500D01*
G01*
G37*
%TD*%
%TO.C,R704*%
G36*
G01*
X118990500Y-112949000D02*
X119515500Y-112949000D01*
G75*
G02*
X119778000Y-113211500I0J-262500D01*
G01*
X119778000Y-113836500D01*
G75*
G02*
X119515500Y-114099000I-262500J0D01*
G01*
X118990500Y-114099000D01*
G75*
G02*
X118728000Y-113836500I0J262500D01*
G01*
X118728000Y-113211500D01*
G75*
G02*
X118990500Y-112949000I262500J0D01*
G01*
G37*
G36*
G01*
X118990500Y-111199000D02*
X119515500Y-111199000D01*
G75*
G02*
X119778000Y-111461500I0J-262500D01*
G01*
X119778000Y-112086500D01*
G75*
G02*
X119515500Y-112349000I-262500J0D01*
G01*
X118990500Y-112349000D01*
G75*
G02*
X118728000Y-112086500I0J262500D01*
G01*
X118728000Y-111461500D01*
G75*
G02*
X118990500Y-111199000I262500J0D01*
G01*
G37*
%TD*%
%TO.C,R703*%
G36*
G01*
X108449500Y-121232000D02*
X108974500Y-121232000D01*
G75*
G02*
X109237000Y-121494500I0J-262500D01*
G01*
X109237000Y-122119500D01*
G75*
G02*
X108974500Y-122382000I-262500J0D01*
G01*
X108449500Y-122382000D01*
G75*
G02*
X108187000Y-122119500I0J262500D01*
G01*
X108187000Y-121494500D01*
G75*
G02*
X108449500Y-121232000I262500J0D01*
G01*
G37*
G36*
G01*
X108449500Y-122982000D02*
X108974500Y-122982000D01*
G75*
G02*
X109237000Y-123244500I0J-262500D01*
G01*
X109237000Y-123869500D01*
G75*
G02*
X108974500Y-124132000I-262500J0D01*
G01*
X108449500Y-124132000D01*
G75*
G02*
X108187000Y-123869500I0J262500D01*
G01*
X108187000Y-123244500D01*
G75*
G02*
X108449500Y-122982000I262500J0D01*
G01*
G37*
%TD*%
%TO.C,R702*%
G36*
G01*
X118355500Y-101519000D02*
X118880500Y-101519000D01*
G75*
G02*
X119143000Y-101781500I0J-262500D01*
G01*
X119143000Y-102406500D01*
G75*
G02*
X118880500Y-102669000I-262500J0D01*
G01*
X118355500Y-102669000D01*
G75*
G02*
X118093000Y-102406500I0J262500D01*
G01*
X118093000Y-101781500D01*
G75*
G02*
X118355500Y-101519000I262500J0D01*
G01*
G37*
G36*
G01*
X118355500Y-99769000D02*
X118880500Y-99769000D01*
G75*
G02*
X119143000Y-100031500I0J-262500D01*
G01*
X119143000Y-100656500D01*
G75*
G02*
X118880500Y-100919000I-262500J0D01*
G01*
X118355500Y-100919000D01*
G75*
G02*
X118093000Y-100656500I0J262500D01*
G01*
X118093000Y-100031500D01*
G75*
G02*
X118355500Y-99769000I262500J0D01*
G01*
G37*
%TD*%
%TO.C,R701*%
G36*
G01*
X120731000Y-106671500D02*
X120731000Y-107196500D01*
G75*
G02*
X120468500Y-107459000I-262500J0D01*
G01*
X119843500Y-107459000D01*
G75*
G02*
X119581000Y-107196500I0J262500D01*
G01*
X119581000Y-106671500D01*
G75*
G02*
X119843500Y-106409000I262500J0D01*
G01*
X120468500Y-106409000D01*
G75*
G02*
X120731000Y-106671500I0J-262500D01*
G01*
G37*
G36*
G01*
X122481000Y-106671500D02*
X122481000Y-107196500D01*
G75*
G02*
X122218500Y-107459000I-262500J0D01*
G01*
X121593500Y-107459000D01*
G75*
G02*
X121331000Y-107196500I0J262500D01*
G01*
X121331000Y-106671500D01*
G75*
G02*
X121593500Y-106409000I262500J0D01*
G01*
X122218500Y-106409000D01*
G75*
G02*
X122481000Y-106671500I0J-262500D01*
G01*
G37*
%TD*%
%TO.C,R507*%
G36*
G01*
X154767000Y-72000500D02*
X154767000Y-72525500D01*
G75*
G02*
X154504500Y-72788000I-262500J0D01*
G01*
X153879500Y-72788000D01*
G75*
G02*
X153617000Y-72525500I0J262500D01*
G01*
X153617000Y-72000500D01*
G75*
G02*
X153879500Y-71738000I262500J0D01*
G01*
X154504500Y-71738000D01*
G75*
G02*
X154767000Y-72000500I0J-262500D01*
G01*
G37*
G36*
G01*
X156517000Y-72000500D02*
X156517000Y-72525500D01*
G75*
G02*
X156254500Y-72788000I-262500J0D01*
G01*
X155629500Y-72788000D01*
G75*
G02*
X155367000Y-72525500I0J262500D01*
G01*
X155367000Y-72000500D01*
G75*
G02*
X155629500Y-71738000I262500J0D01*
G01*
X156254500Y-71738000D01*
G75*
G02*
X156517000Y-72000500I0J-262500D01*
G01*
G37*
%TD*%
%TO.C,R506*%
G36*
G01*
X149687000Y-73016500D02*
X149687000Y-73541500D01*
G75*
G02*
X149424500Y-73804000I-262500J0D01*
G01*
X148799500Y-73804000D01*
G75*
G02*
X148537000Y-73541500I0J262500D01*
G01*
X148537000Y-73016500D01*
G75*
G02*
X148799500Y-72754000I262500J0D01*
G01*
X149424500Y-72754000D01*
G75*
G02*
X149687000Y-73016500I0J-262500D01*
G01*
G37*
G36*
G01*
X151437000Y-73016500D02*
X151437000Y-73541500D01*
G75*
G02*
X151174500Y-73804000I-262500J0D01*
G01*
X150549500Y-73804000D01*
G75*
G02*
X150287000Y-73541500I0J262500D01*
G01*
X150287000Y-73016500D01*
G75*
G02*
X150549500Y-72754000I262500J0D01*
G01*
X151174500Y-72754000D01*
G75*
G02*
X151437000Y-73016500I0J-262500D01*
G01*
G37*
%TD*%
%TO.C,R505*%
G36*
G01*
X155367000Y-74557500D02*
X155367000Y-74032500D01*
G75*
G02*
X155629500Y-73770000I262500J0D01*
G01*
X156254500Y-73770000D01*
G75*
G02*
X156517000Y-74032500I0J-262500D01*
G01*
X156517000Y-74557500D01*
G75*
G02*
X156254500Y-74820000I-262500J0D01*
G01*
X155629500Y-74820000D01*
G75*
G02*
X155367000Y-74557500I0J262500D01*
G01*
G37*
G36*
G01*
X153617000Y-74557500D02*
X153617000Y-74032500D01*
G75*
G02*
X153879500Y-73770000I262500J0D01*
G01*
X154504500Y-73770000D01*
G75*
G02*
X154767000Y-74032500I0J-262500D01*
G01*
X154767000Y-74557500D01*
G75*
G02*
X154504500Y-74820000I-262500J0D01*
G01*
X153879500Y-74820000D01*
G75*
G02*
X153617000Y-74557500I0J262500D01*
G01*
G37*
%TD*%
%TO.C,R504*%
G36*
G01*
X150957000Y-79493500D02*
X150957000Y-80018500D01*
G75*
G02*
X150694500Y-80281000I-262500J0D01*
G01*
X150069500Y-80281000D01*
G75*
G02*
X149807000Y-80018500I0J262500D01*
G01*
X149807000Y-79493500D01*
G75*
G02*
X150069500Y-79231000I262500J0D01*
G01*
X150694500Y-79231000D01*
G75*
G02*
X150957000Y-79493500I0J-262500D01*
G01*
G37*
G36*
G01*
X152707000Y-79493500D02*
X152707000Y-80018500D01*
G75*
G02*
X152444500Y-80281000I-262500J0D01*
G01*
X151819500Y-80281000D01*
G75*
G02*
X151557000Y-80018500I0J262500D01*
G01*
X151557000Y-79493500D01*
G75*
G02*
X151819500Y-79231000I262500J0D01*
G01*
X152444500Y-79231000D01*
G75*
G02*
X152707000Y-79493500I0J-262500D01*
G01*
G37*
%TD*%
%TO.C,R503*%
G36*
G01*
X141143000Y-73541500D02*
X141143000Y-73016500D01*
G75*
G02*
X141405500Y-72754000I262500J0D01*
G01*
X142030500Y-72754000D01*
G75*
G02*
X142293000Y-73016500I0J-262500D01*
G01*
X142293000Y-73541500D01*
G75*
G02*
X142030500Y-73804000I-262500J0D01*
G01*
X141405500Y-73804000D01*
G75*
G02*
X141143000Y-73541500I0J262500D01*
G01*
G37*
G36*
G01*
X139393000Y-73541500D02*
X139393000Y-73016500D01*
G75*
G02*
X139655500Y-72754000I262500J0D01*
G01*
X140280500Y-72754000D01*
G75*
G02*
X140543000Y-73016500I0J-262500D01*
G01*
X140543000Y-73541500D01*
G75*
G02*
X140280500Y-73804000I-262500J0D01*
G01*
X139655500Y-73804000D01*
G75*
G02*
X139393000Y-73541500I0J262500D01*
G01*
G37*
%TD*%
%TO.C,R502*%
G36*
G01*
X150957000Y-77588500D02*
X150957000Y-78113500D01*
G75*
G02*
X150694500Y-78376000I-262500J0D01*
G01*
X150069500Y-78376000D01*
G75*
G02*
X149807000Y-78113500I0J262500D01*
G01*
X149807000Y-77588500D01*
G75*
G02*
X150069500Y-77326000I262500J0D01*
G01*
X150694500Y-77326000D01*
G75*
G02*
X150957000Y-77588500I0J-262500D01*
G01*
G37*
G36*
G01*
X152707000Y-77588500D02*
X152707000Y-78113500D01*
G75*
G02*
X152444500Y-78376000I-262500J0D01*
G01*
X151819500Y-78376000D01*
G75*
G02*
X151557000Y-78113500I0J262500D01*
G01*
X151557000Y-77588500D01*
G75*
G02*
X151819500Y-77326000I262500J0D01*
G01*
X152444500Y-77326000D01*
G75*
G02*
X152707000Y-77588500I0J-262500D01*
G01*
G37*
%TD*%
%TO.C,R501*%
G36*
G01*
X140470500Y-76789000D02*
X139945500Y-76789000D01*
G75*
G02*
X139683000Y-76526500I0J262500D01*
G01*
X139683000Y-75901500D01*
G75*
G02*
X139945500Y-75639000I262500J0D01*
G01*
X140470500Y-75639000D01*
G75*
G02*
X140733000Y-75901500I0J-262500D01*
G01*
X140733000Y-76526500D01*
G75*
G02*
X140470500Y-76789000I-262500J0D01*
G01*
G37*
G36*
G01*
X140470500Y-78539000D02*
X139945500Y-78539000D01*
G75*
G02*
X139683000Y-78276500I0J262500D01*
G01*
X139683000Y-77651500D01*
G75*
G02*
X139945500Y-77389000I262500J0D01*
G01*
X140470500Y-77389000D01*
G75*
G02*
X140733000Y-77651500I0J-262500D01*
G01*
X140733000Y-78276500D01*
G75*
G02*
X140470500Y-78539000I-262500J0D01*
G01*
G37*
%TD*%
%TO.C,R412*%
G36*
G01*
X164981500Y-96065000D02*
X164456500Y-96065000D01*
G75*
G02*
X164194000Y-95802500I0J262500D01*
G01*
X164194000Y-95177500D01*
G75*
G02*
X164456500Y-94915000I262500J0D01*
G01*
X164981500Y-94915000D01*
G75*
G02*
X165244000Y-95177500I0J-262500D01*
G01*
X165244000Y-95802500D01*
G75*
G02*
X164981500Y-96065000I-262500J0D01*
G01*
G37*
G36*
G01*
X164981500Y-94315000D02*
X164456500Y-94315000D01*
G75*
G02*
X164194000Y-94052500I0J262500D01*
G01*
X164194000Y-93427500D01*
G75*
G02*
X164456500Y-93165000I262500J0D01*
G01*
X164981500Y-93165000D01*
G75*
G02*
X165244000Y-93427500I0J-262500D01*
G01*
X165244000Y-94052500D01*
G75*
G02*
X164981500Y-94315000I-262500J0D01*
G01*
G37*
%TD*%
%TO.C,R411*%
G36*
G01*
X161309000Y-99538262D02*
X161309000Y-98581738D01*
G75*
G02*
X161580738Y-98310000I271738J0D01*
G01*
X162287262Y-98310000D01*
G75*
G02*
X162559000Y-98581738I0J-271738D01*
G01*
X162559000Y-99538262D01*
G75*
G02*
X162287262Y-99810000I-271738J0D01*
G01*
X161580738Y-99810000D01*
G75*
G02*
X161309000Y-99538262I0J271738D01*
G01*
G37*
G36*
G01*
X159259000Y-99538262D02*
X159259000Y-98581738D01*
G75*
G02*
X159530738Y-98310000I271738J0D01*
G01*
X160237262Y-98310000D01*
G75*
G02*
X160509000Y-98581738I0J-271738D01*
G01*
X160509000Y-99538262D01*
G75*
G02*
X160237262Y-99810000I-271738J0D01*
G01*
X159530738Y-99810000D01*
G75*
G02*
X159259000Y-99538262I0J271738D01*
G01*
G37*
%TD*%
%TO.C,R410*%
G36*
G01*
X164981500Y-99762000D02*
X164456500Y-99762000D01*
G75*
G02*
X164194000Y-99499500I0J262500D01*
G01*
X164194000Y-98874500D01*
G75*
G02*
X164456500Y-98612000I262500J0D01*
G01*
X164981500Y-98612000D01*
G75*
G02*
X165244000Y-98874500I0J-262500D01*
G01*
X165244000Y-99499500D01*
G75*
G02*
X164981500Y-99762000I-262500J0D01*
G01*
G37*
G36*
G01*
X164981500Y-98012000D02*
X164456500Y-98012000D01*
G75*
G02*
X164194000Y-97749500I0J262500D01*
G01*
X164194000Y-97124500D01*
G75*
G02*
X164456500Y-96862000I262500J0D01*
G01*
X164981500Y-96862000D01*
G75*
G02*
X165244000Y-97124500I0J-262500D01*
G01*
X165244000Y-97749500D01*
G75*
G02*
X164981500Y-98012000I-262500J0D01*
G01*
G37*
%TD*%
%TO.C,R409*%
G36*
G01*
X162686000Y-93120738D02*
X162686000Y-94077262D01*
G75*
G02*
X162414262Y-94349000I-271738J0D01*
G01*
X161707738Y-94349000D01*
G75*
G02*
X161436000Y-94077262I0J271738D01*
G01*
X161436000Y-93120738D01*
G75*
G02*
X161707738Y-92849000I271738J0D01*
G01*
X162414262Y-92849000D01*
G75*
G02*
X162686000Y-93120738I0J-271738D01*
G01*
G37*
G36*
G01*
X160636000Y-93120738D02*
X160636000Y-94077262D01*
G75*
G02*
X160364262Y-94349000I-271738J0D01*
G01*
X159657738Y-94349000D01*
G75*
G02*
X159386000Y-94077262I0J271738D01*
G01*
X159386000Y-93120738D01*
G75*
G02*
X159657738Y-92849000I271738J0D01*
G01*
X160364262Y-92849000D01*
G75*
G02*
X160636000Y-93120738I0J-271738D01*
G01*
G37*
%TD*%
%TO.C,R408*%
G36*
G01*
X157869500Y-96065000D02*
X157344500Y-96065000D01*
G75*
G02*
X157082000Y-95802500I0J262500D01*
G01*
X157082000Y-95177500D01*
G75*
G02*
X157344500Y-94915000I262500J0D01*
G01*
X157869500Y-94915000D01*
G75*
G02*
X158132000Y-95177500I0J-262500D01*
G01*
X158132000Y-95802500D01*
G75*
G02*
X157869500Y-96065000I-262500J0D01*
G01*
G37*
G36*
G01*
X157869500Y-94315000D02*
X157344500Y-94315000D01*
G75*
G02*
X157082000Y-94052500I0J262500D01*
G01*
X157082000Y-93427500D01*
G75*
G02*
X157344500Y-93165000I262500J0D01*
G01*
X157869500Y-93165000D01*
G75*
G02*
X158132000Y-93427500I0J-262500D01*
G01*
X158132000Y-94052500D01*
G75*
G02*
X157869500Y-94315000I-262500J0D01*
G01*
G37*
%TD*%
%TO.C,R406*%
G36*
G01*
X159386000Y-91664262D02*
X159386000Y-90707738D01*
G75*
G02*
X159657738Y-90436000I271738J0D01*
G01*
X160364262Y-90436000D01*
G75*
G02*
X160636000Y-90707738I0J-271738D01*
G01*
X160636000Y-91664262D01*
G75*
G02*
X160364262Y-91936000I-271738J0D01*
G01*
X159657738Y-91936000D01*
G75*
G02*
X159386000Y-91664262I0J271738D01*
G01*
G37*
G36*
G01*
X161436000Y-91664262D02*
X161436000Y-90707738D01*
G75*
G02*
X161707738Y-90436000I271738J0D01*
G01*
X162414262Y-90436000D01*
G75*
G02*
X162686000Y-90707738I0J-271738D01*
G01*
X162686000Y-91664262D01*
G75*
G02*
X162414262Y-91936000I-271738J0D01*
G01*
X161707738Y-91936000D01*
G75*
G02*
X161436000Y-91664262I0J271738D01*
G01*
G37*
%TD*%
%TO.C,R405*%
G36*
G01*
X151138500Y-94287000D02*
X150613500Y-94287000D01*
G75*
G02*
X150351000Y-94024500I0J262500D01*
G01*
X150351000Y-93399500D01*
G75*
G02*
X150613500Y-93137000I262500J0D01*
G01*
X151138500Y-93137000D01*
G75*
G02*
X151401000Y-93399500I0J-262500D01*
G01*
X151401000Y-94024500D01*
G75*
G02*
X151138500Y-94287000I-262500J0D01*
G01*
G37*
G36*
G01*
X151138500Y-92537000D02*
X150613500Y-92537000D01*
G75*
G02*
X150351000Y-92274500I0J262500D01*
G01*
X150351000Y-91649500D01*
G75*
G02*
X150613500Y-91387000I262500J0D01*
G01*
X151138500Y-91387000D01*
G75*
G02*
X151401000Y-91649500I0J-262500D01*
G01*
X151401000Y-92274500D01*
G75*
G02*
X151138500Y-92537000I-262500J0D01*
G01*
G37*
%TD*%
%TO.C,R404*%
G36*
G01*
X150301000Y-96020500D02*
X150301000Y-95495500D01*
G75*
G02*
X150563500Y-95233000I262500J0D01*
G01*
X151188500Y-95233000D01*
G75*
G02*
X151451000Y-95495500I0J-262500D01*
G01*
X151451000Y-96020500D01*
G75*
G02*
X151188500Y-96283000I-262500J0D01*
G01*
X150563500Y-96283000D01*
G75*
G02*
X150301000Y-96020500I0J262500D01*
G01*
G37*
G36*
G01*
X152051000Y-96020500D02*
X152051000Y-95495500D01*
G75*
G02*
X152313500Y-95233000I262500J0D01*
G01*
X152938500Y-95233000D01*
G75*
G02*
X153201000Y-95495500I0J-262500D01*
G01*
X153201000Y-96020500D01*
G75*
G02*
X152938500Y-96283000I-262500J0D01*
G01*
X152313500Y-96283000D01*
G75*
G02*
X152051000Y-96020500I0J262500D01*
G01*
G37*
%TD*%
%TO.C,R403*%
G36*
G01*
X151138500Y-100002000D02*
X150613500Y-100002000D01*
G75*
G02*
X150351000Y-99739500I0J262500D01*
G01*
X150351000Y-99114500D01*
G75*
G02*
X150613500Y-98852000I262500J0D01*
G01*
X151138500Y-98852000D01*
G75*
G02*
X151401000Y-99114500I0J-262500D01*
G01*
X151401000Y-99739500D01*
G75*
G02*
X151138500Y-100002000I-262500J0D01*
G01*
G37*
G36*
G01*
X151138500Y-98252000D02*
X150613500Y-98252000D01*
G75*
G02*
X150351000Y-97989500I0J262500D01*
G01*
X150351000Y-97364500D01*
G75*
G02*
X150613500Y-97102000I262500J0D01*
G01*
X151138500Y-97102000D01*
G75*
G02*
X151401000Y-97364500I0J-262500D01*
G01*
X151401000Y-97989500D01*
G75*
G02*
X151138500Y-98252000I-262500J0D01*
G01*
G37*
%TD*%
%TO.C,R402*%
G36*
G01*
X149233500Y-94414000D02*
X148708500Y-94414000D01*
G75*
G02*
X148446000Y-94151500I0J262500D01*
G01*
X148446000Y-93526500D01*
G75*
G02*
X148708500Y-93264000I262500J0D01*
G01*
X149233500Y-93264000D01*
G75*
G02*
X149496000Y-93526500I0J-262500D01*
G01*
X149496000Y-94151500D01*
G75*
G02*
X149233500Y-94414000I-262500J0D01*
G01*
G37*
G36*
G01*
X149233500Y-92664000D02*
X148708500Y-92664000D01*
G75*
G02*
X148446000Y-92401500I0J262500D01*
G01*
X148446000Y-91776500D01*
G75*
G02*
X148708500Y-91514000I262500J0D01*
G01*
X149233500Y-91514000D01*
G75*
G02*
X149496000Y-91776500I0J-262500D01*
G01*
X149496000Y-92401500D01*
G75*
G02*
X149233500Y-92664000I-262500J0D01*
G01*
G37*
%TD*%
%TO.C,R401*%
G36*
G01*
X147328500Y-92128000D02*
X146803500Y-92128000D01*
G75*
G02*
X146541000Y-91865500I0J262500D01*
G01*
X146541000Y-91240500D01*
G75*
G02*
X146803500Y-90978000I262500J0D01*
G01*
X147328500Y-90978000D01*
G75*
G02*
X147591000Y-91240500I0J-262500D01*
G01*
X147591000Y-91865500D01*
G75*
G02*
X147328500Y-92128000I-262500J0D01*
G01*
G37*
G36*
G01*
X147328500Y-90378000D02*
X146803500Y-90378000D01*
G75*
G02*
X146541000Y-90115500I0J262500D01*
G01*
X146541000Y-89490500D01*
G75*
G02*
X146803500Y-89228000I262500J0D01*
G01*
X147328500Y-89228000D01*
G75*
G02*
X147591000Y-89490500I0J-262500D01*
G01*
X147591000Y-90115500D01*
G75*
G02*
X147328500Y-90378000I-262500J0D01*
G01*
G37*
%TD*%
%TO.C,R306*%
G36*
G01*
X158951000Y-88527500D02*
X158951000Y-88002500D01*
G75*
G02*
X159213500Y-87740000I262500J0D01*
G01*
X159838500Y-87740000D01*
G75*
G02*
X160101000Y-88002500I0J-262500D01*
G01*
X160101000Y-88527500D01*
G75*
G02*
X159838500Y-88790000I-262500J0D01*
G01*
X159213500Y-88790000D01*
G75*
G02*
X158951000Y-88527500I0J262500D01*
G01*
G37*
G36*
G01*
X160701000Y-88527500D02*
X160701000Y-88002500D01*
G75*
G02*
X160963500Y-87740000I262500J0D01*
G01*
X161588500Y-87740000D01*
G75*
G02*
X161851000Y-88002500I0J-262500D01*
G01*
X161851000Y-88527500D01*
G75*
G02*
X161588500Y-88790000I-262500J0D01*
G01*
X160963500Y-88790000D01*
G75*
G02*
X160701000Y-88527500I0J262500D01*
G01*
G37*
%TD*%
%TO.C,R305*%
G36*
G01*
X155141000Y-88527500D02*
X155141000Y-88002500D01*
G75*
G02*
X155403500Y-87740000I262500J0D01*
G01*
X156028500Y-87740000D01*
G75*
G02*
X156291000Y-88002500I0J-262500D01*
G01*
X156291000Y-88527500D01*
G75*
G02*
X156028500Y-88790000I-262500J0D01*
G01*
X155403500Y-88790000D01*
G75*
G02*
X155141000Y-88527500I0J262500D01*
G01*
G37*
G36*
G01*
X156891000Y-88527500D02*
X156891000Y-88002500D01*
G75*
G02*
X157153500Y-87740000I262500J0D01*
G01*
X157778500Y-87740000D01*
G75*
G02*
X158041000Y-88002500I0J-262500D01*
G01*
X158041000Y-88527500D01*
G75*
G02*
X157778500Y-88790000I-262500J0D01*
G01*
X157153500Y-88790000D01*
G75*
G02*
X156891000Y-88527500I0J262500D01*
G01*
G37*
%TD*%
%TO.C,R303*%
G36*
G01*
X161291000Y-83790262D02*
X161291000Y-82833738D01*
G75*
G02*
X161562738Y-82562000I271738J0D01*
G01*
X162269262Y-82562000D01*
G75*
G02*
X162541000Y-82833738I0J-271738D01*
G01*
X162541000Y-83790262D01*
G75*
G02*
X162269262Y-84062000I-271738J0D01*
G01*
X161562738Y-84062000D01*
G75*
G02*
X161291000Y-83790262I0J271738D01*
G01*
G37*
G36*
G01*
X163341000Y-83790262D02*
X163341000Y-82833738D01*
G75*
G02*
X163612738Y-82562000I271738J0D01*
G01*
X164319262Y-82562000D01*
G75*
G02*
X164591000Y-82833738I0J-271738D01*
G01*
X164591000Y-83790262D01*
G75*
G02*
X164319262Y-84062000I-271738J0D01*
G01*
X163612738Y-84062000D01*
G75*
G02*
X163341000Y-83790262I0J271738D01*
G01*
G37*
%TD*%
%TO.C,R304*%
G36*
G01*
X156411000Y-78621500D02*
X156411000Y-78096500D01*
G75*
G02*
X156673500Y-77834000I262500J0D01*
G01*
X157298500Y-77834000D01*
G75*
G02*
X157561000Y-78096500I0J-262500D01*
G01*
X157561000Y-78621500D01*
G75*
G02*
X157298500Y-78884000I-262500J0D01*
G01*
X156673500Y-78884000D01*
G75*
G02*
X156411000Y-78621500I0J262500D01*
G01*
G37*
G36*
G01*
X158161000Y-78621500D02*
X158161000Y-78096500D01*
G75*
G02*
X158423500Y-77834000I262500J0D01*
G01*
X159048500Y-77834000D01*
G75*
G02*
X159311000Y-78096500I0J-262500D01*
G01*
X159311000Y-78621500D01*
G75*
G02*
X159048500Y-78884000I-262500J0D01*
G01*
X158423500Y-78884000D01*
G75*
G02*
X158161000Y-78621500I0J262500D01*
G01*
G37*
%TD*%
%TO.C,R302*%
G36*
G01*
X162655000Y-85208500D02*
X162655000Y-85733500D01*
G75*
G02*
X162392500Y-85996000I-262500J0D01*
G01*
X161767500Y-85996000D01*
G75*
G02*
X161505000Y-85733500I0J262500D01*
G01*
X161505000Y-85208500D01*
G75*
G02*
X161767500Y-84946000I262500J0D01*
G01*
X162392500Y-84946000D01*
G75*
G02*
X162655000Y-85208500I0J-262500D01*
G01*
G37*
G36*
G01*
X164405000Y-85208500D02*
X164405000Y-85733500D01*
G75*
G02*
X164142500Y-85996000I-262500J0D01*
G01*
X163517500Y-85996000D01*
G75*
G02*
X163255000Y-85733500I0J262500D01*
G01*
X163255000Y-85208500D01*
G75*
G02*
X163517500Y-84946000I262500J0D01*
G01*
X164142500Y-84946000D01*
G75*
G02*
X164405000Y-85208500I0J-262500D01*
G01*
G37*
%TD*%
%TO.C,R301*%
G36*
G01*
X162641000Y-80890500D02*
X162641000Y-81415500D01*
G75*
G02*
X162378500Y-81678000I-262500J0D01*
G01*
X161753500Y-81678000D01*
G75*
G02*
X161491000Y-81415500I0J262500D01*
G01*
X161491000Y-80890500D01*
G75*
G02*
X161753500Y-80628000I262500J0D01*
G01*
X162378500Y-80628000D01*
G75*
G02*
X162641000Y-80890500I0J-262500D01*
G01*
G37*
G36*
G01*
X164391000Y-80890500D02*
X164391000Y-81415500D01*
G75*
G02*
X164128500Y-81678000I-262500J0D01*
G01*
X163503500Y-81678000D01*
G75*
G02*
X163241000Y-81415500I0J262500D01*
G01*
X163241000Y-80890500D01*
G75*
G02*
X163503500Y-80628000I262500J0D01*
G01*
X164128500Y-80628000D01*
G75*
G02*
X164391000Y-80890500I0J-262500D01*
G01*
G37*
%TD*%
%TO.C,R208*%
G36*
G01*
X111425000Y-85860500D02*
X111425000Y-85335500D01*
G75*
G02*
X111687500Y-85073000I262500J0D01*
G01*
X112312500Y-85073000D01*
G75*
G02*
X112575000Y-85335500I0J-262500D01*
G01*
X112575000Y-85860500D01*
G75*
G02*
X112312500Y-86123000I-262500J0D01*
G01*
X111687500Y-86123000D01*
G75*
G02*
X111425000Y-85860500I0J262500D01*
G01*
G37*
G36*
G01*
X109675000Y-85860500D02*
X109675000Y-85335500D01*
G75*
G02*
X109937500Y-85073000I262500J0D01*
G01*
X110562500Y-85073000D01*
G75*
G02*
X110825000Y-85335500I0J-262500D01*
G01*
X110825000Y-85860500D01*
G75*
G02*
X110562500Y-86123000I-262500J0D01*
G01*
X109937500Y-86123000D01*
G75*
G02*
X109675000Y-85860500I0J262500D01*
G01*
G37*
%TD*%
%TO.C,R207*%
G36*
G01*
X115397000Y-82668500D02*
X115397000Y-83193500D01*
G75*
G02*
X115134500Y-83456000I-262500J0D01*
G01*
X114509500Y-83456000D01*
G75*
G02*
X114247000Y-83193500I0J262500D01*
G01*
X114247000Y-82668500D01*
G75*
G02*
X114509500Y-82406000I262500J0D01*
G01*
X115134500Y-82406000D01*
G75*
G02*
X115397000Y-82668500I0J-262500D01*
G01*
G37*
G36*
G01*
X117147000Y-82668500D02*
X117147000Y-83193500D01*
G75*
G02*
X116884500Y-83456000I-262500J0D01*
G01*
X116259500Y-83456000D01*
G75*
G02*
X115997000Y-83193500I0J262500D01*
G01*
X115997000Y-82668500D01*
G75*
G02*
X116259500Y-82406000I262500J0D01*
G01*
X116884500Y-82406000D01*
G75*
G02*
X117147000Y-82668500I0J-262500D01*
G01*
G37*
%TD*%
%TO.C,R206*%
G36*
G01*
X123181500Y-90470000D02*
X123706500Y-90470000D01*
G75*
G02*
X123969000Y-90732500I0J-262500D01*
G01*
X123969000Y-91357500D01*
G75*
G02*
X123706500Y-91620000I-262500J0D01*
G01*
X123181500Y-91620000D01*
G75*
G02*
X122919000Y-91357500I0J262500D01*
G01*
X122919000Y-90732500D01*
G75*
G02*
X123181500Y-90470000I262500J0D01*
G01*
G37*
G36*
G01*
X123181500Y-88720000D02*
X123706500Y-88720000D01*
G75*
G02*
X123969000Y-88982500I0J-262500D01*
G01*
X123969000Y-89607500D01*
G75*
G02*
X123706500Y-89870000I-262500J0D01*
G01*
X123181500Y-89870000D01*
G75*
G02*
X122919000Y-89607500I0J262500D01*
G01*
X122919000Y-88982500D01*
G75*
G02*
X123181500Y-88720000I262500J0D01*
G01*
G37*
%TD*%
%TO.C,R205*%
G36*
G01*
X115997000Y-88527500D02*
X115997000Y-88002500D01*
G75*
G02*
X116259500Y-87740000I262500J0D01*
G01*
X116884500Y-87740000D01*
G75*
G02*
X117147000Y-88002500I0J-262500D01*
G01*
X117147000Y-88527500D01*
G75*
G02*
X116884500Y-88790000I-262500J0D01*
G01*
X116259500Y-88790000D01*
G75*
G02*
X115997000Y-88527500I0J262500D01*
G01*
G37*
G36*
G01*
X114247000Y-88527500D02*
X114247000Y-88002500D01*
G75*
G02*
X114509500Y-87740000I262500J0D01*
G01*
X115134500Y-87740000D01*
G75*
G02*
X115397000Y-88002500I0J-262500D01*
G01*
X115397000Y-88527500D01*
G75*
G02*
X115134500Y-88790000I-262500J0D01*
G01*
X114509500Y-88790000D01*
G75*
G02*
X114247000Y-88527500I0J262500D01*
G01*
G37*
%TD*%
%TO.C,R204*%
G36*
G01*
X124007000Y-75611000D02*
X124532000Y-75611000D01*
G75*
G02*
X124794500Y-75873500I0J-262500D01*
G01*
X124794500Y-76498500D01*
G75*
G02*
X124532000Y-76761000I-262500J0D01*
G01*
X124007000Y-76761000D01*
G75*
G02*
X123744500Y-76498500I0J262500D01*
G01*
X123744500Y-75873500D01*
G75*
G02*
X124007000Y-75611000I262500J0D01*
G01*
G37*
G36*
G01*
X124007000Y-73861000D02*
X124532000Y-73861000D01*
G75*
G02*
X124794500Y-74123500I0J-262500D01*
G01*
X124794500Y-74748500D01*
G75*
G02*
X124532000Y-75011000I-262500J0D01*
G01*
X124007000Y-75011000D01*
G75*
G02*
X123744500Y-74748500I0J262500D01*
G01*
X123744500Y-74123500D01*
G75*
G02*
X124007000Y-73861000I262500J0D01*
G01*
G37*
%TD*%
%TO.C,R203*%
G36*
G01*
X133163000Y-77017000D02*
X133163000Y-77542000D01*
G75*
G02*
X132900500Y-77804500I-262500J0D01*
G01*
X132275500Y-77804500D01*
G75*
G02*
X132013000Y-77542000I0J262500D01*
G01*
X132013000Y-77017000D01*
G75*
G02*
X132275500Y-76754500I262500J0D01*
G01*
X132900500Y-76754500D01*
G75*
G02*
X133163000Y-77017000I0J-262500D01*
G01*
G37*
G36*
G01*
X134913000Y-77017000D02*
X134913000Y-77542000D01*
G75*
G02*
X134650500Y-77804500I-262500J0D01*
G01*
X134025500Y-77804500D01*
G75*
G02*
X133763000Y-77542000I0J262500D01*
G01*
X133763000Y-77017000D01*
G75*
G02*
X134025500Y-76754500I262500J0D01*
G01*
X134650500Y-76754500D01*
G75*
G02*
X134913000Y-77017000I0J-262500D01*
G01*
G37*
%TD*%
%TO.C,R202*%
G36*
G01*
X122038500Y-75611000D02*
X122563500Y-75611000D01*
G75*
G02*
X122826000Y-75873500I0J-262500D01*
G01*
X122826000Y-76498500D01*
G75*
G02*
X122563500Y-76761000I-262500J0D01*
G01*
X122038500Y-76761000D01*
G75*
G02*
X121776000Y-76498500I0J262500D01*
G01*
X121776000Y-75873500D01*
G75*
G02*
X122038500Y-75611000I262500J0D01*
G01*
G37*
G36*
G01*
X122038500Y-73861000D02*
X122563500Y-73861000D01*
G75*
G02*
X122826000Y-74123500I0J-262500D01*
G01*
X122826000Y-74748500D01*
G75*
G02*
X122563500Y-75011000I-262500J0D01*
G01*
X122038500Y-75011000D01*
G75*
G02*
X121776000Y-74748500I0J262500D01*
G01*
X121776000Y-74123500D01*
G75*
G02*
X122038500Y-73861000I262500J0D01*
G01*
G37*
%TD*%
%TO.C,R201*%
G36*
G01*
X133177000Y-75048500D02*
X133177000Y-75573500D01*
G75*
G02*
X132914500Y-75836000I-262500J0D01*
G01*
X132289500Y-75836000D01*
G75*
G02*
X132027000Y-75573500I0J262500D01*
G01*
X132027000Y-75048500D01*
G75*
G02*
X132289500Y-74786000I262500J0D01*
G01*
X132914500Y-74786000D01*
G75*
G02*
X133177000Y-75048500I0J-262500D01*
G01*
G37*
G36*
G01*
X134927000Y-75048500D02*
X134927000Y-75573500D01*
G75*
G02*
X134664500Y-75836000I-262500J0D01*
G01*
X134039500Y-75836000D01*
G75*
G02*
X133777000Y-75573500I0J262500D01*
G01*
X133777000Y-75048500D01*
G75*
G02*
X134039500Y-74786000I262500J0D01*
G01*
X134664500Y-74786000D01*
G75*
G02*
X134927000Y-75048500I0J-262500D01*
G01*
G37*
%TD*%
%TO.C,R101*%
G36*
G01*
X178770000Y-67682500D02*
X178770000Y-68207500D01*
G75*
G02*
X178507500Y-68470000I-262500J0D01*
G01*
X177882500Y-68470000D01*
G75*
G02*
X177620000Y-68207500I0J262500D01*
G01*
X177620000Y-67682500D01*
G75*
G02*
X177882500Y-67420000I262500J0D01*
G01*
X178507500Y-67420000D01*
G75*
G02*
X178770000Y-67682500I0J-262500D01*
G01*
G37*
G36*
G01*
X180520000Y-67682500D02*
X180520000Y-68207500D01*
G75*
G02*
X180257500Y-68470000I-262500J0D01*
G01*
X179632500Y-68470000D01*
G75*
G02*
X179370000Y-68207500I0J262500D01*
G01*
X179370000Y-67682500D01*
G75*
G02*
X179632500Y-67420000I262500J0D01*
G01*
X180257500Y-67420000D01*
G75*
G02*
X180520000Y-67682500I0J-262500D01*
G01*
G37*
%TD*%
D26*
%TO.C,Q802*%
X151704000Y-113387000D03*
X153604000Y-113387000D03*
X152654000Y-110387000D03*
%TD*%
D27*
%TO.C,PS101*%
X153479500Y-117792500D03*
X148399500Y-117792500D03*
G36*
G01*
X141433100Y-118742500D02*
X140125900Y-118742500D01*
G75*
G02*
X139829500Y-118446100I0J296400D01*
G01*
X139829500Y-117138900D01*
G75*
G02*
X140125900Y-116842500I296400J0D01*
G01*
X141433100Y-116842500D01*
G75*
G02*
X141729500Y-117138900I0J-296400D01*
G01*
X141729500Y-118446100D01*
G75*
G02*
X141433100Y-118742500I-296400J0D01*
G01*
G37*
X143319500Y-117792500D03*
%TD*%
D28*
%TO.C,J702*%
X179810400Y-82145500D03*
X179810400Y-87145500D03*
X179810400Y-89645500D03*
X179810400Y-79645500D03*
X184810400Y-84645500D03*
D29*
X184810400Y-89645500D03*
X187310400Y-89645500D03*
X179810400Y-84645500D03*
X184810400Y-79645500D03*
X187310400Y-79645500D03*
%TD*%
D14*
%TO.C,J102*%
X121390800Y-62529400D03*
X123930800Y-62529400D03*
X121390800Y-59989400D03*
X123930800Y-59989400D03*
X121390800Y-57449400D03*
X123930800Y-57449400D03*
X121390800Y-54909400D03*
X123930800Y-54909400D03*
X121390800Y-52369400D03*
D15*
X123930800Y-52369400D03*
%TD*%
D14*
%TO.C,J101*%
X165390800Y-62529400D03*
X167930800Y-62529400D03*
X165390800Y-59989400D03*
X167930800Y-59989400D03*
X165390800Y-57449400D03*
X167930800Y-57449400D03*
X165390800Y-54909400D03*
X167930800Y-54909400D03*
X165390800Y-52369400D03*
D15*
X167930800Y-52369400D03*
%TD*%
D30*
%TO.C,D702*%
X181737000Y-110618000D03*
X181737000Y-113918000D03*
%TD*%
D31*
%TO.C,D701*%
X116458000Y-117729000D03*
X113158000Y-117729000D03*
%TD*%
%TO.C,D604*%
X118363000Y-63627000D03*
X115063000Y-63627000D03*
%TD*%
%TO.C,D603*%
X118363000Y-66294000D03*
X115063000Y-66294000D03*
%TD*%
D30*
%TO.C,D602*%
X109474000Y-74804000D03*
X109474000Y-78104000D03*
%TD*%
%TO.C,D601*%
X112268000Y-78104000D03*
X112268000Y-74804000D03*
%TD*%
%TO.C,D501*%
X163957000Y-71629000D03*
X163957000Y-74929000D03*
%TD*%
%TO.C,D302*%
X183134000Y-99567000D03*
X183134000Y-96267000D03*
%TD*%
D31*
%TO.C,D301*%
X164591000Y-77724000D03*
X161291000Y-77724000D03*
%TD*%
D32*
%TO.C,D101*%
X177248000Y-64760000D03*
G36*
G01*
X181898000Y-63820000D02*
X181898000Y-65700000D01*
G75*
G02*
X181688000Y-65910000I-210000J0D01*
G01*
X180008000Y-65910000D01*
G75*
G02*
X179798000Y-65700000I0J210000D01*
G01*
X179798000Y-63820000D01*
G75*
G02*
X180008000Y-63610000I210000J0D01*
G01*
X181688000Y-63610000D01*
G75*
G02*
X181898000Y-63820000I0J-210000D01*
G01*
G37*
%TD*%
%TO.C,C106*%
G36*
G01*
X161467625Y-120792000D02*
X162636375Y-120792000D01*
G75*
G02*
X162902000Y-121057625I0J-265625D01*
G01*
X162902000Y-123626375D01*
G75*
G02*
X162636375Y-123892000I-265625J0D01*
G01*
X161467625Y-123892000D01*
G75*
G02*
X161202000Y-123626375I0J265625D01*
G01*
X161202000Y-121057625D01*
G75*
G02*
X161467625Y-120792000I265625J0D01*
G01*
G37*
G36*
G01*
X161467625Y-116392000D02*
X162636375Y-116392000D01*
G75*
G02*
X162902000Y-116657625I0J-265625D01*
G01*
X162902000Y-119226375D01*
G75*
G02*
X162636375Y-119492000I-265625J0D01*
G01*
X161467625Y-119492000D01*
G75*
G02*
X161202000Y-119226375I0J265625D01*
G01*
X161202000Y-116657625D01*
G75*
G02*
X161467625Y-116392000I265625J0D01*
G01*
G37*
%TD*%
%TO.C,C103*%
G36*
G01*
X142318500Y-110820375D02*
X142318500Y-109651625D01*
G75*
G02*
X142584125Y-109386000I265625J0D01*
G01*
X145152875Y-109386000D01*
G75*
G02*
X145418500Y-109651625I0J-265625D01*
G01*
X145418500Y-110820375D01*
G75*
G02*
X145152875Y-111086000I-265625J0D01*
G01*
X142584125Y-111086000D01*
G75*
G02*
X142318500Y-110820375I0J265625D01*
G01*
G37*
G36*
G01*
X137918500Y-110820375D02*
X137918500Y-109651625D01*
G75*
G02*
X138184125Y-109386000I265625J0D01*
G01*
X140752875Y-109386000D01*
G75*
G02*
X141018500Y-109651625I0J-265625D01*
G01*
X141018500Y-110820375D01*
G75*
G02*
X140752875Y-111086000I-265625J0D01*
G01*
X138184125Y-111086000D01*
G75*
G02*
X137918500Y-110820375I0J265625D01*
G01*
G37*
%TD*%
M02*
