%TF.GenerationSoftware,KiCad,Pcbnew,(5.1.6-0-10_14)*%
%TF.CreationDate,2020-11-20T20:27:55-06:00*%
%TF.ProjectId,Breadboard_DMM,42726561-6462-46f6-9172-645f444d4d2e,rev?*%
%TF.SameCoordinates,Original*%
%TF.FileFunction,Copper,L4,Bot*%
%TF.FilePolarity,Positive*%
%FSLAX46Y46*%
G04 Gerber Fmt 4.6, Leading zero omitted, Abs format (unit mm)*
G04 Created by KiCad (PCBNEW (5.1.6-0-10_14)) date 2020-11-20 20:27:55*
%MOMM*%
%LPD*%
G01*
G04 APERTURE LIST*
%TA.AperFunction,EtchedComponent*%
%ADD10C,0.010000*%
%TD*%
%TA.AperFunction,ComponentPad*%
%ADD11C,5.700000*%
%TD*%
%TA.AperFunction,ComponentPad*%
%ADD12C,1.700000*%
%TD*%
%TA.AperFunction,ComponentPad*%
%ADD13C,1.500000*%
%TD*%
%TA.AperFunction,ComponentPad*%
%ADD14O,1.700000X1.700000*%
%TD*%
%TA.AperFunction,ComponentPad*%
%ADD15R,1.700000X1.700000*%
%TD*%
%TA.AperFunction,ComponentPad*%
%ADD16C,1.850000*%
%TD*%
%TA.AperFunction,ComponentPad*%
%ADD17C,2.800000*%
%TD*%
%TA.AperFunction,ComponentPad*%
%ADD18C,1.800000*%
%TD*%
%TA.AperFunction,ComponentPad*%
%ADD19O,2.400000X1.600000*%
%TD*%
%TA.AperFunction,ViaPad*%
%ADD20C,0.800000*%
%TD*%
%TA.AperFunction,Conductor*%
%ADD21C,0.355600*%
%TD*%
%TA.AperFunction,Conductor*%
%ADD22C,0.812800*%
%TD*%
%TA.AperFunction,Conductor*%
%ADD23C,0.406400*%
%TD*%
%TA.AperFunction,Conductor*%
%ADD24C,0.609600*%
%TD*%
%TA.AperFunction,Conductor*%
%ADD25C,1.625600*%
%TD*%
%TA.AperFunction,Conductor*%
%ADD26C,0.304800*%
%TD*%
%TA.AperFunction,Conductor*%
%ADD27C,0.254000*%
%TD*%
G04 APERTURE END LIST*
D10*
%TO.C,G\u002A\u002A\u002A*%
G36*
X113473198Y-128031663D02*
G01*
X112970863Y-128205926D01*
X112457108Y-128481890D01*
X111936151Y-128857662D01*
X111412212Y-129331346D01*
X110889511Y-129901045D01*
X110856014Y-129940953D01*
X110678918Y-130155054D01*
X110531421Y-130337203D01*
X110426984Y-130470485D01*
X110379073Y-130537983D01*
X110377454Y-130542221D01*
X110423083Y-130581853D01*
X110534877Y-130640504D01*
X110549740Y-130647189D01*
X110686761Y-130741750D01*
X110827730Y-130889458D01*
X110874296Y-130953179D01*
X110948115Y-131075924D01*
X110993348Y-131193224D01*
X111016829Y-131338446D01*
X111025394Y-131544959D01*
X111026223Y-131694878D01*
X111022556Y-131951854D01*
X111005432Y-132138167D01*
X110965661Y-132295958D01*
X110894056Y-132467373D01*
X110828706Y-132600845D01*
X110566493Y-133026057D01*
X110250060Y-133374546D01*
X109891677Y-133637502D01*
X109503613Y-133806115D01*
X109098138Y-133871577D01*
X109058164Y-133872111D01*
X108691782Y-133872111D01*
X108622458Y-134196667D01*
X108573171Y-134531950D01*
X108552276Y-134914797D01*
X108559162Y-135305180D01*
X108593218Y-135663070D01*
X108648936Y-135932333D01*
X108854978Y-136431875D01*
X109166062Y-136899337D01*
X109577699Y-137329971D01*
X110085398Y-137719026D01*
X110640784Y-138039847D01*
X110817810Y-138119077D01*
X111045478Y-138207276D01*
X111293021Y-138294159D01*
X111529673Y-138369443D01*
X111724667Y-138422844D01*
X111847235Y-138444076D01*
X111850221Y-138444111D01*
X111871258Y-138392404D01*
X111893442Y-138255958D01*
X111912381Y-138062789D01*
X111914382Y-138034889D01*
X111998765Y-137513364D01*
X112182240Y-137016948D01*
X112445075Y-136565158D01*
X112824382Y-136097734D01*
X113263934Y-135723137D01*
X113679111Y-135478077D01*
X114147650Y-135289997D01*
X114581741Y-135203679D01*
X114977396Y-135218790D01*
X115330622Y-135334997D01*
X115637430Y-135551966D01*
X115731021Y-135649267D01*
X115909575Y-135852629D01*
X115971333Y-135694925D01*
X116055327Y-135442104D01*
X116145505Y-135105340D01*
X116235807Y-134712914D01*
X116320170Y-134293106D01*
X116392534Y-133874198D01*
X116446836Y-133484468D01*
X116448900Y-133466848D01*
X116487887Y-133026760D01*
X116500222Y-132759146D01*
X115625205Y-132759146D01*
X115592264Y-133122164D01*
X115497897Y-133429143D01*
X115352558Y-133670471D01*
X115166701Y-133836534D01*
X114950778Y-133917719D01*
X114715243Y-133904412D01*
X114491792Y-133801497D01*
X114273453Y-133593233D01*
X114113357Y-133311388D01*
X114016870Y-132982116D01*
X113989354Y-132631575D01*
X114036174Y-132285920D01*
X114129228Y-132033547D01*
X114301355Y-131777094D01*
X114502277Y-131619225D01*
X114719019Y-131553647D01*
X114938607Y-131574065D01*
X115148066Y-131674189D01*
X115334421Y-131847723D01*
X115484698Y-132088375D01*
X115585921Y-132389851D01*
X115625117Y-132745859D01*
X115625205Y-132759146D01*
X116500222Y-132759146D01*
X116510167Y-132543386D01*
X116516218Y-132043036D01*
X116506519Y-131552021D01*
X116481549Y-131096650D01*
X116441785Y-130703235D01*
X116393546Y-130423001D01*
X116209099Y-129782757D01*
X115967847Y-129234217D01*
X115921413Y-129163039D01*
X113305537Y-129163039D01*
X113293718Y-129341402D01*
X113190346Y-129537023D01*
X113120311Y-129616200D01*
X112938225Y-129748727D01*
X112744089Y-129811121D01*
X112569388Y-129797307D01*
X112476845Y-129740378D01*
X112426450Y-129627355D01*
X112411237Y-129457461D01*
X112432084Y-129281375D01*
X112467229Y-129184096D01*
X112557981Y-129081249D01*
X112690204Y-128990251D01*
X112918137Y-128915541D01*
X113105101Y-128931705D01*
X113238449Y-129020339D01*
X113305537Y-129163039D01*
X115921413Y-129163039D01*
X115671276Y-128779610D01*
X115320872Y-128421162D01*
X114918120Y-128161101D01*
X114869482Y-128138046D01*
X114426727Y-127995828D01*
X113959892Y-127960999D01*
X113473198Y-128031663D01*
G37*
X113473198Y-128031663D02*
X112970863Y-128205926D01*
X112457108Y-128481890D01*
X111936151Y-128857662D01*
X111412212Y-129331346D01*
X110889511Y-129901045D01*
X110856014Y-129940953D01*
X110678918Y-130155054D01*
X110531421Y-130337203D01*
X110426984Y-130470485D01*
X110379073Y-130537983D01*
X110377454Y-130542221D01*
X110423083Y-130581853D01*
X110534877Y-130640504D01*
X110549740Y-130647189D01*
X110686761Y-130741750D01*
X110827730Y-130889458D01*
X110874296Y-130953179D01*
X110948115Y-131075924D01*
X110993348Y-131193224D01*
X111016829Y-131338446D01*
X111025394Y-131544959D01*
X111026223Y-131694878D01*
X111022556Y-131951854D01*
X111005432Y-132138167D01*
X110965661Y-132295958D01*
X110894056Y-132467373D01*
X110828706Y-132600845D01*
X110566493Y-133026057D01*
X110250060Y-133374546D01*
X109891677Y-133637502D01*
X109503613Y-133806115D01*
X109098138Y-133871577D01*
X109058164Y-133872111D01*
X108691782Y-133872111D01*
X108622458Y-134196667D01*
X108573171Y-134531950D01*
X108552276Y-134914797D01*
X108559162Y-135305180D01*
X108593218Y-135663070D01*
X108648936Y-135932333D01*
X108854978Y-136431875D01*
X109166062Y-136899337D01*
X109577699Y-137329971D01*
X110085398Y-137719026D01*
X110640784Y-138039847D01*
X110817810Y-138119077D01*
X111045478Y-138207276D01*
X111293021Y-138294159D01*
X111529673Y-138369443D01*
X111724667Y-138422844D01*
X111847235Y-138444076D01*
X111850221Y-138444111D01*
X111871258Y-138392404D01*
X111893442Y-138255958D01*
X111912381Y-138062789D01*
X111914382Y-138034889D01*
X111998765Y-137513364D01*
X112182240Y-137016948D01*
X112445075Y-136565158D01*
X112824382Y-136097734D01*
X113263934Y-135723137D01*
X113679111Y-135478077D01*
X114147650Y-135289997D01*
X114581741Y-135203679D01*
X114977396Y-135218790D01*
X115330622Y-135334997D01*
X115637430Y-135551966D01*
X115731021Y-135649267D01*
X115909575Y-135852629D01*
X115971333Y-135694925D01*
X116055327Y-135442104D01*
X116145505Y-135105340D01*
X116235807Y-134712914D01*
X116320170Y-134293106D01*
X116392534Y-133874198D01*
X116446836Y-133484468D01*
X116448900Y-133466848D01*
X116487887Y-133026760D01*
X116500222Y-132759146D01*
X115625205Y-132759146D01*
X115592264Y-133122164D01*
X115497897Y-133429143D01*
X115352558Y-133670471D01*
X115166701Y-133836534D01*
X114950778Y-133917719D01*
X114715243Y-133904412D01*
X114491792Y-133801497D01*
X114273453Y-133593233D01*
X114113357Y-133311388D01*
X114016870Y-132982116D01*
X113989354Y-132631575D01*
X114036174Y-132285920D01*
X114129228Y-132033547D01*
X114301355Y-131777094D01*
X114502277Y-131619225D01*
X114719019Y-131553647D01*
X114938607Y-131574065D01*
X115148066Y-131674189D01*
X115334421Y-131847723D01*
X115484698Y-132088375D01*
X115585921Y-132389851D01*
X115625117Y-132745859D01*
X115625205Y-132759146D01*
X116500222Y-132759146D01*
X116510167Y-132543386D01*
X116516218Y-132043036D01*
X116506519Y-131552021D01*
X116481549Y-131096650D01*
X116441785Y-130703235D01*
X116393546Y-130423001D01*
X116209099Y-129782757D01*
X115967847Y-129234217D01*
X115921413Y-129163039D01*
X113305537Y-129163039D01*
X113293718Y-129341402D01*
X113190346Y-129537023D01*
X113120311Y-129616200D01*
X112938225Y-129748727D01*
X112744089Y-129811121D01*
X112569388Y-129797307D01*
X112476845Y-129740378D01*
X112426450Y-129627355D01*
X112411237Y-129457461D01*
X112432084Y-129281375D01*
X112467229Y-129184096D01*
X112557981Y-129081249D01*
X112690204Y-128990251D01*
X112918137Y-128915541D01*
X113105101Y-128931705D01*
X113238449Y-129020339D01*
X113305537Y-129163039D01*
X115921413Y-129163039D01*
X115671276Y-128779610D01*
X115320872Y-128421162D01*
X114918120Y-128161101D01*
X114869482Y-128138046D01*
X114426727Y-127995828D01*
X113959892Y-127960999D01*
X113473198Y-128031663D01*
G36*
X116252465Y-135861016D02*
G01*
X116197375Y-135992465D01*
X116121931Y-136173613D01*
X116113870Y-136193018D01*
X115819771Y-136796083D01*
X115470937Y-137328079D01*
X115076375Y-137778271D01*
X114645091Y-138135924D01*
X114323382Y-138326869D01*
X114002945Y-138473400D01*
X113705065Y-138574258D01*
X113398186Y-138635224D01*
X113050751Y-138662080D01*
X112631204Y-138660608D01*
X112522000Y-138656901D01*
X112187588Y-138639994D01*
X111926211Y-138614150D01*
X111698038Y-138572733D01*
X111463239Y-138509107D01*
X111280223Y-138450024D01*
X110612073Y-138174066D01*
X110011235Y-137813718D01*
X109458583Y-137357199D01*
X109376225Y-137277290D01*
X109175195Y-137082491D01*
X109047961Y-136970559D01*
X108993658Y-136942702D01*
X109011426Y-137000130D01*
X109100400Y-137144050D01*
X109259718Y-137375673D01*
X109282735Y-137408304D01*
X109640360Y-137817896D01*
X110091543Y-138170028D01*
X110631099Y-138461956D01*
X111253844Y-138690935D01*
X111954592Y-138854222D01*
X112042223Y-138869035D01*
X112286488Y-138897473D01*
X112613649Y-138919690D01*
X112993855Y-138935141D01*
X113397256Y-138943282D01*
X113794001Y-138943570D01*
X114154240Y-138935462D01*
X114448122Y-138918412D01*
X114497556Y-138913754D01*
X114858854Y-138871769D01*
X115265504Y-138816492D01*
X115689232Y-138752503D01*
X116101764Y-138684385D01*
X116474826Y-138616720D01*
X116780144Y-138554088D01*
X116913664Y-138522232D01*
X117427222Y-138361633D01*
X117842726Y-138172481D01*
X118158042Y-137957866D01*
X118371036Y-137720876D01*
X118479574Y-137464601D01*
X118481523Y-137192131D01*
X118374748Y-136906556D01*
X118200155Y-136659599D01*
X117929243Y-136417792D01*
X117556282Y-136202398D01*
X117089971Y-136017950D01*
X116809510Y-135934708D01*
X116584035Y-135875779D01*
X116405254Y-135831735D01*
X116296994Y-135808296D01*
X116275765Y-135806559D01*
X116252465Y-135861016D01*
G37*
X116252465Y-135861016D02*
X116197375Y-135992465D01*
X116121931Y-136173613D01*
X116113870Y-136193018D01*
X115819771Y-136796083D01*
X115470937Y-137328079D01*
X115076375Y-137778271D01*
X114645091Y-138135924D01*
X114323382Y-138326869D01*
X114002945Y-138473400D01*
X113705065Y-138574258D01*
X113398186Y-138635224D01*
X113050751Y-138662080D01*
X112631204Y-138660608D01*
X112522000Y-138656901D01*
X112187588Y-138639994D01*
X111926211Y-138614150D01*
X111698038Y-138572733D01*
X111463239Y-138509107D01*
X111280223Y-138450024D01*
X110612073Y-138174066D01*
X110011235Y-137813718D01*
X109458583Y-137357199D01*
X109376225Y-137277290D01*
X109175195Y-137082491D01*
X109047961Y-136970559D01*
X108993658Y-136942702D01*
X109011426Y-137000130D01*
X109100400Y-137144050D01*
X109259718Y-137375673D01*
X109282735Y-137408304D01*
X109640360Y-137817896D01*
X110091543Y-138170028D01*
X110631099Y-138461956D01*
X111253844Y-138690935D01*
X111954592Y-138854222D01*
X112042223Y-138869035D01*
X112286488Y-138897473D01*
X112613649Y-138919690D01*
X112993855Y-138935141D01*
X113397256Y-138943282D01*
X113794001Y-138943570D01*
X114154240Y-138935462D01*
X114448122Y-138918412D01*
X114497556Y-138913754D01*
X114858854Y-138871769D01*
X115265504Y-138816492D01*
X115689232Y-138752503D01*
X116101764Y-138684385D01*
X116474826Y-138616720D01*
X116780144Y-138554088D01*
X116913664Y-138522232D01*
X117427222Y-138361633D01*
X117842726Y-138172481D01*
X118158042Y-137957866D01*
X118371036Y-137720876D01*
X118479574Y-137464601D01*
X118481523Y-137192131D01*
X118374748Y-136906556D01*
X118200155Y-136659599D01*
X117929243Y-136417792D01*
X117556282Y-136202398D01*
X117089971Y-136017950D01*
X116809510Y-135934708D01*
X116584035Y-135875779D01*
X116405254Y-135831735D01*
X116296994Y-135808296D01*
X116275765Y-135806559D01*
X116252465Y-135861016D01*
%TD*%
D11*
%TO.P,DS701,*%
%TO.N,*%
X186310801Y-122194800D03*
X186310801Y-73154800D03*
X103010801Y-73154800D03*
X103010801Y-122194800D03*
D12*
%TO.P,DS701,18*%
%TO.N,/MCU & Display/SPI_SCK*%
X186310801Y-101484800D03*
%TO.P,DS701,17*%
%TO.N,/MCU & Display/SPI_MISO*%
X186310801Y-98944800D03*
%TO.P,DS701,16*%
%TO.N,/MCU & Display/SPI_MOSI*%
X186310801Y-96404800D03*
%TO.P,DS701,15*%
%TO.N,/MCU & Display/SPI_SD_CS*%
X186310801Y-93864800D03*
%TO.P,DS701,14*%
%TO.N,Net-(DS701-Pad14)*%
X102010801Y-114174800D03*
%TO.P,DS701,13*%
%TO.N,Net-(DS701-Pad13)*%
X102010801Y-111634800D03*
%TO.P,DS701,12*%
%TO.N,Net-(DS701-Pad12)*%
X102010801Y-109094800D03*
%TO.P,DS701,11*%
%TO.N,Net-(DS701-Pad11)*%
X102010801Y-106554800D03*
%TO.P,DS701,10*%
%TO.N,Net-(DS701-Pad10)*%
X102010801Y-104014800D03*
%TO.P,DS701,9*%
%TO.N,/MCU & Display/SPI_MISO*%
X102010801Y-101474800D03*
%TO.P,DS701,8*%
%TO.N,Net-(DS701-Pad8)*%
X102010801Y-98934800D03*
%TO.P,DS701,7*%
%TO.N,/MCU & Display/SPI_SCK*%
X102010801Y-96394800D03*
%TO.P,DS701,6*%
%TO.N,/MCU & Display/SPI_MOSI*%
X102010801Y-93854800D03*
%TO.P,DS701,5*%
%TO.N,/MCU & Display/LCD_DC*%
X102010801Y-91314800D03*
%TO.P,DS701,4*%
%TO.N,/MCU & Display/LCD_~RESET~*%
X102010801Y-88774800D03*
%TO.P,DS701,3*%
%TO.N,/MCU & Display/SPI_LCD_CS*%
X102010801Y-86234800D03*
%TO.P,DS701,2*%
%TO.N,GND*%
X102010801Y-83694800D03*
%TO.P,DS701,1*%
%TO.N,+3V3*%
%TA.AperFunction,ComponentPad*%
G36*
G01*
X102435801Y-82004800D02*
X101585801Y-82004800D01*
G75*
G02*
X101160801Y-81579800I0J425000D01*
G01*
X101160801Y-80729800D01*
G75*
G02*
X101585801Y-80304800I425000J0D01*
G01*
X102435801Y-80304800D01*
G75*
G02*
X102860801Y-80729800I0J-425000D01*
G01*
X102860801Y-81579800D01*
G75*
G02*
X102435801Y-82004800I-425000J0D01*
G01*
G37*
%TD.AperFunction*%
%TD*%
D13*
%TO.P,TP702,1*%
%TO.N,Net-(TP702-Pad1)*%
X116205000Y-100965000D03*
%TD*%
%TO.P,TP701,1*%
%TO.N,Net-(TP701-Pad1)*%
X117221000Y-98298000D03*
%TD*%
D14*
%TO.P,J703,4*%
%TO.N,GND*%
X178562000Y-110998000D03*
%TO.P,J703,3*%
%TO.N,Net-(D702-Pad2)*%
X176022000Y-110998000D03*
%TO.P,J703,2*%
%TO.N,/MCU & Display/MCU_PROG_RX*%
X178562000Y-113538000D03*
D15*
%TO.P,J703,1*%
%TO.N,/MCU & Display/MCU_PROG_TX*%
X176022000Y-113538000D03*
%TD*%
D16*
%TO.P,LS701,2*%
%TO.N,GND*%
X130730000Y-115316000D03*
%TO.P,LS701,1*%
%TO.N,Net-(LS701-Pad1)*%
X125730000Y-115316000D03*
%TD*%
D14*
%TO.P,J701,6*%
%TO.N,Net-(J701-Pad6)*%
X136144000Y-125603000D03*
%TO.P,J701,5*%
%TO.N,/MCU & Display/MCU_NRST*%
X133604000Y-125603000D03*
%TO.P,J701,4*%
%TO.N,/MCU & Display/MCU_SWDIO_BOOT0*%
X131064000Y-125603000D03*
%TO.P,J701,3*%
%TO.N,GND*%
X128524000Y-125603000D03*
%TO.P,J701,2*%
%TO.N,/MCU & Display/MCU_SWCLK*%
X125984000Y-125603000D03*
D15*
%TO.P,J701,1*%
%TO.N,Net-(D701-Pad2)*%
X123444000Y-125603000D03*
%TD*%
D13*
%TO.P,K501,12*%
%TO.N,Net-(D501-Pad2)*%
X167259000Y-70739000D03*
%TO.P,K501,10*%
%TO.N,N/C*%
X172339000Y-70739000D03*
%TO.P,K501,9*%
X174879000Y-70739000D03*
%TO.P,K501,8*%
X177419000Y-70739000D03*
%TO.P,K501,5*%
%TO.N,Net-(K501-Pad5)*%
X177419000Y-75819000D03*
%TO.P,K501,4*%
%TO.N,/Front End/Calibration Mux/OUTPUT_V+*%
X174879000Y-75819000D03*
%TO.P,K501,3*%
%TO.N,/Front End/V+*%
X172339000Y-75819000D03*
%TO.P,K501,1*%
%TO.N,+5VA*%
%TA.AperFunction,ComponentPad*%
G36*
G01*
X167758500Y-76569000D02*
X166759500Y-76569000D01*
G75*
G02*
X166509000Y-76318500I0J250500D01*
G01*
X166509000Y-75319500D01*
G75*
G02*
X166759500Y-75069000I250500J0D01*
G01*
X167758500Y-75069000D01*
G75*
G02*
X168009000Y-75319500I0J-250500D01*
G01*
X168009000Y-76318500D01*
G75*
G02*
X167758500Y-76569000I-250500J0D01*
G01*
G37*
%TD.AperFunction*%
%TD*%
%TO.P,K301,12*%
%TO.N,Net-(D302-Pad2)*%
X180022500Y-100693500D03*
%TO.P,K301,10*%
%TO.N,/ADC/V-_INPUT*%
X174942500Y-100693500D03*
%TO.P,K301,9*%
%TO.N,/ADC/I_SENSE-*%
X172402500Y-100693500D03*
%TO.P,K301,8*%
%TO.N,/Front End/CURRENT_SOURCE_-*%
X169862500Y-100693500D03*
%TO.P,K301,5*%
%TO.N,/Front End/Calibration Mux/OUTPUT_V+*%
X169862500Y-95613500D03*
%TO.P,K301,4*%
%TO.N,/Front End/Ohmeter Current Source/CURRENT_SOURCE_OUT+*%
X172402500Y-95613500D03*
%TO.P,K301,3*%
%TO.N,GND*%
X174942500Y-95613500D03*
%TO.P,K301,1*%
%TO.N,+5VA*%
%TA.AperFunction,ComponentPad*%
G36*
G01*
X179523000Y-94863500D02*
X180522000Y-94863500D01*
G75*
G02*
X180772500Y-95114000I0J-250500D01*
G01*
X180772500Y-96113000D01*
G75*
G02*
X180522000Y-96363500I-250500J0D01*
G01*
X179523000Y-96363500D01*
G75*
G02*
X179272500Y-96113000I0J250500D01*
G01*
X179272500Y-95114000D01*
G75*
G02*
X179523000Y-94863500I250500J0D01*
G01*
G37*
%TD.AperFunction*%
%TD*%
%TO.P,K302,1*%
%TO.N,+5VA*%
%TA.AperFunction,ComponentPad*%
G36*
G01*
X166636000Y-79874500D02*
X166636000Y-78875500D01*
G75*
G02*
X166886500Y-78625000I250500J0D01*
G01*
X167885500Y-78625000D01*
G75*
G02*
X168136000Y-78875500I0J-250500D01*
G01*
X168136000Y-79874500D01*
G75*
G02*
X167885500Y-80125000I-250500J0D01*
G01*
X166886500Y-80125000D01*
G75*
G02*
X166636000Y-79874500I0J250500D01*
G01*
G37*
%TD.AperFunction*%
%TO.P,K302,3*%
%TO.N,Net-(K302-Pad3)*%
X167386000Y-84455000D03*
%TO.P,K302,4*%
%TO.N,/ADC/V-_INPUT*%
X167386000Y-86995000D03*
%TO.P,K302,5*%
%TO.N,Net-(K302-Pad5)*%
X167386000Y-89535000D03*
%TO.P,K302,8*%
%TO.N,Net-(K302-Pad8)*%
X172466000Y-89535000D03*
%TO.P,K302,9*%
%TO.N,/Front End/Calibration Mux/OUTPUT_V+*%
X172466000Y-86995000D03*
%TO.P,K302,10*%
%TO.N,Net-(K302-Pad10)*%
X172466000Y-84455000D03*
%TO.P,K302,12*%
%TO.N,Net-(D301-Pad2)*%
X172466000Y-79375000D03*
%TD*%
D17*
%TO.P,SW101,3*%
%TO.N,/Power Input Protection/V_IN+*%
X154660200Y-126060200D03*
%TO.P,SW101,2*%
%TO.N,Net-(J101-Pad10)*%
X159410200Y-126060200D03*
%TO.P,SW101,1*%
%TO.N,Net-(SW101-Pad1)*%
X164160200Y-126060200D03*
%TD*%
D14*
%TO.P,J302,2*%
%TO.N,/Front End/I+*%
X114390800Y-60399400D03*
D15*
%TO.P,J302,1*%
%TO.N,/ADC/I_SENSE-*%
X116930800Y-60399400D03*
%TD*%
D14*
%TO.P,J301,2*%
%TO.N,/Front End/V+*%
X174930800Y-60399400D03*
D15*
%TO.P,J301,1*%
%TO.N,/ADC/I_SENSE-*%
X172390800Y-60399400D03*
%TD*%
%TO.P,SW704,1*%
%TO.N,GND*%
%TA.AperFunction,SMDPad,CuDef*%
G36*
G01*
X108198000Y-103997000D02*
X107448000Y-103997000D01*
G75*
G02*
X107073000Y-103622000I0J375000D01*
G01*
X107073000Y-102372000D01*
G75*
G02*
X107448000Y-101997000I375000J0D01*
G01*
X108198000Y-101997000D01*
G75*
G02*
X108573000Y-102372000I0J-375000D01*
G01*
X108573000Y-103622000D01*
G75*
G02*
X108198000Y-103997000I-375000J0D01*
G01*
G37*
%TD.AperFunction*%
%TO.P,SW704,2*%
%TO.N,Net-(R712-Pad2)*%
%TA.AperFunction,SMDPad,CuDef*%
G36*
G01*
X108198000Y-95797000D02*
X107448000Y-95797000D01*
G75*
G02*
X107073000Y-95422000I0J375000D01*
G01*
X107073000Y-94172000D01*
G75*
G02*
X107448000Y-93797000I375000J0D01*
G01*
X108198000Y-93797000D01*
G75*
G02*
X108573000Y-94172000I0J-375000D01*
G01*
X108573000Y-95422000D01*
G75*
G02*
X108198000Y-95797000I-375000J0D01*
G01*
G37*
%TD.AperFunction*%
%TD*%
D18*
%TO.P,PS101,6*%
%TO.N,+5VD*%
X153479500Y-117792500D03*
%TO.P,PS101,4*%
%TO.N,GND*%
X148399500Y-117792500D03*
%TO.P,PS101,1*%
%TO.N,/V_IN_ISOLATOR*%
%TA.AperFunction,ComponentPad*%
G36*
G01*
X141398700Y-118692500D02*
X140160300Y-118692500D01*
G75*
G02*
X139879500Y-118411700I0J280800D01*
G01*
X139879500Y-117173300D01*
G75*
G02*
X140160300Y-116892500I280800J0D01*
G01*
X141398700Y-116892500D01*
G75*
G02*
X141679500Y-117173300I0J-280800D01*
G01*
X141679500Y-118411700D01*
G75*
G02*
X141398700Y-118692500I-280800J0D01*
G01*
G37*
%TD.AperFunction*%
%TO.P,PS101,2*%
%TO.N,GNDL*%
X143319500Y-117792500D03*
%TD*%
D19*
%TO.P,J702,11*%
%TO.N,N/C*%
X179810400Y-82145500D03*
%TO.P,J702,10*%
X179810400Y-87145500D03*
%TO.P,J702,R*%
%TO.N,Net-(J702-PadR)*%
X179810400Y-89645500D03*
%TO.P,J702,T*%
%TO.N,Net-(J702-PadT)*%
X179810400Y-79645500D03*
%TO.P,J702,S*%
%TO.N,GNDL*%
X184810400Y-84645500D03*
%TD*%
D14*
%TO.P,J102,10*%
%TO.N,Net-(J102-Pad10)*%
X121390800Y-62529400D03*
%TO.P,J102,9*%
%TO.N,Net-(J102-Pad9)*%
X123930800Y-62529400D03*
%TO.P,J102,8*%
%TO.N,Net-(J102-Pad8)*%
X121390800Y-59989400D03*
%TO.P,J102,7*%
%TO.N,Net-(J102-Pad7)*%
X123930800Y-59989400D03*
%TO.P,J102,6*%
%TO.N,Net-(J102-Pad6)*%
X121390800Y-57449400D03*
%TO.P,J102,5*%
%TO.N,Net-(J102-Pad5)*%
X123930800Y-57449400D03*
%TO.P,J102,4*%
%TO.N,Net-(J102-Pad4)*%
X121390800Y-54909400D03*
%TO.P,J102,3*%
%TO.N,Net-(J102-Pad3)*%
X123930800Y-54909400D03*
%TO.P,J102,2*%
%TO.N,Net-(J102-Pad2)*%
X121390800Y-52369400D03*
D15*
%TO.P,J102,1*%
%TO.N,Net-(J102-Pad1)*%
X123930800Y-52369400D03*
%TD*%
D14*
%TO.P,J101,10*%
%TO.N,Net-(J101-Pad10)*%
X165390800Y-62529400D03*
%TO.P,J101,9*%
%TO.N,GNDL*%
X167930800Y-62529400D03*
%TO.P,J101,8*%
%TO.N,Net-(J101-Pad10)*%
X165390800Y-59989400D03*
%TO.P,J101,7*%
%TO.N,GNDL*%
X167930800Y-59989400D03*
%TO.P,J101,6*%
%TO.N,Net-(J101-Pad10)*%
X165390800Y-57449400D03*
%TO.P,J101,5*%
%TO.N,GNDL*%
X167930800Y-57449400D03*
%TO.P,J101,4*%
%TO.N,Net-(J101-Pad10)*%
X165390800Y-54909400D03*
%TO.P,J101,3*%
%TO.N,GNDL*%
X167930800Y-54909400D03*
%TO.P,J101,2*%
%TO.N,Net-(J101-Pad10)*%
X165390800Y-52369400D03*
D15*
%TO.P,J101,1*%
%TO.N,GNDL*%
X167930800Y-52369400D03*
%TD*%
D20*
%TO.N,GND*%
X160528000Y-121539000D03*
X160528000Y-123825000D03*
X163576000Y-123825000D03*
X163576000Y-121539000D03*
X176910984Y-106102190D03*
X110363000Y-97917000D03*
X110363000Y-96012000D03*
X112141000Y-93726000D03*
X112119616Y-95648618D03*
X111760000Y-102743000D03*
X117094000Y-86995000D03*
X119714172Y-88311828D03*
X131387800Y-85852000D03*
X118237000Y-80391000D03*
X129413000Y-78740000D03*
X129286000Y-73533000D03*
X142748000Y-72263000D03*
X148082000Y-74491800D03*
X146555109Y-75715041D03*
X140208000Y-74930000D03*
X152781000Y-72263000D03*
X157226000Y-72135995D03*
X161036000Y-74803000D03*
X168783000Y-103632000D03*
X173736000Y-102997000D03*
X178308000Y-102743000D03*
X160638328Y-87011672D03*
X152797672Y-83803328D03*
X143891000Y-90678000D03*
X144526000Y-94107000D03*
X139319000Y-89789000D03*
X137667994Y-95377000D03*
X131953000Y-82804000D03*
X136652000Y-81026000D03*
X159004000Y-94869000D03*
X163322000Y-99060000D03*
X168751210Y-116967000D03*
X183007000Y-64770000D03*
X143891000Y-80137000D03*
X120396000Y-73475800D03*
X126111000Y-73469500D03*
X108966000Y-99314000D03*
X111760000Y-100584000D03*
X169926000Y-122809004D03*
X115570000Y-95885000D03*
X132969000Y-89408000D03*
X116967000Y-78105000D03*
X161925000Y-87376000D03*
X158115000Y-112014000D03*
X166497000Y-112903000D03*
X153035000Y-74930004D03*
X129540000Y-92202000D03*
X115570000Y-84201000D03*
X118110000Y-113157000D03*
X101854000Y-129286000D03*
X101854000Y-133604000D03*
X131572000Y-136652000D03*
X161163000Y-136779000D03*
X126536410Y-92202000D03*
%TO.N,+5VD*%
X125412500Y-105600500D03*
X117411500Y-92900500D03*
X118682201Y-94171201D03*
X127889000Y-92201994D03*
X117602000Y-88265002D03*
%TO.N,+5VA*%
X150368000Y-74549000D03*
X152781000Y-82296000D03*
X165100000Y-116967000D03*
X165100000Y-118110000D03*
X163957000Y-118110000D03*
X163957000Y-119253000D03*
X165100000Y-119253000D03*
X165100000Y-120396000D03*
X163957000Y-120396000D03*
X137668000Y-97282000D03*
X129667000Y-88138000D03*
X148209000Y-90932000D03*
X159131000Y-120396000D03*
X159131000Y-119253000D03*
X159131000Y-118110000D03*
X159131000Y-117094000D03*
X160274000Y-117094000D03*
X160274000Y-118110000D03*
X160274000Y-119253000D03*
X160274000Y-120269000D03*
X166243000Y-118110000D03*
X166243000Y-119253000D03*
X166243000Y-120396000D03*
X182372000Y-67945000D03*
X134747000Y-89408000D03*
X139319000Y-91059000D03*
X163449000Y-100203000D03*
X156343651Y-99707150D03*
X153289003Y-78740003D03*
X113664996Y-82931000D03*
%TO.N,+3V3*%
X122682000Y-105918000D03*
X114300000Y-99060000D03*
X114300000Y-96520000D03*
X114300000Y-101600000D03*
X114300000Y-100330000D03*
X114300000Y-97790000D03*
X120777000Y-98679000D03*
X112884542Y-106038078D03*
X105925488Y-111239745D03*
X179070000Y-127508000D03*
X111543500Y-117818500D03*
X109728000Y-120396000D03*
X106045000Y-132461000D03*
X160655000Y-131445000D03*
X131318000Y-131445000D03*
%TO.N,VREF_4.096V*%
X146563500Y-83306500D03*
X146494625Y-78019590D03*
%TO.N,/MCU & Display/MCU_NRST*%
X126111000Y-111633000D03*
X111236597Y-106283597D03*
%TO.N,Net-(D301-Pad2)*%
X176022000Y-79502000D03*
%TO.N,Net-(D401-Pad2)*%
X153543694Y-94884228D03*
X153300138Y-89628657D03*
%TO.N,Net-(D601-Pad2)*%
X108331000Y-79629000D03*
X109601000Y-79629000D03*
X110871000Y-79629000D03*
X112141000Y-79629000D03*
X113411000Y-79629000D03*
X115062000Y-64897000D03*
X113919000Y-63246000D03*
X113919000Y-64262000D03*
X113919000Y-65278000D03*
X113919000Y-66294000D03*
%TO.N,Net-(J702-PadR)*%
X178336744Y-121196189D03*
%TO.N,Net-(J702-PadT)*%
X179514497Y-120205503D03*
%TO.N,/MCU & Display/MCU_PROG_RX*%
X113069811Y-115442991D03*
%TO.N,/MCU & Display/MCU_PROG_TX*%
X111396803Y-114391491D03*
%TO.N,/ADC/V-_INPUT*%
X147447000Y-82042000D03*
X146558010Y-76962000D03*
%TO.N,Net-(LS701-Pad1)*%
X120141992Y-118237000D03*
%TO.N,/Front End/METER_CURRENT_SOURCE_ON*%
X180213000Y-102616000D03*
X170998500Y-102813500D03*
%TO.N,/Front End/SET_CURRENT_SOURCE_A*%
X113995752Y-106416730D03*
X157607000Y-92455996D03*
%TO.N,/Front End/SET_CURRENT_SOURCE_B*%
X114695816Y-107204671D03*
X163957000Y-92837000D03*
%TO.N,/Front End/CALIBRATE_MUX_~A*%
X137668000Y-73278994D03*
X131571996Y-102870000D03*
%TO.N,/Front End/CALIBRATE_RELAY_ON*%
X132207001Y-100203001D03*
X152391122Y-73884426D03*
%TO.N,/Front End/CALIBRATE_MUX_~B*%
X150875996Y-72135996D03*
X131925646Y-101572644D03*
%TO.N,Net-(R712-Pad2)*%
X108966000Y-94868992D03*
%TO.N,/MCU & Display/MCU_TX*%
X118524638Y-107638588D03*
X169545008Y-120535778D03*
%TO.N,/MCU & Display/MCU_RX*%
X118334272Y-106597410D03*
X169692388Y-119492121D03*
%TO.N,/MCU & Display/SPI_SCK*%
X109903104Y-107617104D03*
%TO.N,/MCU & Display/SPI_MISO*%
X110744000Y-109728000D03*
%TO.N,/MCU & Display/SPI_MOSI*%
X106553000Y-109924808D03*
X110744000Y-110871000D03*
%TO.N,/MCU & Display/SPI_SD_CS*%
X111547664Y-116610384D03*
%TO.N,/MCU & Display/SPI_LCD_CS*%
X104140000Y-94742000D03*
%TO.N,GNDL*%
X178943000Y-115824000D03*
X178688994Y-122809000D03*
%TO.N,Net-(DS701-Pad8)*%
X104394000Y-107315000D03*
%TD*%
D21*
%TO.N,GND*%
X107823000Y-102997000D02*
X107823000Y-100457000D01*
X107823000Y-100457000D02*
X108966000Y-99314000D01*
D22*
%TO.N,+3V3*%
X131318000Y-131445000D02*
X128524000Y-131445000D01*
X131318000Y-131445000D02*
X160781992Y-131445000D01*
D23*
X113538000Y-95758000D02*
X114300000Y-96520000D01*
X113538000Y-92710000D02*
X113538000Y-95758000D01*
X102010801Y-81182801D02*
X113538000Y-92710000D01*
X102010801Y-81154800D02*
X102010801Y-81182801D01*
D22*
X175133000Y-131445000D02*
X179070000Y-127508000D01*
X160781992Y-131445000D02*
X175133000Y-131445000D01*
X128524000Y-131445000D02*
X120777000Y-131445000D01*
X113728500Y-124396500D02*
X109728000Y-120396000D01*
X120777000Y-131445000D02*
X113728500Y-124396500D01*
D21*
X106045000Y-132080000D02*
X106045000Y-132461000D01*
X113728500Y-124396500D02*
X106045000Y-132080000D01*
X160781992Y-131445000D02*
X160655000Y-131445000D01*
%TO.N,VREF_4.096V*%
X146563500Y-78088465D02*
X146494625Y-78019590D01*
X146563500Y-83306500D02*
X146563500Y-78088465D01*
%TO.N,/MCU & Display/MCU_NRST*%
X116586000Y-111633000D02*
X111236597Y-106283597D01*
X126111000Y-111633000D02*
X116586000Y-111633000D01*
D24*
%TO.N,Net-(D301-Pad2)*%
X172593000Y-79502000D02*
X172466000Y-79375000D01*
X176022000Y-79502000D02*
X172593000Y-79502000D01*
D21*
%TO.N,Net-(D401-Pad2)*%
X153543694Y-89872213D02*
X153300138Y-89628657D01*
X153543694Y-94884228D02*
X153543694Y-89872213D01*
D25*
%TO.N,/ADC/I_SENSE-*%
X116967000Y-60435600D02*
X116930800Y-60399400D01*
D21*
X171220699Y-94639699D02*
X171220699Y-99511699D01*
X170694199Y-62096001D02*
X170694199Y-94113199D01*
X171220699Y-99511699D02*
X172402500Y-100693500D01*
X170694199Y-94113199D02*
X171220699Y-94639699D01*
X172390800Y-60399400D02*
X170694199Y-62096001D01*
%TO.N,Net-(J702-PadR)*%
X178336744Y-118340104D02*
X178336744Y-121196189D01*
X179810400Y-89645500D02*
X181482999Y-91318099D01*
X181482999Y-91318099D02*
X181482999Y-115193849D01*
X181482999Y-115193849D02*
X178336744Y-118340104D01*
%TO.N,Net-(J702-PadT)*%
X179514497Y-118024471D02*
X179514497Y-120205503D01*
X182092610Y-115446358D02*
X179514497Y-118024471D01*
X182092610Y-81927710D02*
X182092610Y-115446358D01*
X179810400Y-79645500D02*
X182092610Y-81927710D01*
%TO.N,/MCU & Display/MCU_PROG_RX*%
X168852805Y-121977195D02*
X167849589Y-122980411D01*
X178562000Y-114740081D02*
X171324886Y-121977195D01*
X120607231Y-122980411D02*
X113069811Y-115442991D01*
X171324886Y-121977195D02*
X168852805Y-121977195D01*
X178562000Y-113538000D02*
X178562000Y-114740081D01*
X167849589Y-122980411D02*
X120607231Y-122980411D01*
%TO.N,/MCU & Display/MCU_PROG_TX*%
X176022000Y-113538000D02*
X176022000Y-115404068D01*
X113502491Y-114391491D02*
X111396803Y-114391491D01*
X168600292Y-121367588D02*
X167597080Y-122370800D01*
X176022000Y-115404068D02*
X170058480Y-121367588D01*
X170058480Y-121367588D02*
X168600292Y-121367588D01*
X167597080Y-122370800D02*
X121481800Y-122370800D01*
X121481800Y-122370800D02*
X113502491Y-114391491D01*
%TO.N,/ADC/V-_INPUT*%
X146685000Y-76962000D02*
X146558010Y-76962000D01*
X147447000Y-77724000D02*
X146685000Y-76962000D01*
X147447000Y-82042000D02*
X147447000Y-77724000D01*
X166116000Y-88265000D02*
X167386000Y-86995000D01*
X169164000Y-101981000D02*
X166116000Y-98933000D01*
X166116000Y-98933000D02*
X166116000Y-88265000D01*
X173655000Y-101981000D02*
X169164000Y-101981000D01*
X174942500Y-100693500D02*
X173655000Y-101981000D01*
%TO.N,Net-(LS701-Pad1)*%
X125730000Y-115316000D02*
X122809000Y-118237000D01*
X122809000Y-118237000D02*
X120141992Y-118237000D01*
%TO.N,/Front End/METER_CURRENT_SOURCE_ON*%
X179000199Y-103828801D02*
X172013801Y-103828801D01*
X180213000Y-102616000D02*
X179000199Y-103828801D01*
X172013801Y-103828801D02*
X170998500Y-102813500D01*
%TO.N,/Front End/SET_CURRENT_SOURCE_A*%
X116653482Y-103759000D02*
X146303996Y-103759000D01*
X113995752Y-106416730D02*
X116653482Y-103759000D01*
X146303996Y-103759000D02*
X157607000Y-92455996D01*
%TO.N,/Front End/SET_CURRENT_SOURCE_B*%
X114695816Y-107204671D02*
X117506487Y-104394000D01*
X117506487Y-104394000D02*
X152965685Y-104394000D01*
X152965685Y-104394000D02*
X163957000Y-93402685D01*
X163957000Y-93402685D02*
X163957000Y-92837000D01*
%TO.N,/Front End/CALIBRATE_MUX_~A*%
X137668000Y-73278994D02*
X130555994Y-80391000D01*
X130555994Y-80391000D02*
X130555994Y-101853998D01*
X130555994Y-101853998D02*
X131571996Y-102870000D01*
%TO.N,/Front End/CALIBRATE_RELAY_ON*%
X132137199Y-100133199D02*
X132207001Y-100203001D01*
X146812000Y-73660000D02*
X132137199Y-88334801D01*
X132137199Y-88334801D02*
X132137199Y-100133199D01*
X148590000Y-73660000D02*
X146812000Y-73660000D01*
X152173095Y-73666399D02*
X152391122Y-73884426D01*
X148556719Y-73666399D02*
X152173095Y-73666399D01*
%TO.N,/Front End/CALIBRATE_MUX_~B*%
X148209008Y-72135992D02*
X150876000Y-72135992D01*
X147447000Y-72136000D02*
X131287120Y-88295880D01*
X148209000Y-72136000D02*
X147447000Y-72136000D01*
X131287120Y-100934118D02*
X131925646Y-101572644D01*
X131287120Y-88295880D02*
X131287120Y-100934118D01*
%TO.N,Net-(R712-Pad2)*%
X108894008Y-94797000D02*
X108966000Y-94868992D01*
X107823000Y-94797000D02*
X108894008Y-94797000D01*
%TO.N,/MCU & Display/MCU_TX*%
X157168588Y-107638588D02*
X168764001Y-119234001D01*
X118524638Y-107638588D02*
X157168588Y-107638588D01*
X168764001Y-119234001D02*
X168764001Y-119754771D01*
X168764001Y-119754771D02*
X169545008Y-120535778D01*
%TO.N,/MCU & Display/MCU_RX*%
X157410685Y-106807000D02*
X169692388Y-119088703D01*
X118334272Y-106597410D02*
X118543862Y-106807000D01*
X118543862Y-106807000D02*
X157410685Y-106807000D01*
X169692388Y-119088703D02*
X169692388Y-119492121D01*
D26*
%TO.N,/MCU & Display/SPI_SCK*%
X184404000Y-116332000D02*
X184404000Y-103391601D01*
X184404000Y-103391601D02*
X186310801Y-101484800D01*
X175115877Y-130073431D02*
X181997331Y-123191977D01*
X109372380Y-118496594D02*
X120949217Y-130073431D01*
X109372380Y-108147828D02*
X109372380Y-118496594D01*
X181997331Y-118738669D02*
X184404000Y-116332000D01*
X120949217Y-130073431D02*
X175115877Y-130073431D01*
X181997331Y-123191977D02*
X181997331Y-118738669D01*
X109903104Y-107617104D02*
X109372380Y-108147828D01*
%TO.N,/MCU & Display/SPI_MISO*%
X109931191Y-110540809D02*
X109931191Y-118265127D01*
X121180684Y-129514620D02*
X174884410Y-129514620D01*
X109931191Y-118265127D02*
X121180684Y-129514620D01*
X183819811Y-116125911D02*
X183819811Y-101435790D01*
X181438520Y-122960510D02*
X181438521Y-118507201D01*
X183819811Y-101435790D02*
X186310801Y-98944800D01*
X174884410Y-129514620D02*
X181438520Y-122960510D01*
X181438521Y-118507201D02*
X183819811Y-116125911D01*
X110744000Y-109728000D02*
X109931191Y-110540809D01*
%TO.N,/MCU & Display/SPI_MOSI*%
X104673390Y-96517389D02*
X102010801Y-93854800D01*
X106553000Y-98396999D02*
X104673390Y-96517389D01*
X106553000Y-109924808D02*
X106553000Y-98396999D01*
X183261000Y-115894444D02*
X183261000Y-99454601D01*
X180879711Y-118275733D02*
X183261000Y-115894444D01*
X110744000Y-110871000D02*
X110490002Y-111124998D01*
X110490002Y-118033660D02*
X121412151Y-128955809D01*
X121412151Y-128955809D02*
X174652943Y-128955809D01*
X174652943Y-128955809D02*
X180879709Y-122729043D01*
X180879709Y-122729043D02*
X180879711Y-118275733D01*
X110490002Y-111124998D02*
X110490002Y-118033660D01*
X183261000Y-99454601D02*
X186310801Y-96404800D01*
%TO.N,/MCU & Display/SPI_SD_CS*%
X182676820Y-115688346D02*
X182676821Y-97498780D01*
X180320901Y-122497573D02*
X180320901Y-118044265D01*
X111547664Y-116610384D02*
X123334278Y-128396998D01*
X180320901Y-118044265D02*
X182676820Y-115688346D01*
X123334278Y-128396998D02*
X174421476Y-128396998D01*
X174421476Y-128396998D02*
X180320901Y-122497573D01*
X182676821Y-97498780D02*
X186310801Y-93864800D01*
%TO.N,/MCU & Display/SPI_LCD_CS*%
X104140000Y-88363999D02*
X102010801Y-86234800D01*
X104140000Y-94742000D02*
X104140000Y-88363999D01*
D22*
%TO.N,GNDL*%
X167930800Y-62529400D02*
X167930800Y-59989400D01*
X167930800Y-57449400D02*
X167930800Y-59989400D01*
X167930800Y-54909400D02*
X167930800Y-57449400D01*
X167930800Y-52369400D02*
X167930800Y-54909400D01*
D24*
%TO.N,Net-(DS701-Pad8)*%
X102010801Y-98934800D02*
X104394000Y-101317999D01*
X104394000Y-101317999D02*
X104394000Y-107315000D01*
%TD*%
D27*
%TO.N,Net-(D601-Pad2)*%
G36*
X115697000Y-62917606D02*
G01*
X115697000Y-80084394D01*
X115136394Y-80645000D01*
X108256606Y-80645000D01*
X107696000Y-80084394D01*
X107696000Y-62917606D01*
X108256606Y-62357000D01*
X115136394Y-62357000D01*
X115697000Y-62917606D01*
G37*
X115697000Y-62917606D02*
X115697000Y-80084394D01*
X115136394Y-80645000D01*
X108256606Y-80645000D01*
X107696000Y-80084394D01*
X107696000Y-62917606D01*
X108256606Y-62357000D01*
X115136394Y-62357000D01*
X115697000Y-62917606D01*
%TD*%
M02*
