%TF.GenerationSoftware,KiCad,Pcbnew,(5.1.6-0-10_14)*%
%TF.CreationDate,2020-11-20T20:27:55-06:00*%
%TF.ProjectId,Breadboard_DMM,42726561-6462-46f6-9172-645f444d4d2e,rev?*%
%TF.SameCoordinates,Original*%
%TF.FileFunction,Soldermask,Bot*%
%TF.FilePolarity,Negative*%
%FSLAX46Y46*%
G04 Gerber Fmt 4.6, Leading zero omitted, Abs format (unit mm)*
G04 Created by KiCad (PCBNEW (5.1.6-0-10_14)) date 2020-11-20 20:27:55*
%MOMM*%
%LPD*%
G01*
G04 APERTURE LIST*
%ADD10C,5.800000*%
%ADD11C,1.800000*%
%ADD12C,1.600000*%
%ADD13O,1.800000X1.800000*%
%ADD14R,1.800000X1.800000*%
%ADD15C,1.950000*%
%ADD16C,2.900000*%
%ADD17C,1.900000*%
%ADD18O,2.500000X1.700000*%
%ADD19C,1.300000*%
G04 APERTURE END LIST*
D10*
%TO.C,DS701*%
X186310801Y-122194800D03*
X186310801Y-73154800D03*
X103010801Y-73154800D03*
X103010801Y-122194800D03*
D11*
X186310801Y-101484800D03*
X186310801Y-98944800D03*
X186310801Y-96404800D03*
X186310801Y-93864800D03*
X102010801Y-114174800D03*
X102010801Y-111634800D03*
X102010801Y-109094800D03*
X102010801Y-106554800D03*
X102010801Y-104014800D03*
X102010801Y-101474800D03*
X102010801Y-98934800D03*
X102010801Y-96394800D03*
X102010801Y-93854800D03*
X102010801Y-91314800D03*
X102010801Y-88774800D03*
X102010801Y-86234800D03*
X102010801Y-83694800D03*
G36*
G01*
X102460801Y-82054800D02*
X101560801Y-82054800D01*
G75*
G02*
X101110801Y-81604800I0J450000D01*
G01*
X101110801Y-80704800D01*
G75*
G02*
X101560801Y-80254800I450000J0D01*
G01*
X102460801Y-80254800D01*
G75*
G02*
X102910801Y-80704800I0J-450000D01*
G01*
X102910801Y-81604800D01*
G75*
G02*
X102460801Y-82054800I-450000J0D01*
G01*
G37*
%TD*%
D12*
%TO.C,TP702*%
X116205000Y-100965000D03*
%TD*%
%TO.C,TP701*%
X117221000Y-98298000D03*
%TD*%
D13*
%TO.C,J703*%
X178562000Y-110998000D03*
X176022000Y-110998000D03*
X178562000Y-113538000D03*
D14*
X176022000Y-113538000D03*
%TD*%
D15*
%TO.C,LS701*%
X130730000Y-115316000D03*
X125730000Y-115316000D03*
%TD*%
D13*
%TO.C,J701*%
X136144000Y-125603000D03*
X133604000Y-125603000D03*
X131064000Y-125603000D03*
X128524000Y-125603000D03*
X125984000Y-125603000D03*
D14*
X123444000Y-125603000D03*
%TD*%
D12*
%TO.C,K501*%
X167259000Y-70739000D03*
X172339000Y-70739000D03*
X174879000Y-70739000D03*
X177419000Y-70739000D03*
X177419000Y-75819000D03*
X174879000Y-75819000D03*
X172339000Y-75819000D03*
G36*
G01*
X167791800Y-76619000D02*
X166726200Y-76619000D01*
G75*
G02*
X166459000Y-76351800I0J267200D01*
G01*
X166459000Y-75286200D01*
G75*
G02*
X166726200Y-75019000I267200J0D01*
G01*
X167791800Y-75019000D01*
G75*
G02*
X168059000Y-75286200I0J-267200D01*
G01*
X168059000Y-76351800D01*
G75*
G02*
X167791800Y-76619000I-267200J0D01*
G01*
G37*
%TD*%
%TO.C,K301*%
X180022500Y-100693500D03*
X174942500Y-100693500D03*
X172402500Y-100693500D03*
X169862500Y-100693500D03*
X169862500Y-95613500D03*
X172402500Y-95613500D03*
X174942500Y-95613500D03*
G36*
G01*
X179489700Y-94813500D02*
X180555300Y-94813500D01*
G75*
G02*
X180822500Y-95080700I0J-267200D01*
G01*
X180822500Y-96146300D01*
G75*
G02*
X180555300Y-96413500I-267200J0D01*
G01*
X179489700Y-96413500D01*
G75*
G02*
X179222500Y-96146300I0J267200D01*
G01*
X179222500Y-95080700D01*
G75*
G02*
X179489700Y-94813500I267200J0D01*
G01*
G37*
%TD*%
%TO.C,K302*%
G36*
G01*
X166586000Y-79907800D02*
X166586000Y-78842200D01*
G75*
G02*
X166853200Y-78575000I267200J0D01*
G01*
X167918800Y-78575000D01*
G75*
G02*
X168186000Y-78842200I0J-267200D01*
G01*
X168186000Y-79907800D01*
G75*
G02*
X167918800Y-80175000I-267200J0D01*
G01*
X166853200Y-80175000D01*
G75*
G02*
X166586000Y-79907800I0J267200D01*
G01*
G37*
X167386000Y-84455000D03*
X167386000Y-86995000D03*
X167386000Y-89535000D03*
X172466000Y-89535000D03*
X172466000Y-86995000D03*
X172466000Y-84455000D03*
X172466000Y-79375000D03*
%TD*%
D16*
%TO.C,SW101*%
X154660200Y-126060200D03*
X159410200Y-126060200D03*
X164160200Y-126060200D03*
%TD*%
D13*
%TO.C,J302*%
X114390800Y-60399400D03*
D14*
X116930800Y-60399400D03*
%TD*%
D13*
%TO.C,J301*%
X174930800Y-60399400D03*
D14*
X172390800Y-60399400D03*
%TD*%
%TO.C,SW704*%
G36*
G01*
X108223000Y-104047000D02*
X107423000Y-104047000D01*
G75*
G02*
X107023000Y-103647000I0J400000D01*
G01*
X107023000Y-102347000D01*
G75*
G02*
X107423000Y-101947000I400000J0D01*
G01*
X108223000Y-101947000D01*
G75*
G02*
X108623000Y-102347000I0J-400000D01*
G01*
X108623000Y-103647000D01*
G75*
G02*
X108223000Y-104047000I-400000J0D01*
G01*
G37*
G36*
G01*
X108223000Y-95847000D02*
X107423000Y-95847000D01*
G75*
G02*
X107023000Y-95447000I0J400000D01*
G01*
X107023000Y-94147000D01*
G75*
G02*
X107423000Y-93747000I400000J0D01*
G01*
X108223000Y-93747000D01*
G75*
G02*
X108623000Y-94147000I0J-400000D01*
G01*
X108623000Y-95447000D01*
G75*
G02*
X108223000Y-95847000I-400000J0D01*
G01*
G37*
%TD*%
D17*
%TO.C,PS101*%
X153479500Y-117792500D03*
X148399500Y-117792500D03*
G36*
G01*
X141433100Y-118742500D02*
X140125900Y-118742500D01*
G75*
G02*
X139829500Y-118446100I0J296400D01*
G01*
X139829500Y-117138900D01*
G75*
G02*
X140125900Y-116842500I296400J0D01*
G01*
X141433100Y-116842500D01*
G75*
G02*
X141729500Y-117138900I0J-296400D01*
G01*
X141729500Y-118446100D01*
G75*
G02*
X141433100Y-118742500I-296400J0D01*
G01*
G37*
X143319500Y-117792500D03*
%TD*%
D18*
%TO.C,J702*%
X179810400Y-82145500D03*
X179810400Y-87145500D03*
X179810400Y-89645500D03*
X179810400Y-79645500D03*
X184810400Y-84645500D03*
D19*
X184810400Y-89645500D03*
X187310400Y-89645500D03*
X179810400Y-84645500D03*
X184810400Y-79645500D03*
X187310400Y-79645500D03*
%TD*%
D13*
%TO.C,J102*%
X121390800Y-62529400D03*
X123930800Y-62529400D03*
X121390800Y-59989400D03*
X123930800Y-59989400D03*
X121390800Y-57449400D03*
X123930800Y-57449400D03*
X121390800Y-54909400D03*
X123930800Y-54909400D03*
X121390800Y-52369400D03*
D14*
X123930800Y-52369400D03*
%TD*%
D13*
%TO.C,J101*%
X165390800Y-62529400D03*
X167930800Y-62529400D03*
X165390800Y-59989400D03*
X167930800Y-59989400D03*
X165390800Y-57449400D03*
X167930800Y-57449400D03*
X165390800Y-54909400D03*
X167930800Y-54909400D03*
X165390800Y-52369400D03*
D14*
X167930800Y-52369400D03*
%TD*%
M02*
