%TF.GenerationSoftware,KiCad,Pcbnew,(5.1.6-0-10_14)*%
%TF.CreationDate,2020-11-20T20:27:55-06:00*%
%TF.ProjectId,Breadboard_DMM,42726561-6462-46f6-9172-645f444d4d2e,rev?*%
%TF.SameCoordinates,Original*%
%TF.FileFunction,Legend,Bot*%
%TF.FilePolarity,Positive*%
%FSLAX46Y46*%
G04 Gerber Fmt 4.6, Leading zero omitted, Abs format (unit mm)*
G04 Created by KiCad (PCBNEW (5.1.6-0-10_14)) date 2020-11-20 20:27:55*
%MOMM*%
%LPD*%
G01*
G04 APERTURE LIST*
%ADD10C,0.762000*%
%ADD11C,0.304800*%
%ADD12C,0.203200*%
%ADD13C,0.120000*%
G04 APERTURE END LIST*
D10*
X161925000Y-104883857D02*
X160183285Y-104883857D01*
X161054142Y-107931857D02*
X161054142Y-104883857D01*
X158731857Y-107931857D02*
X159022142Y-107786714D01*
X159167285Y-107641571D01*
X159312428Y-107351285D01*
X159312428Y-106480428D01*
X159167285Y-106190142D01*
X159022142Y-106045000D01*
X158731857Y-105899857D01*
X158296428Y-105899857D01*
X158006142Y-106045000D01*
X157861000Y-106190142D01*
X157715857Y-106480428D01*
X157715857Y-107351285D01*
X157861000Y-107641571D01*
X158006142Y-107786714D01*
X158296428Y-107931857D01*
X158731857Y-107931857D01*
X155103285Y-107931857D02*
X155103285Y-106335285D01*
X155248428Y-106045000D01*
X155538714Y-105899857D01*
X156119285Y-105899857D01*
X156409571Y-106045000D01*
X155103285Y-107786714D02*
X155393571Y-107931857D01*
X156119285Y-107931857D01*
X156409571Y-107786714D01*
X156554714Y-107496428D01*
X156554714Y-107206142D01*
X156409571Y-106915857D01*
X156119285Y-106770714D01*
X155393571Y-106770714D01*
X155103285Y-106625571D01*
X153797000Y-107786714D02*
X153506714Y-107931857D01*
X152926142Y-107931857D01*
X152635857Y-107786714D01*
X152490714Y-107496428D01*
X152490714Y-107351285D01*
X152635857Y-107061000D01*
X152926142Y-106915857D01*
X153361571Y-106915857D01*
X153651857Y-106770714D01*
X153797000Y-106480428D01*
X153797000Y-106335285D01*
X153651857Y-106045000D01*
X153361571Y-105899857D01*
X152926142Y-105899857D01*
X152635857Y-106045000D01*
X151619857Y-105899857D02*
X150458714Y-105899857D01*
X151184428Y-104883857D02*
X151184428Y-107496428D01*
X151039285Y-107786714D01*
X150749000Y-107931857D01*
X150458714Y-107931857D01*
X149442714Y-106770714D02*
X147120428Y-106770714D01*
X145088428Y-104883857D02*
X144507857Y-104883857D01*
X144217571Y-105029000D01*
X143927285Y-105319285D01*
X143782142Y-105899857D01*
X143782142Y-106915857D01*
X143927285Y-107496428D01*
X144217571Y-107786714D01*
X144507857Y-107931857D01*
X145088428Y-107931857D01*
X145378714Y-107786714D01*
X145669000Y-107496428D01*
X145814142Y-106915857D01*
X145814142Y-105899857D01*
X145669000Y-105319285D01*
X145378714Y-105029000D01*
X145088428Y-104883857D01*
X142475857Y-106770714D02*
X140153571Y-106770714D01*
X138702142Y-107931857D02*
X138702142Y-104883857D01*
X137686142Y-107061000D01*
X136670142Y-104883857D01*
X136670142Y-107931857D01*
X134057571Y-107786714D02*
X134347857Y-107931857D01*
X134928428Y-107931857D01*
X135218714Y-107786714D01*
X135363857Y-107496428D01*
X135363857Y-106335285D01*
X135218714Y-106045000D01*
X134928428Y-105899857D01*
X134347857Y-105899857D01*
X134057571Y-106045000D01*
X133912428Y-106335285D01*
X133912428Y-106625571D01*
X135363857Y-106915857D01*
X133041571Y-105899857D02*
X131880428Y-105899857D01*
X132606142Y-104883857D02*
X132606142Y-107496428D01*
X132461000Y-107786714D01*
X132170714Y-107931857D01*
X131880428Y-107931857D01*
X129703285Y-107786714D02*
X129993571Y-107931857D01*
X130574142Y-107931857D01*
X130864428Y-107786714D01*
X131009571Y-107496428D01*
X131009571Y-106335285D01*
X130864428Y-106045000D01*
X130574142Y-105899857D01*
X129993571Y-105899857D01*
X129703285Y-106045000D01*
X129558142Y-106335285D01*
X129558142Y-106625571D01*
X131009571Y-106915857D01*
X128251857Y-107931857D02*
X128251857Y-105899857D01*
X128251857Y-106480428D02*
X128106714Y-106190142D01*
X127961571Y-106045000D01*
X127671285Y-105899857D01*
X127381000Y-105899857D01*
D11*
X182606405Y-132744028D02*
X183114405Y-132018314D01*
X183477262Y-132744028D02*
X183477262Y-131220028D01*
X182896691Y-131220028D01*
X182751548Y-131292600D01*
X182678977Y-131365171D01*
X182606405Y-131510314D01*
X182606405Y-131728028D01*
X182678977Y-131873171D01*
X182751548Y-131945742D01*
X182896691Y-132018314D01*
X183477262Y-132018314D01*
X181372691Y-132671457D02*
X181517834Y-132744028D01*
X181808120Y-132744028D01*
X181953262Y-132671457D01*
X182025834Y-132526314D01*
X182025834Y-131945742D01*
X181953262Y-131800600D01*
X181808120Y-131728028D01*
X181517834Y-131728028D01*
X181372691Y-131800600D01*
X181300120Y-131945742D01*
X181300120Y-132090885D01*
X182025834Y-132236028D01*
X180792120Y-131728028D02*
X180429262Y-132744028D01*
X180066405Y-131728028D01*
X178034405Y-131220028D02*
X177889262Y-131220028D01*
X177744120Y-131292600D01*
X177671548Y-131365171D01*
X177598977Y-131510314D01*
X177526405Y-131800600D01*
X177526405Y-132163457D01*
X177598977Y-132453742D01*
X177671548Y-132598885D01*
X177744120Y-132671457D01*
X177889262Y-132744028D01*
X178034405Y-132744028D01*
X178179548Y-132671457D01*
X178252120Y-132598885D01*
X178324691Y-132453742D01*
X178397262Y-132163457D01*
X178397262Y-131800600D01*
X178324691Y-131510314D01*
X178252120Y-131365171D01*
X178179548Y-131292600D01*
X178034405Y-131220028D01*
X183549834Y-135334828D02*
X183549834Y-133810828D01*
X182824120Y-135189685D02*
X182751548Y-135262257D01*
X182824120Y-135334828D01*
X182896691Y-135262257D01*
X182824120Y-135189685D01*
X182824120Y-135334828D01*
X180066405Y-135334828D02*
X180574405Y-134609114D01*
X180937262Y-135334828D02*
X180937262Y-133810828D01*
X180356691Y-133810828D01*
X180211548Y-133883400D01*
X180138977Y-133955971D01*
X180066405Y-134101114D01*
X180066405Y-134318828D01*
X180138977Y-134463971D01*
X180211548Y-134536542D01*
X180356691Y-134609114D01*
X180937262Y-134609114D01*
X178832691Y-135262257D02*
X178977834Y-135334828D01*
X179268120Y-135334828D01*
X179413262Y-135262257D01*
X179485834Y-135117114D01*
X179485834Y-134536542D01*
X179413262Y-134391400D01*
X179268120Y-134318828D01*
X178977834Y-134318828D01*
X178832691Y-134391400D01*
X178760120Y-134536542D01*
X178760120Y-134681685D01*
X179485834Y-134826828D01*
X178252120Y-135334828D02*
X177453834Y-134318828D01*
X178252120Y-134318828D02*
X177453834Y-135334828D01*
D12*
X113271904Y-99646619D02*
X113610571Y-99162809D01*
X113852476Y-99646619D02*
X113852476Y-98630619D01*
X113465428Y-98630619D01*
X113368666Y-98679000D01*
X113320285Y-98727380D01*
X113271904Y-98824142D01*
X113271904Y-98969285D01*
X113320285Y-99066047D01*
X113368666Y-99114428D01*
X113465428Y-99162809D01*
X113852476Y-99162809D01*
X112449428Y-99598238D02*
X112546190Y-99646619D01*
X112739714Y-99646619D01*
X112836476Y-99598238D01*
X112884857Y-99501476D01*
X112884857Y-99114428D01*
X112836476Y-99017666D01*
X112739714Y-98969285D01*
X112546190Y-98969285D01*
X112449428Y-99017666D01*
X112401047Y-99114428D01*
X112401047Y-99211190D01*
X112884857Y-99307952D01*
X112014000Y-99598238D02*
X111917238Y-99646619D01*
X111723714Y-99646619D01*
X111626952Y-99598238D01*
X111578571Y-99501476D01*
X111578571Y-99453095D01*
X111626952Y-99356333D01*
X111723714Y-99307952D01*
X111868857Y-99307952D01*
X111965619Y-99259571D01*
X112014000Y-99162809D01*
X112014000Y-99114428D01*
X111965619Y-99017666D01*
X111868857Y-98969285D01*
X111723714Y-98969285D01*
X111626952Y-99017666D01*
X110756095Y-99598238D02*
X110852857Y-99646619D01*
X111046380Y-99646619D01*
X111143142Y-99598238D01*
X111191523Y-99501476D01*
X111191523Y-99114428D01*
X111143142Y-99017666D01*
X111046380Y-98969285D01*
X110852857Y-98969285D01*
X110756095Y-99017666D01*
X110707714Y-99114428D01*
X110707714Y-99211190D01*
X111191523Y-99307952D01*
X110417428Y-98969285D02*
X110030380Y-98969285D01*
X110272285Y-98630619D02*
X110272285Y-99501476D01*
X110223904Y-99598238D01*
X110127142Y-99646619D01*
X110030380Y-99646619D01*
X136591523Y-137825238D02*
X136446380Y-137873619D01*
X136204476Y-137873619D01*
X136107714Y-137825238D01*
X136059333Y-137776857D01*
X136010952Y-137680095D01*
X136010952Y-137583333D01*
X136059333Y-137486571D01*
X136107714Y-137438190D01*
X136204476Y-137389809D01*
X136398000Y-137341428D01*
X136494761Y-137293047D01*
X136543142Y-137244666D01*
X136591523Y-137147904D01*
X136591523Y-137051142D01*
X136543142Y-136954380D01*
X136494761Y-136906000D01*
X136398000Y-136857619D01*
X136156095Y-136857619D01*
X136010952Y-136906000D01*
X135672285Y-136857619D02*
X135430380Y-137873619D01*
X135236857Y-137147904D01*
X135043333Y-137873619D01*
X134801428Y-136857619D01*
X134414380Y-137873619D02*
X134414380Y-136857619D01*
X134172476Y-136857619D01*
X134027333Y-136906000D01*
X133930571Y-137002761D01*
X133882190Y-137099523D01*
X133833809Y-137293047D01*
X133833809Y-137438190D01*
X133882190Y-137631714D01*
X133930571Y-137728476D01*
X134027333Y-137825238D01*
X134172476Y-137873619D01*
X134414380Y-137873619D01*
X132624285Y-137873619D02*
X132624285Y-136857619D01*
X132237238Y-136857619D01*
X132140476Y-136906000D01*
X132092095Y-136954380D01*
X132043714Y-137051142D01*
X132043714Y-137196285D01*
X132092095Y-137293047D01*
X132140476Y-137341428D01*
X132237238Y-137389809D01*
X132624285Y-137389809D01*
X131608285Y-137873619D02*
X131608285Y-137196285D01*
X131608285Y-137389809D02*
X131559904Y-137293047D01*
X131511523Y-137244666D01*
X131414761Y-137196285D01*
X131318000Y-137196285D01*
X130834190Y-137873619D02*
X130930952Y-137825238D01*
X130979333Y-137776857D01*
X131027714Y-137680095D01*
X131027714Y-137389809D01*
X130979333Y-137293047D01*
X130930952Y-137244666D01*
X130834190Y-137196285D01*
X130689047Y-137196285D01*
X130592285Y-137244666D01*
X130543904Y-137293047D01*
X130495523Y-137389809D01*
X130495523Y-137680095D01*
X130543904Y-137776857D01*
X130592285Y-137825238D01*
X130689047Y-137873619D01*
X130834190Y-137873619D01*
X129624666Y-137196285D02*
X129624666Y-138018761D01*
X129673047Y-138115523D01*
X129721428Y-138163904D01*
X129818190Y-138212285D01*
X129963333Y-138212285D01*
X130060095Y-138163904D01*
X129624666Y-137825238D02*
X129721428Y-137873619D01*
X129914952Y-137873619D01*
X130011714Y-137825238D01*
X130060095Y-137776857D01*
X130108476Y-137680095D01*
X130108476Y-137389809D01*
X130060095Y-137293047D01*
X130011714Y-137244666D01*
X129914952Y-137196285D01*
X129721428Y-137196285D01*
X129624666Y-137244666D01*
X129140857Y-137873619D02*
X129140857Y-137196285D01*
X129140857Y-137389809D02*
X129092476Y-137293047D01*
X129044095Y-137244666D01*
X128947333Y-137196285D01*
X128850571Y-137196285D01*
X128076476Y-137873619D02*
X128076476Y-137341428D01*
X128124857Y-137244666D01*
X128221619Y-137196285D01*
X128415142Y-137196285D01*
X128511904Y-137244666D01*
X128076476Y-137825238D02*
X128173238Y-137873619D01*
X128415142Y-137873619D01*
X128511904Y-137825238D01*
X128560285Y-137728476D01*
X128560285Y-137631714D01*
X128511904Y-137534952D01*
X128415142Y-137486571D01*
X128173238Y-137486571D01*
X128076476Y-137438190D01*
X127592666Y-137873619D02*
X127592666Y-137196285D01*
X127592666Y-137293047D02*
X127544285Y-137244666D01*
X127447523Y-137196285D01*
X127302380Y-137196285D01*
X127205619Y-137244666D01*
X127157238Y-137341428D01*
X127157238Y-137873619D01*
X127157238Y-137341428D02*
X127108857Y-137244666D01*
X127012095Y-137196285D01*
X126866952Y-137196285D01*
X126770190Y-137244666D01*
X126721809Y-137341428D01*
X126721809Y-137873619D01*
X126238000Y-137873619D02*
X126238000Y-137196285D01*
X126238000Y-137293047D02*
X126189619Y-137244666D01*
X126092857Y-137196285D01*
X125947714Y-137196285D01*
X125850952Y-137244666D01*
X125802571Y-137341428D01*
X125802571Y-137873619D01*
X125802571Y-137341428D02*
X125754190Y-137244666D01*
X125657428Y-137196285D01*
X125512285Y-137196285D01*
X125415523Y-137244666D01*
X125367142Y-137341428D01*
X125367142Y-137873619D01*
X124883333Y-137873619D02*
X124883333Y-137196285D01*
X124883333Y-136857619D02*
X124931714Y-136906000D01*
X124883333Y-136954380D01*
X124834952Y-136906000D01*
X124883333Y-136857619D01*
X124883333Y-136954380D01*
X124399523Y-137196285D02*
X124399523Y-137873619D01*
X124399523Y-137293047D02*
X124351142Y-137244666D01*
X124254380Y-137196285D01*
X124109238Y-137196285D01*
X124012476Y-137244666D01*
X123964095Y-137341428D01*
X123964095Y-137873619D01*
X123044857Y-137196285D02*
X123044857Y-138018761D01*
X123093238Y-138115523D01*
X123141619Y-138163904D01*
X123238380Y-138212285D01*
X123383523Y-138212285D01*
X123480285Y-138163904D01*
X123044857Y-137825238D02*
X123141619Y-137873619D01*
X123335142Y-137873619D01*
X123431904Y-137825238D01*
X123480285Y-137776857D01*
X123528666Y-137680095D01*
X123528666Y-137389809D01*
X123480285Y-137293047D01*
X123431904Y-137244666D01*
X123335142Y-137196285D01*
X123141619Y-137196285D01*
X123044857Y-137244666D01*
X173965809Y-110848019D02*
X173965809Y-111670495D01*
X173917428Y-111767257D01*
X173869047Y-111815638D01*
X173772285Y-111864019D01*
X173578761Y-111864019D01*
X173482000Y-111815638D01*
X173433619Y-111767257D01*
X173385238Y-111670495D01*
X173385238Y-110848019D01*
X172949809Y-111573733D02*
X172466000Y-111573733D01*
X173046571Y-111864019D02*
X172707904Y-110848019D01*
X172369238Y-111864019D01*
X171450000Y-111864019D02*
X171788666Y-111380209D01*
X172030571Y-111864019D02*
X172030571Y-110848019D01*
X171643523Y-110848019D01*
X171546761Y-110896400D01*
X171498380Y-110944780D01*
X171450000Y-111041542D01*
X171450000Y-111186685D01*
X171498380Y-111283447D01*
X171546761Y-111331828D01*
X171643523Y-111380209D01*
X172030571Y-111380209D01*
X171159714Y-110848019D02*
X170579142Y-110848019D01*
X170869428Y-111864019D02*
X170869428Y-110848019D01*
X174038380Y-113591219D02*
X174038380Y-112575219D01*
X173796476Y-112575219D01*
X173651333Y-112623600D01*
X173554571Y-112720361D01*
X173506190Y-112817123D01*
X173457809Y-113010647D01*
X173457809Y-113155790D01*
X173506190Y-113349314D01*
X173554571Y-113446076D01*
X173651333Y-113542838D01*
X173796476Y-113591219D01*
X174038380Y-113591219D01*
X172635333Y-113542838D02*
X172732095Y-113591219D01*
X172925619Y-113591219D01*
X173022380Y-113542838D01*
X173070761Y-113446076D01*
X173070761Y-113059028D01*
X173022380Y-112962266D01*
X172925619Y-112913885D01*
X172732095Y-112913885D01*
X172635333Y-112962266D01*
X172586952Y-113059028D01*
X172586952Y-113155790D01*
X173070761Y-113252552D01*
X172151523Y-113591219D02*
X172151523Y-112575219D01*
X172151523Y-112962266D02*
X172054761Y-112913885D01*
X171861238Y-112913885D01*
X171764476Y-112962266D01*
X171716095Y-113010647D01*
X171667714Y-113107409D01*
X171667714Y-113397695D01*
X171716095Y-113494457D01*
X171764476Y-113542838D01*
X171861238Y-113591219D01*
X172054761Y-113591219D01*
X172151523Y-113542838D01*
X170796857Y-112913885D02*
X170796857Y-113591219D01*
X171232285Y-112913885D02*
X171232285Y-113446076D01*
X171183904Y-113542838D01*
X171087142Y-113591219D01*
X170942000Y-113591219D01*
X170845238Y-113542838D01*
X170796857Y-113494457D01*
X169877619Y-112913885D02*
X169877619Y-113736361D01*
X169926000Y-113833123D01*
X169974380Y-113881504D01*
X170071142Y-113929885D01*
X170216285Y-113929885D01*
X170313047Y-113881504D01*
X169877619Y-113542838D02*
X169974380Y-113591219D01*
X170167904Y-113591219D01*
X170264666Y-113542838D01*
X170313047Y-113494457D01*
X170361428Y-113397695D01*
X170361428Y-113107409D01*
X170313047Y-113010647D01*
X170264666Y-112962266D01*
X170167904Y-112913885D01*
X169974380Y-112913885D01*
X169877619Y-112962266D01*
D13*
%TO.C,DS701*%
X189360801Y-73154800D02*
G75*
G03*
X189360801Y-73154800I-3050000J0D01*
G01*
X189360801Y-122194799D02*
G75*
G03*
X189360801Y-122194799I-3050000J0D01*
G01*
X106060800Y-73154800D02*
G75*
G03*
X106060800Y-73154800I-3050000J0D01*
G01*
X106060801Y-122194799D02*
G75*
G03*
X106060801Y-122194799I-3050000J0D01*
G01*
%TO.C,J703*%
X174752000Y-114808000D02*
X176022000Y-114808000D01*
X174752000Y-113538000D02*
X174752000Y-114808000D01*
X177064929Y-110618000D02*
X177519071Y-110618000D01*
X177064929Y-111378000D02*
X177519071Y-111378000D01*
X179604929Y-110618000D02*
X180002000Y-110618000D01*
X179604929Y-111378000D02*
X180002000Y-111378000D01*
X188662000Y-110618000D02*
X182662000Y-110618000D01*
X188662000Y-111378000D02*
X188662000Y-110618000D01*
X182662000Y-111378000D02*
X188662000Y-111378000D01*
X180002000Y-112268000D02*
X182662000Y-112268000D01*
X177132000Y-113158000D02*
X177519071Y-113158000D01*
X177132000Y-113918000D02*
X177519071Y-113918000D01*
X179604929Y-113158000D02*
X180002000Y-113158000D01*
X179604929Y-113918000D02*
X180002000Y-113918000D01*
X182662000Y-113258000D02*
X188662000Y-113258000D01*
X182662000Y-113378000D02*
X188662000Y-113378000D01*
X182662000Y-113498000D02*
X188662000Y-113498000D01*
X182662000Y-113618000D02*
X188662000Y-113618000D01*
X182662000Y-113738000D02*
X188662000Y-113738000D01*
X182662000Y-113858000D02*
X188662000Y-113858000D01*
X188662000Y-113158000D02*
X182662000Y-113158000D01*
X188662000Y-113918000D02*
X188662000Y-113158000D01*
X182662000Y-113918000D02*
X188662000Y-113918000D01*
X182662000Y-114868000D02*
X180002000Y-114868000D01*
X182662000Y-109668000D02*
X182662000Y-114868000D01*
X180002000Y-109668000D02*
X182662000Y-109668000D01*
X180002000Y-114868000D02*
X180002000Y-109668000D01*
%TO.C,J701*%
X122174000Y-124333000D02*
X122174000Y-125603000D01*
X123444000Y-124333000D02*
X122174000Y-124333000D01*
X136524000Y-126645929D02*
X136524000Y-127043000D01*
X135764000Y-126645929D02*
X135764000Y-127043000D01*
X136524000Y-135703000D02*
X136524000Y-129703000D01*
X135764000Y-135703000D02*
X136524000Y-135703000D01*
X135764000Y-129703000D02*
X135764000Y-135703000D01*
X134874000Y-127043000D02*
X134874000Y-129703000D01*
X133984000Y-126645929D02*
X133984000Y-127043000D01*
X133224000Y-126645929D02*
X133224000Y-127043000D01*
X133984000Y-135703000D02*
X133984000Y-129703000D01*
X133224000Y-135703000D02*
X133984000Y-135703000D01*
X133224000Y-129703000D02*
X133224000Y-135703000D01*
X132334000Y-127043000D02*
X132334000Y-129703000D01*
X131444000Y-126645929D02*
X131444000Y-127043000D01*
X130684000Y-126645929D02*
X130684000Y-127043000D01*
X131444000Y-135703000D02*
X131444000Y-129703000D01*
X130684000Y-135703000D02*
X131444000Y-135703000D01*
X130684000Y-129703000D02*
X130684000Y-135703000D01*
X129794000Y-127043000D02*
X129794000Y-129703000D01*
X128904000Y-126645929D02*
X128904000Y-127043000D01*
X128144000Y-126645929D02*
X128144000Y-127043000D01*
X128904000Y-135703000D02*
X128904000Y-129703000D01*
X128144000Y-135703000D02*
X128904000Y-135703000D01*
X128144000Y-129703000D02*
X128144000Y-135703000D01*
X127254000Y-127043000D02*
X127254000Y-129703000D01*
X126364000Y-126645929D02*
X126364000Y-127043000D01*
X125604000Y-126645929D02*
X125604000Y-127043000D01*
X126364000Y-135703000D02*
X126364000Y-129703000D01*
X125604000Y-135703000D02*
X126364000Y-135703000D01*
X125604000Y-129703000D02*
X125604000Y-135703000D01*
X124714000Y-127043000D02*
X124714000Y-129703000D01*
X123824000Y-126713000D02*
X123824000Y-127043000D01*
X123064000Y-126713000D02*
X123064000Y-127043000D01*
X123724000Y-129703000D02*
X123724000Y-135703000D01*
X123604000Y-129703000D02*
X123604000Y-135703000D01*
X123484000Y-129703000D02*
X123484000Y-135703000D01*
X123364000Y-129703000D02*
X123364000Y-135703000D01*
X123244000Y-129703000D02*
X123244000Y-135703000D01*
X123124000Y-129703000D02*
X123124000Y-135703000D01*
X123824000Y-135703000D02*
X123824000Y-129703000D01*
X123064000Y-135703000D02*
X123824000Y-135703000D01*
X123064000Y-129703000D02*
X123064000Y-135703000D01*
X122114000Y-129703000D02*
X122114000Y-127043000D01*
X137474000Y-129703000D02*
X122114000Y-129703000D01*
X137474000Y-127043000D02*
X137474000Y-129703000D01*
X122114000Y-127043000D02*
X137474000Y-127043000D01*
%TO.C,SW101*%
X169462399Y-123037650D02*
X168355293Y-123037650D01*
X169462399Y-124144757D02*
X169462399Y-123037650D01*
X149558400Y-123237651D02*
X149558401Y-133797650D01*
X158575401Y-123237651D02*
X149558400Y-123237651D01*
X158575401Y-122294651D02*
X158575401Y-123237651D01*
X160245401Y-123237651D02*
X160245400Y-122294650D01*
X169262399Y-123237650D02*
X160245401Y-123237651D01*
X169262400Y-133797649D02*
X169262399Y-123237650D01*
X149558401Y-133797650D02*
X169262400Y-133797649D01*
X160245399Y-122294649D02*
G75*
G03*
X158575401Y-122294651I-834999J-1D01*
G01*
%TO.C,SW704*%
X106223001Y-95700607D02*
X106813000Y-95700607D01*
X108833001Y-95700608D02*
X109423000Y-95700608D01*
X108833015Y-102090355D02*
X109423014Y-102090355D01*
X109766368Y-101747001D02*
X109766368Y-96001327D01*
X105879647Y-96001219D02*
X105879647Y-101747001D01*
X106223001Y-102090354D02*
X106813000Y-102090354D01*
X109423014Y-102090355D02*
G75*
G03*
X109766368Y-101747001I0J343354D01*
G01*
X109766368Y-96001326D02*
G75*
G03*
X109423000Y-95700608I-343368J-45674D01*
G01*
X106223001Y-95700607D02*
G75*
G03*
X105879647Y-96001219I0J-346393D01*
G01*
X105879648Y-101747001D02*
G75*
G03*
X106223001Y-102090354I343353J0D01*
G01*
%TO.C,J102*%
X125260800Y-51039400D02*
X123930800Y-51039400D01*
X125260800Y-52369400D02*
X125260800Y-51039400D01*
X122660800Y-51039400D02*
X120060800Y-51039400D01*
X122660800Y-53639400D02*
X122660800Y-51039400D01*
X125260800Y-53639400D02*
X122660800Y-53639400D01*
X120060800Y-51039400D02*
X120060800Y-63859400D01*
X125260800Y-53639400D02*
X125260800Y-63859400D01*
X125260800Y-63859400D02*
X120060800Y-63859400D01*
%TO.C,J101*%
X169260800Y-51039400D02*
X167930800Y-51039400D01*
X169260800Y-52369400D02*
X169260800Y-51039400D01*
X166660800Y-51039400D02*
X164060800Y-51039400D01*
X166660800Y-53639400D02*
X166660800Y-51039400D01*
X169260800Y-53639400D02*
X166660800Y-53639400D01*
X164060800Y-51039400D02*
X164060800Y-63859400D01*
X169260800Y-53639400D02*
X169260800Y-63859400D01*
X169260800Y-63859400D02*
X164060800Y-63859400D01*
%TO.C,J703*%
D12*
X182401028Y-108393895D02*
X182401028Y-108974466D01*
X182439733Y-109090580D01*
X182517142Y-109167990D01*
X182633257Y-109206695D01*
X182710666Y-109206695D01*
X182091390Y-108393895D02*
X181549523Y-108393895D01*
X181897866Y-109206695D01*
X181085066Y-108393895D02*
X181007657Y-108393895D01*
X180930247Y-108432600D01*
X180891542Y-108471304D01*
X180852838Y-108548714D01*
X180814133Y-108703533D01*
X180814133Y-108897057D01*
X180852838Y-109051876D01*
X180891542Y-109129285D01*
X180930247Y-109167990D01*
X181007657Y-109206695D01*
X181085066Y-109206695D01*
X181162476Y-109167990D01*
X181201180Y-109129285D01*
X181239885Y-109051876D01*
X181278590Y-108897057D01*
X181278590Y-108703533D01*
X181239885Y-108548714D01*
X181201180Y-108471304D01*
X181162476Y-108432600D01*
X181085066Y-108393895D01*
X180543200Y-108393895D02*
X180040038Y-108393895D01*
X180310971Y-108703533D01*
X180194857Y-108703533D01*
X180117447Y-108742238D01*
X180078742Y-108780942D01*
X180040038Y-108858352D01*
X180040038Y-109051876D01*
X180078742Y-109129285D01*
X180117447Y-109167990D01*
X180194857Y-109206695D01*
X180427085Y-109206695D01*
X180504495Y-109167990D01*
X180543200Y-109129285D01*
%TO.C,J701*%
X124616028Y-122998895D02*
X124616028Y-123579466D01*
X124654733Y-123695580D01*
X124732142Y-123772990D01*
X124848257Y-123811695D01*
X124925666Y-123811695D01*
X124306390Y-122998895D02*
X123764523Y-122998895D01*
X124112866Y-123811695D01*
X123300066Y-122998895D02*
X123222657Y-122998895D01*
X123145247Y-123037600D01*
X123106542Y-123076304D01*
X123067838Y-123153714D01*
X123029133Y-123308533D01*
X123029133Y-123502057D01*
X123067838Y-123656876D01*
X123106542Y-123734285D01*
X123145247Y-123772990D01*
X123222657Y-123811695D01*
X123300066Y-123811695D01*
X123377476Y-123772990D01*
X123416180Y-123734285D01*
X123454885Y-123656876D01*
X123493590Y-123502057D01*
X123493590Y-123308533D01*
X123454885Y-123153714D01*
X123416180Y-123076304D01*
X123377476Y-123037600D01*
X123300066Y-122998895D01*
X122255038Y-123811695D02*
X122719495Y-123811695D01*
X122487266Y-123811695D02*
X122487266Y-122998895D01*
X122564676Y-123115009D01*
X122642085Y-123192419D01*
X122719495Y-123231123D01*
%TO.C,SW101*%
X169116828Y-122502990D02*
X169000714Y-122541695D01*
X168807190Y-122541695D01*
X168729780Y-122502990D01*
X168691076Y-122464285D01*
X168652371Y-122386876D01*
X168652371Y-122309466D01*
X168691076Y-122232057D01*
X168729780Y-122193352D01*
X168807190Y-122154647D01*
X168962009Y-122115942D01*
X169039419Y-122077238D01*
X169078123Y-122038533D01*
X169116828Y-121961123D01*
X169116828Y-121883714D01*
X169078123Y-121806304D01*
X169039419Y-121767600D01*
X168962009Y-121728895D01*
X168768485Y-121728895D01*
X168652371Y-121767600D01*
X168381438Y-121728895D02*
X168187914Y-122541695D01*
X168033095Y-121961123D01*
X167878276Y-122541695D01*
X167684752Y-121728895D01*
X166949361Y-122541695D02*
X167413819Y-122541695D01*
X167181590Y-122541695D02*
X167181590Y-121728895D01*
X167259000Y-121845009D01*
X167336409Y-121922419D01*
X167413819Y-121961123D01*
X166446200Y-121728895D02*
X166368790Y-121728895D01*
X166291380Y-121767600D01*
X166252676Y-121806304D01*
X166213971Y-121883714D01*
X166175266Y-122038533D01*
X166175266Y-122232057D01*
X166213971Y-122386876D01*
X166252676Y-122464285D01*
X166291380Y-122502990D01*
X166368790Y-122541695D01*
X166446200Y-122541695D01*
X166523609Y-122502990D01*
X166562314Y-122464285D01*
X166601019Y-122386876D01*
X166639723Y-122232057D01*
X166639723Y-122038533D01*
X166601019Y-121883714D01*
X166562314Y-121806304D01*
X166523609Y-121767600D01*
X166446200Y-121728895D01*
X165401171Y-122541695D02*
X165865628Y-122541695D01*
X165633400Y-122541695D02*
X165633400Y-121728895D01*
X165710809Y-121845009D01*
X165788219Y-121922419D01*
X165865628Y-121961123D01*
%TO.C,SW704*%
X109680828Y-93292990D02*
X109564714Y-93331695D01*
X109371190Y-93331695D01*
X109293780Y-93292990D01*
X109255076Y-93254285D01*
X109216371Y-93176876D01*
X109216371Y-93099466D01*
X109255076Y-93022057D01*
X109293780Y-92983352D01*
X109371190Y-92944647D01*
X109526009Y-92905942D01*
X109603419Y-92867238D01*
X109642123Y-92828533D01*
X109680828Y-92751123D01*
X109680828Y-92673714D01*
X109642123Y-92596304D01*
X109603419Y-92557600D01*
X109526009Y-92518895D01*
X109332485Y-92518895D01*
X109216371Y-92557600D01*
X108945438Y-92518895D02*
X108751914Y-93331695D01*
X108597095Y-92751123D01*
X108442276Y-93331695D01*
X108248752Y-92518895D01*
X108016523Y-92518895D02*
X107474657Y-92518895D01*
X107823000Y-93331695D01*
X107010200Y-92518895D02*
X106932790Y-92518895D01*
X106855380Y-92557600D01*
X106816676Y-92596304D01*
X106777971Y-92673714D01*
X106739266Y-92828533D01*
X106739266Y-93022057D01*
X106777971Y-93176876D01*
X106816676Y-93254285D01*
X106855380Y-93292990D01*
X106932790Y-93331695D01*
X107010200Y-93331695D01*
X107087609Y-93292990D01*
X107126314Y-93254285D01*
X107165019Y-93176876D01*
X107203723Y-93022057D01*
X107203723Y-92828533D01*
X107165019Y-92673714D01*
X107126314Y-92596304D01*
X107087609Y-92557600D01*
X107010200Y-92518895D01*
X106042580Y-92789828D02*
X106042580Y-93331695D01*
X106236104Y-92480190D02*
X106429628Y-93060761D01*
X105926466Y-93060761D01*
%TO.C,J102*%
X119002628Y-52234495D02*
X119002628Y-52815066D01*
X119041333Y-52931180D01*
X119118742Y-53008590D01*
X119234857Y-53047295D01*
X119312266Y-53047295D01*
X118189828Y-53047295D02*
X118654285Y-53047295D01*
X118422057Y-53047295D02*
X118422057Y-52234495D01*
X118499466Y-52350609D01*
X118576876Y-52428019D01*
X118654285Y-52466723D01*
X117686666Y-52234495D02*
X117609257Y-52234495D01*
X117531847Y-52273200D01*
X117493142Y-52311904D01*
X117454438Y-52389314D01*
X117415733Y-52544133D01*
X117415733Y-52737657D01*
X117454438Y-52892476D01*
X117493142Y-52969885D01*
X117531847Y-53008590D01*
X117609257Y-53047295D01*
X117686666Y-53047295D01*
X117764076Y-53008590D01*
X117802780Y-52969885D01*
X117841485Y-52892476D01*
X117880190Y-52737657D01*
X117880190Y-52544133D01*
X117841485Y-52389314D01*
X117802780Y-52311904D01*
X117764076Y-52273200D01*
X117686666Y-52234495D01*
X117106095Y-52311904D02*
X117067390Y-52273200D01*
X116989980Y-52234495D01*
X116796457Y-52234495D01*
X116719047Y-52273200D01*
X116680342Y-52311904D01*
X116641638Y-52389314D01*
X116641638Y-52466723D01*
X116680342Y-52582838D01*
X117144800Y-53047295D01*
X116641638Y-53047295D01*
%TO.C,J101*%
X172444228Y-52132895D02*
X172444228Y-52713466D01*
X172482933Y-52829580D01*
X172560342Y-52906990D01*
X172676457Y-52945695D01*
X172753866Y-52945695D01*
X171631428Y-52945695D02*
X172095885Y-52945695D01*
X171863657Y-52945695D02*
X171863657Y-52132895D01*
X171941066Y-52249009D01*
X172018476Y-52326419D01*
X172095885Y-52365123D01*
X171128266Y-52132895D02*
X171050857Y-52132895D01*
X170973447Y-52171600D01*
X170934742Y-52210304D01*
X170896038Y-52287714D01*
X170857333Y-52442533D01*
X170857333Y-52636057D01*
X170896038Y-52790876D01*
X170934742Y-52868285D01*
X170973447Y-52906990D01*
X171050857Y-52945695D01*
X171128266Y-52945695D01*
X171205676Y-52906990D01*
X171244380Y-52868285D01*
X171283085Y-52790876D01*
X171321790Y-52636057D01*
X171321790Y-52442533D01*
X171283085Y-52287714D01*
X171244380Y-52210304D01*
X171205676Y-52171600D01*
X171128266Y-52132895D01*
X170083238Y-52945695D02*
X170547695Y-52945695D01*
X170315466Y-52945695D02*
X170315466Y-52132895D01*
X170392876Y-52249009D01*
X170470285Y-52326419D01*
X170547695Y-52365123D01*
%TD*%
M02*
